<svg id="svg" version="1.1" xmlns="http://www.w3.org/2000/svg" xmlns:xlink="http://www.w3.org/1999/xlink" width="400" height="172.02072538860102" viewBox="0, 0, 400,172.02072538860102"><g id="svgg"><path id="path0" d="M272.497 32.311 C 272.357 32.535,272.155 32.601,271.778 32.546 C 270.659 32.381,268.047 34.094,265.401 36.727 C 263.969 38.152,263.579 38.638,263.660 38.895 C 263.734 39.127,263.683 39.226,263.491 39.226 C 263.341 39.226,263.142 39.400,263.050 39.613 C 262.958 39.826,262.816 40.116,262.735 40.258 C 262.242 41.118,262.022 41.645,262.022 41.968 C 262.022 42.170,261.898 42.523,261.747 42.753 C 261.550 43.054,261.489 43.478,261.530 44.272 C 261.566 44.970,261.509 45.466,261.374 45.628 C 261.208 45.828,261.153 53.061,261.119 79.071 L 261.075 112.258 243.418 112.302 C 227.994 112.340,225.734 112.378,225.548 112.603 C 225.430 112.744,225.240 112.860,225.125 112.860 C 225.010 112.860,224.826 113.056,224.717 113.295 C 224.608 113.534,224.389 113.780,224.230 113.841 C 223.832 113.994,223.458 114.389,222.981 115.161 C 222.534 115.884,222.505 119.692,222.944 120.131 C 223.051 120.239,223.140 120.577,223.140 120.883 C 223.140 122.458,223.802 122.668,224.012 121.161 L 224.126 120.344 224.149 121.260 C 224.164 121.870,224.086 122.261,223.914 122.433 C 223.394 122.954,225.058 127.240,226.455 128.975 C 226.671 129.243,226.946 129.658,227.067 129.898 C 227.188 130.137,227.736 130.811,228.285 131.396 C 228.835 131.980,229.413 132.655,229.571 132.896 C 229.728 133.136,229.927 133.333,230.011 133.333 C 230.096 133.333,230.488 133.643,230.882 134.021 C 231.777 134.881,233.031 135.914,233.180 135.914 C 233.243 135.914,233.614 136.146,234.006 136.430 C 234.398 136.714,234.815 136.946,234.932 136.946 C 235.050 136.946,235.191 137.062,235.245 137.204 C 235.299 137.346,235.532 137.462,235.761 137.462 C 235.991 137.462,236.226 137.587,236.285 137.740 C 236.353 137.917,236.516 137.985,236.736 137.928 C 236.962 137.868,237.140 137.950,237.256 138.166 C 237.352 138.347,237.613 138.495,237.834 138.495 C 238.056 138.495,238.334 138.611,238.452 138.753 C 238.569 138.895,238.908 139.013,239.204 139.016 C 239.500 139.019,239.892 139.135,240.076 139.274 C 240.260 139.413,240.749 139.527,241.163 139.527 C 241.621 139.527,242.024 139.634,242.189 139.799 C 242.544 140.154,250.333 140.102,250.693 139.742 C 250.811 139.624,251.226 139.527,251.614 139.527 C 252.003 139.527,252.472 139.413,252.655 139.274 C 252.839 139.135,253.187 139.019,253.429 139.016 C 253.672 139.013,254.020 138.897,254.204 138.758 C 254.387 138.619,254.702 138.503,254.904 138.500 C 255.105 138.497,255.366 138.378,255.484 138.237 C 255.602 138.095,255.834 137.978,256.000 137.978 C 256.166 137.978,256.398 137.862,256.516 137.720 C 256.634 137.578,256.836 137.462,256.966 137.462 C 257.095 137.462,257.710 137.114,258.332 136.688 C 258.954 136.262,259.505 135.914,259.558 135.914 C 260.016 135.914,264.801 131.146,265.213 130.280 C 265.359 129.972,265.547 129.720,265.630 129.720 C 265.807 129.720,266.323 128.741,266.323 128.404 C 266.323 128.276,266.441 128.172,266.585 128.172 C 266.729 128.172,266.923 127.998,267.015 127.785 C 267.107 127.572,267.251 127.282,267.336 127.140 C 267.860 126.263,268.560 124.668,268.565 124.342 C 268.568 124.130,268.684 123.807,268.823 123.623 C 268.962 123.439,269.078 123.091,269.081 122.849 C 269.084 122.607,269.200 122.258,269.339 122.075 C 269.491 121.873,269.591 121.358,269.591 120.776 C 269.591 120.233,269.686 119.717,269.806 119.596 C 269.977 119.425,270.031 111.573,270.066 81.731 C 270.106 48.636,270.142 44.056,270.367 43.869 C 270.508 43.752,270.624 43.521,270.624 43.355 C 270.624 43.189,270.740 42.957,270.882 42.839 C 271.024 42.721,271.140 42.557,271.140 42.474 C 271.140 42.236,271.803 41.634,272.065 41.634 C 272.195 41.634,272.398 41.518,272.516 41.376 C 272.634 41.234,272.875 41.118,273.052 41.118 C 273.229 41.118,273.458 40.983,273.561 40.817 C 273.798 40.438,276.580 40.476,277.445 40.871 C 277.744 41.007,278.106 41.118,278.252 41.118 C 278.587 41.118,280.044 42.435,280.179 42.861 C 280.235 43.038,280.434 43.183,280.620 43.183 C 280.883 43.183,280.926 43.250,280.813 43.484 C 280.629 43.866,280.798 44.941,281.055 45.026 C 281.173 45.065,281.316 44.698,281.420 44.093 L 281.590 43.097 281.610 43.957 C 281.621 44.430,281.509 45.163,281.362 45.586 C 280.952 46.763,281.138 47.277,282.481 48.687 C 283.403 49.653,283.739 49.903,284.004 49.819 C 284.254 49.740,284.369 49.804,284.436 50.060 C 284.550 50.497,285.929 50.563,286.341 50.151 C 286.483 50.009,286.663 49.891,286.740 49.890 C 286.947 49.885,287.656 49.102,287.656 48.879 C 287.656 48.774,287.742 48.688,287.848 48.688 C 287.957 48.688,288.000 48.536,287.948 48.337 C 287.874 48.053,287.919 48.006,288.186 48.091 C 288.368 48.148,288.516 48.122,288.516 48.032 C 288.516 47.942,288.681 47.825,288.882 47.772 C 289.191 47.692,289.227 47.601,289.115 47.193 C 288.958 46.629,288.963 44.898,289.124 43.478 C 289.211 42.713,289.173 42.387,288.962 42.065 C 288.812 41.835,288.688 41.482,288.688 41.280 C 288.688 41.069,288.554 40.879,288.370 40.831 C 288.138 40.770,288.075 40.634,288.134 40.321 C 288.196 39.998,288.132 39.871,287.870 39.803 C 287.631 39.740,287.550 39.611,287.610 39.385 C 287.701 39.034,287.041 38.202,286.667 38.197 C 286.548 38.195,286.452 38.000,286.452 37.763 C 286.452 37.527,286.374 37.333,286.280 37.333 C 286.185 37.333,286.108 37.247,286.108 37.141 C 286.108 36.934,284.850 35.613,284.652 35.613 C 284.586 35.613,284.300 35.381,284.017 35.097 C 283.733 34.813,283.410 34.577,283.299 34.573 C 283.188 34.569,282.907 34.337,282.675 34.057 C 282.391 33.715,282.095 33.548,281.772 33.548 C 281.507 33.548,281.290 33.472,281.290 33.380 C 281.290 33.287,281.078 33.158,280.819 33.093 C 280.560 33.027,280.244 32.871,280.118 32.745 C 279.992 32.619,279.657 32.516,279.373 32.516 C 279.089 32.516,278.741 32.400,278.599 32.258 C 278.176 31.835,272.765 31.882,272.497 32.311 M286.108 37.763 C 286.108 37.905,286.030 38.022,285.935 38.022 C 285.841 38.022,285.763 37.905,285.763 37.763 C 285.763 37.622,285.841 37.505,285.935 37.505 C 286.030 37.505,286.108 37.622,286.108 37.763 M276.258 39.696 C 275.809 39.732,275.073 39.732,274.624 39.696 C 274.174 39.661,274.542 39.632,275.441 39.632 C 276.340 39.632,276.708 39.661,276.258 39.696 M288.602 43.269 C 288.602 43.884,288.544 44.387,288.473 44.387 C 288.402 44.387,288.344 43.884,288.344 43.269 C 288.344 42.654,288.402 42.151,288.473 42.151 C 288.544 42.151,288.602 42.654,288.602 43.269 M289.204 45.581 C 289.204 46.161,289.281 46.624,289.376 46.624 C 289.471 46.624,289.548 46.202,289.548 45.688 C 289.548 45.173,289.471 44.704,289.376 44.645 C 289.269 44.579,289.204 44.930,289.204 45.581 M262.323 95.527 C 262.298 104.824,262.278 97.217,262.278 78.624 C 262.278 60.030,262.298 52.424,262.323 61.720 C 262.347 71.017,262.347 86.230,262.323 95.527 M282.151 46.366 C 282.151 46.981,282.092 47.484,282.022 47.484 C 281.951 47.484,281.892 46.981,281.892 46.366 C 281.892 45.751,281.951 45.247,282.022 45.247 C 282.092 45.247,282.151 45.751,282.151 46.366 M204.637 63.472 C 204.547 63.561,204.163 63.657,203.785 63.687 C 203.312 63.725,203.097 63.823,203.097 64.000 C 203.097 64.169,203.334 64.294,203.785 64.363 C 204.458 64.465,204.454 64.468,203.570 64.492 C 203.066 64.505,202.667 64.440,202.667 64.344 C 202.667 63.981,201.907 64.196,201.299 64.731 C 200.950 65.039,200.476 65.450,200.246 65.646 C 199.107 66.615,197.849 68.504,197.849 69.245 C 197.849 69.441,197.744 69.754,197.615 69.940 C 197.162 70.597,197.219 73.462,197.685 73.462 C 197.890 73.462,198.067 72.094,197.996 71.067 C 197.963 70.587,197.994 70.193,198.065 70.193 C 198.225 70.194,198.203 73.906,198.040 74.495 C 197.852 75.167,197.428 75.032,197.366 74.280 C 197.300 73.484,196.989 73.420,196.989 74.202 C 196.989 74.951,196.725 75.183,195.871 75.183 C 194.651 75.183,193.572 76.073,193.983 76.739 C 194.068 76.877,194.003 76.907,193.775 76.834 C 193.116 76.625,192.086 77.795,192.086 78.752 C 192.086 79.756,192.691 80.533,193.217 80.204 C 193.480 80.040,193.540 80.084,193.633 80.510 C 193.693 80.784,193.854 81.101,193.990 81.213 C 194.125 81.326,194.237 81.506,194.238 81.612 C 194.240 81.957,195.562 82.581,196.292 82.581 L 196.989 82.581 196.989 91.517 C 196.989 97.289,197.050 100.490,197.161 100.559 C 197.256 100.618,197.333 100.918,197.333 101.227 C 197.333 101.592,197.473 101.921,197.732 102.164 C 198.225 102.627,198.366 102.634,198.366 102.194 C 198.366 102.004,198.453 101.849,198.560 101.849 C 198.687 101.849,198.720 102.062,198.656 102.460 C 198.565 103.016,198.588 103.061,198.908 102.959 C 199.198 102.867,199.241 102.906,199.154 103.180 C 199.077 103.425,199.163 103.564,199.481 103.710 C 199.719 103.818,199.914 103.986,199.914 104.082 C 199.914 104.309,200.720 104.312,200.860 104.086 C 200.919 103.991,201.315 103.914,201.741 103.914 C 202.213 103.914,202.473 103.981,202.409 104.086 C 202.350 104.181,202.036 104.258,201.710 104.258 C 201.385 104.258,201.118 104.335,201.118 104.430 C 201.118 104.525,201.423 104.602,201.796 104.602 C 202.169 104.602,202.522 104.525,202.581 104.430 C 202.639 104.335,202.915 104.258,203.193 104.258 C 203.471 104.258,203.699 104.178,203.699 104.081 C 203.699 103.983,203.834 103.855,204.000 103.797 C 204.699 103.550,205.051 103.042,204.972 102.391 C 204.902 101.820,204.914 101.799,205.100 102.155 C 205.334 102.604,205.648 102.576,205.741 102.098 C 205.775 101.919,205.930 101.680,206.085 101.567 C 206.338 101.382,206.370 100.426,206.413 91.971 L 206.460 82.581 207.445 82.578 C 209.968 82.572,209.927 81.802,207.398 81.668 C 206.593 81.626,206.698 81.606,207.871 81.581 C 208.782 81.561,209.376 81.616,209.376 81.720 C 209.376 81.815,209.577 81.892,209.822 81.892 C 210.378 81.892,210.980 81.221,210.713 80.899 C 210.613 80.779,210.586 80.626,210.652 80.560 C 210.717 80.494,210.836 80.545,210.915 80.673 C 211.149 81.050,211.968 80.368,211.914 79.841 C 211.848 79.205,211.478 79.216,211.292 79.859 L 211.128 80.430 211.112 79.881 C 211.104 79.579,211.174 79.284,211.269 79.226 C 211.363 79.167,211.441 78.969,211.441 78.786 C 211.441 78.602,211.557 78.452,211.699 78.452 C 211.862 78.452,211.957 78.616,211.957 78.896 C 211.957 79.175,212.037 79.314,212.172 79.269 C 212.495 79.161,212.537 78.636,212.248 78.310 C 212.107 78.151,211.965 77.873,211.932 77.692 C 211.829 77.132,211.466 77.191,211.292 77.795 L 211.128 78.366 211.112 77.817 C 211.104 77.515,211.175 77.219,211.272 77.160 C 211.575 76.972,211.257 76.712,210.867 76.830 C 210.574 76.918,210.538 76.896,210.698 76.728 C 210.986 76.424,210.304 75.527,209.784 75.527 C 209.571 75.527,209.349 75.449,209.290 75.355 C 209.232 75.260,208.579 75.183,207.840 75.183 L 206.496 75.183 206.387 74.504 C 206.171 73.156,205.722 73.372,205.575 74.896 L 205.472 75.957 205.446 74.642 C 205.425 73.615,205.476 73.305,205.677 73.228 C 205.871 73.154,205.942 72.814,205.961 71.876 L 205.987 70.624 206.157 72.043 C 206.318 73.389,206.623 74.005,206.625 72.989 C 206.628 71.187,207.149 70.782,209.125 71.045 C 211.132 71.312,212.048 70.906,211.668 69.918 C 211.584 69.697,211.636 69.662,211.916 69.751 C 212.112 69.813,212.322 69.783,212.383 69.684 C 212.444 69.586,212.411 69.505,212.311 69.505 C 212.211 69.505,212.129 69.420,212.129 69.315 C 212.129 69.210,212.239 69.167,212.374 69.219 C 212.771 69.371,213.503 68.941,213.504 68.554 C 213.505 68.363,213.628 68.030,213.779 67.815 C 214.032 67.454,214.025 67.368,213.692 66.659 C 213.313 65.853,213.095 65.713,212.922 66.165 C 212.737 66.645,212.809 66.899,213.161 67.011 C 213.351 67.071,213.505 67.270,213.505 67.452 C 213.505 67.872,213.418 67.870,212.989 67.441 C 212.620 67.071,212.493 65.720,212.827 65.720 C 212.928 65.720,212.960 65.640,212.899 65.541 C 212.838 65.443,212.640 65.409,212.459 65.467 C 212.274 65.525,212.129 65.491,212.129 65.388 C 212.129 65.287,212.203 65.204,212.293 65.204 C 212.383 65.204,212.325 64.973,212.164 64.689 C 211.956 64.323,211.740 64.174,211.419 64.173 C 211.170 64.173,210.870 64.056,210.753 63.914 C 210.506 63.616,208.604 63.546,208.430 63.828 C 208.370 63.925,207.536 64.000,206.517 64.000 C 205.357 64.000,204.749 63.938,204.817 63.828 C 204.876 63.733,205.651 63.656,206.548 63.656 C 207.516 63.656,208.172 63.586,208.172 63.484 C 208.172 63.264,204.860 63.253,204.637 63.472 M184.946 64.000 C 184.946 64.337,185.027 64.356,186.280 64.308 C 187.328 64.269,187.613 64.203,187.613 64.000 C 187.613 63.797,187.328 63.731,186.280 63.692 C 185.027 63.644,184.946 63.663,184.946 64.000 M40.946 64.000 C 40.946 64.110,42.351 64.172,44.817 64.172 C 47.283 64.172,48.688 64.110,48.688 64.000 C 48.688 63.890,47.283 63.828,44.817 63.828 C 42.351 63.828,40.946 63.890,40.946 64.000 M49.376 64.000 C 49.376 64.095,49.802 64.172,50.323 64.172 C 50.843 64.172,51.269 64.095,51.269 64.000 C 51.269 63.905,50.843 63.828,50.323 63.828 C 49.802 63.828,49.376 63.905,49.376 64.000 M39.280 64.455 C 39.126 64.861,38.789 65.204,38.545 65.204 C 38.440 65.204,38.303 65.340,38.241 65.505 C 38.106 65.862,37.760 66.235,37.561 66.240 C 37.286 66.245,36.645 67.064,36.645 67.408 C 36.645 68.273,37.060 68.581,37.328 67.914 C 37.422 67.679,37.484 74.095,37.484 84.215 C 37.484 94.335,37.422 100.751,37.328 100.516 C 37.056 99.839,36.641 100.162,36.648 101.046 C 36.651 101.388,37.309 102.194,37.585 102.194 C 37.738 102.194,38.194 102.651,38.194 102.804 C 38.194 103.082,39.560 104.258,39.884 104.258 C 40.078 104.258,40.286 104.335,40.344 104.430 C 40.413 104.541,43.471 104.602,48.956 104.602 C 54.512 104.602,57.462 104.542,57.462 104.430 C 57.462 104.335,57.835 104.258,58.290 104.258 C 58.751 104.258,59.265 104.146,59.451 104.005 C 59.635 103.867,60.039 103.750,60.349 103.747 C 60.689 103.744,60.954 103.639,61.013 103.484 C 61.070 103.336,61.327 103.226,61.615 103.226 C 61.904 103.226,62.161 103.116,62.217 102.968 C 62.272 102.826,62.484 102.710,62.690 102.710 C 62.895 102.710,63.258 102.488,63.496 102.216 C 63.734 101.945,64.099 101.669,64.308 101.603 C 64.517 101.537,64.731 101.313,64.784 101.107 C 64.838 100.900,65.128 100.615,65.430 100.473 C 65.733 100.330,66.094 99.967,66.237 99.660 C 66.378 99.354,66.560 99.103,66.639 99.100 C 66.900 99.094,67.429 98.331,67.435 97.954 C 67.438 97.751,67.557 97.541,67.699 97.486 C 67.841 97.432,67.957 97.186,67.957 96.939 C 67.957 96.693,68.073 96.375,68.215 96.233 C 68.375 96.074,68.473 95.652,68.473 95.127 C 68.473 94.661,68.551 94.280,68.645 94.280 C 68.746 94.280,68.817 93.681,68.817 92.827 C 68.817 92.029,68.740 91.327,68.645 91.269 C 68.551 91.210,68.473 90.789,68.473 90.333 C 68.473 89.806,68.379 89.426,68.215 89.290 C 68.073 89.173,67.957 88.853,67.957 88.581 C 67.957 88.309,67.878 88.086,67.781 88.086 C 67.684 88.086,67.529 87.912,67.437 87.699 C 67.014 86.721,64.472 84.062,63.454 83.533 L 62.822 83.205 64.056 81.983 C 65.318 80.735,65.720 80.196,65.720 79.756 C 65.720 79.619,65.883 79.456,66.081 79.393 C 66.349 79.307,66.422 79.173,66.364 78.869 C 66.308 78.577,66.378 78.430,66.605 78.358 C 66.781 78.302,66.926 78.126,66.927 77.967 C 66.929 77.808,67.041 77.368,67.178 76.989 C 67.527 76.021,67.530 73.060,67.183 72.713 C 67.041 72.571,66.925 72.188,66.925 71.861 C 66.925 71.535,66.809 71.172,66.667 71.054 C 66.525 70.936,66.409 70.692,66.409 70.511 C 66.409 70.331,66.292 70.138,66.151 70.084 C 66.009 70.029,65.892 69.896,65.892 69.788 C 65.891 69.680,65.640 69.309,65.333 68.964 C 65.025 68.619,64.514 68.022,64.195 67.636 C 63.877 67.251,63.454 66.884,63.256 66.821 C 63.059 66.758,62.702 66.485,62.464 66.214 C 62.226 65.942,61.863 65.720,61.658 65.720 C 61.452 65.720,61.240 65.604,61.185 65.462 C 61.131 65.320,60.898 65.204,60.669 65.204 C 60.440 65.204,60.207 65.088,60.153 64.946 C 60.041 64.656,59.092 64.589,58.925 64.860 C 58.784 65.089,51.499 65.093,51.358 64.865 C 51.301 64.773,50.312 64.691,49.154 64.683 C 46.586 64.666,41.127 64.403,40.131 64.249 C 39.516 64.154,39.382 64.187,39.280 64.455 M55.957 64.290 C 54.883 64.507,56.313 64.945,57.720 64.830 C 58.193 64.792,58.409 64.693,58.409 64.516 C 58.409 64.252,56.854 64.109,55.957 64.290 M183.312 64.688 C 183.040 64.972,182.909 65.204,183.022 65.204 C 183.134 65.204,183.226 65.287,183.226 65.388 C 183.226 65.491,183.080 65.525,182.896 65.467 C 182.715 65.409,182.517 65.443,182.456 65.541 C 182.395 65.640,182.427 65.720,182.527 65.720 C 182.628 65.720,182.710 65.803,182.710 65.904 C 182.710 66.007,182.564 66.042,182.380 65.983 C 182.199 65.926,182.001 65.959,181.940 66.058 C 181.879 66.156,181.911 66.237,182.011 66.237 C 182.128 66.237,182.194 66.886,182.194 68.043 C 182.194 69.037,182.127 69.849,182.046 69.849 C 181.965 69.849,181.912 69.153,181.928 68.303 C 181.960 66.621,181.855 66.219,181.467 66.541 C 181.102 66.844,181.176 69.545,181.560 69.929 C 181.719 70.088,181.849 70.290,181.849 70.378 C 181.849 70.466,181.966 70.538,182.108 70.538 C 182.249 70.538,182.366 70.623,182.366 70.728 C 182.366 70.846,182.531 70.878,182.796 70.811 C 183.225 70.703,183.419 70.961,183.011 71.097 C 182.876 71.142,182.987 71.337,183.312 71.622 C 183.862 72.105,184.172 72.193,184.344 71.914 C 184.492 71.675,187.756 71.697,188.290 71.940 C 188.804 72.175,189.682 71.490,189.494 71.001 C 189.418 70.803,189.477 70.757,189.728 70.823 C 190.576 71.044,191.312 69.785,191.312 68.113 C 191.312 66.589,191.115 66.085,190.727 66.612 C 190.420 67.028,189.859 66.394,190.007 65.802 C 190.109 65.395,190.082 65.361,189.744 65.468 C 189.444 65.564,189.389 65.532,189.473 65.312 C 189.703 64.712,188.288 63.808,187.957 64.344 C 187.898 64.439,187.124 64.516,186.226 64.516 C 185.258 64.516,184.602 64.447,184.602 64.344 C 184.602 63.978,183.783 64.197,183.312 64.688 M210.753 64.344 C 210.753 64.445,210.271 64.504,209.591 64.486 L 208.430 64.457 209.548 64.344 C 210.163 64.282,210.686 64.218,210.710 64.202 C 210.733 64.185,210.753 64.249,210.753 64.344 M246.464 65.627 L 244.989 67.102 244.989 84.119 C 244.989 99.016,245.021 101.169,245.247 101.395 C 245.389 101.537,245.507 101.716,245.508 101.794 C 245.512 101.962,246.277 102.710,246.445 102.710 C 246.608 102.710,247.053 103.171,247.057 103.343 C 247.063 103.618,247.882 104.258,248.229 104.258 C 248.423 104.258,248.630 104.335,248.688 104.430 C 248.747 104.525,249.211 104.602,249.720 104.602 C 250.230 104.602,250.694 104.525,250.753 104.430 C 250.811 104.335,251.004 104.258,251.181 104.258 C 251.887 104.258,253.240 102.644,253.149 101.911 C 253.076 101.321,253.090 101.290,253.270 101.634 C 253.556 102.182,253.707 102.121,254.104 101.301 C 254.650 100.170,254.650 68.260,254.104 67.129 C 253.711 66.317,253.487 66.231,253.237 66.796 C 253.096 67.115,253.081 67.068,253.147 66.529 C 253.221 65.933,253.197 65.885,252.877 65.987 C 252.576 66.082,252.543 66.044,252.645 65.720 C 252.750 65.390,252.717 65.358,252.387 65.462 C 252.074 65.562,252.026 65.528,252.110 65.264 C 252.206 64.965,252.077 64.948,249.934 64.972 C 248.681 64.986,247.966 64.948,248.344 64.886 C 249.202 64.747,249.298 64.284,248.486 64.205 C 248.001 64.158,247.772 64.319,246.464 65.627 M250.405 64.349 C 250.217 64.654,250.572 64.893,251.119 64.831 C 251.810 64.752,251.773 64.274,251.070 64.205 C 250.771 64.176,250.472 64.241,250.405 64.349 M40.774 64.860 C 40.774 64.955,40.445 65.021,40.043 65.008 L 39.312 64.983 40.000 64.860 C 40.378 64.792,40.708 64.726,40.731 64.713 C 40.755 64.699,40.774 64.766,40.774 64.860 M168.602 65.895 C 168.185 66.169,168.727 66.428,169.591 66.370 C 169.994 66.342,170.323 66.386,170.323 66.466 C 170.323 66.624,168.643 66.524,167.861 66.319 C 167.456 66.213,167.362 66.252,167.281 66.559 C 167.229 66.760,167.112 66.925,167.022 66.925 C 166.932 66.925,166.910 67.087,166.973 67.286 C 167.071 67.593,167.034 67.630,166.727 67.532 C 166.514 67.465,166.366 67.493,166.366 67.601 C 166.366 67.702,166.247 67.785,166.102 67.785 C 165.957 67.785,165.787 67.920,165.725 68.086 C 165.662 68.252,165.502 68.497,165.370 68.630 C 165.216 68.786,165.166 69.057,165.231 69.383 C 165.287 69.663,165.333 70.005,165.333 70.143 C 165.333 70.821,165.776 70.134,165.864 69.320 L 165.965 68.387 165.993 69.620 C 166.012 70.432,165.953 70.876,165.820 70.920 C 165.705 70.959,165.568 71.538,165.501 72.268 L 165.384 73.548 165.359 72.397 C 165.337 71.402,165.139 70.847,164.894 71.092 C 164.854 71.132,164.762 72.049,164.690 73.131 L 164.559 75.097 163.456 75.097 C 162.726 75.097,162.328 75.170,162.280 75.312 C 162.240 75.430,162.118 75.528,162.007 75.530 C 161.796 75.533,161.032 76.267,161.032 76.467 C 161.032 76.643,160.641 76.994,160.301 77.123 C 160.135 77.185,160.000 77.322,160.000 77.426 C 160.000 77.531,159.884 77.732,159.742 77.874 C 159.577 78.039,159.484 78.463,159.484 79.045 C 159.484 79.647,159.572 80.031,159.742 80.172 C 159.884 80.290,160.000 80.474,160.001 80.580 C 160.002 80.687,160.234 80.906,160.517 81.067 C 160.800 81.228,161.032 81.287,161.032 81.196 C 161.032 81.106,161.118 81.032,161.223 81.032 C 161.330 81.032,161.365 81.158,161.303 81.318 C 161.052 81.974,162.011 82.581,163.115 82.466 L 164.112 82.361 164.163 89.812 C 164.203 95.582,164.264 97.278,164.430 97.333 C 164.558 97.376,164.645 97.708,164.645 98.155 C 164.645 99.001,164.927 99.305,165.273 98.832 C 165.485 98.543,165.505 98.541,165.505 98.811 C 165.505 98.974,165.622 99.152,165.763 99.207 C 165.905 99.261,166.022 99.384,166.022 99.480 C 166.022 99.594,165.945 99.591,165.801 99.472 C 165.444 99.176,165.098 99.510,165.227 100.025 C 165.289 100.271,165.416 100.473,165.509 100.473 C 165.601 100.473,165.677 100.572,165.677 100.693 C 165.677 100.814,165.899 101.107,166.171 101.345 C 166.442 101.583,166.717 101.945,166.782 102.149 C 166.846 102.353,167.054 102.569,167.243 102.629 C 167.432 102.689,167.849 103.000,168.168 103.319 C 169.546 104.697,175.460 105.372,177.376 104.371 C 177.708 104.197,178.148 103.969,178.354 103.863 C 178.561 103.757,178.812 103.490,178.912 103.271 C 179.012 103.052,179.228 102.820,179.393 102.757 C 180.196 102.449,180.642 101.392,180.108 101.062 C 179.878 100.920,179.927 100.414,180.231 99.804 L 180.505 99.255 179.249 98.058 L 177.994 96.860 176.151 96.860 C 175.137 96.860,174.185 96.813,174.036 96.756 C 173.793 96.663,173.763 95.863,173.763 89.505 L 173.763 82.359 175.495 82.454 C 176.930 82.533,177.244 82.506,177.325 82.294 C 177.379 82.153,177.615 81.965,177.849 81.876 C 178.203 81.742,178.238 81.672,178.059 81.456 C 177.886 81.247,177.899 81.139,178.127 80.886 C 178.282 80.715,178.412 80.388,178.415 80.158 C 178.421 79.795,178.455 79.818,178.685 80.344 C 179.054 81.190,179.675 80.466,179.336 79.584 C 179.212 79.259,178.820 79.225,178.685 79.527 C 178.633 79.645,178.600 79.587,178.614 79.398 C 178.627 79.209,178.577 78.685,178.503 78.235 C 178.413 77.682,178.434 77.338,178.569 77.175 C 178.819 76.874,178.560 76.685,178.123 76.849 C 177.856 76.949,177.840 76.926,178.019 76.705 C 178.531 76.075,176.785 75.183,175.039 75.183 L 173.786 75.183 173.732 72.266 C 173.680 69.469,173.525 68.655,173.121 69.058 C 173.049 69.130,172.947 70.712,172.895 72.573 L 172.800 75.957 172.766 72.387 C 172.747 70.410,172.799 68.817,172.883 68.817 C 173.078 68.817,173.239 68.214,173.097 68.019 C 172.881 67.723,172.222 67.449,171.964 67.548 C 171.818 67.604,171.699 67.564,171.699 67.459 C 171.699 67.355,171.773 67.269,171.863 67.269 C 171.953 67.269,171.895 67.037,171.734 66.754 C 171.526 66.388,171.310 66.238,170.989 66.238 C 170.740 66.237,170.440 66.120,170.323 65.978 C 170.081 65.688,168.998 65.635,168.602 65.895 M245.892 78.064 C 245.868 84.191,245.829 91.991,245.804 95.398 C 245.779 98.804,245.741 93.791,245.718 84.258 C 245.696 74.725,245.735 66.925,245.806 66.925 C 245.877 66.925,245.916 71.938,245.892 78.064 M190.573 68.516 C 190.532 68.729,190.498 68.555,190.498 68.129 C 190.498 67.703,190.532 67.529,190.573 67.742 C 190.614 67.955,190.614 68.303,190.573 68.516 M253.849 84.215 C 253.849 93.346,253.791 100.817,253.720 100.817 C 253.649 100.817,253.591 93.346,253.591 84.215 C 253.591 75.084,253.649 67.613,253.720 67.613 C 253.791 67.613,253.849 75.084,253.849 84.215 M172.429 68.215 C 172.474 68.452,172.445 68.645,172.363 68.645 C 172.282 68.645,172.215 68.452,172.215 68.215 C 172.215 67.978,172.245 67.785,172.281 67.785 C 172.317 67.785,172.384 67.978,172.429 68.215 M198.710 69.161 C 198.710 69.445,198.680 69.677,198.643 69.677 C 198.607 69.677,198.543 69.445,198.501 69.161 C 198.459 68.877,198.489 68.645,198.567 68.645 C 198.646 68.645,198.710 68.877,198.710 69.161 M209.551 70.385 C 208.311 70.474,207.514 70.464,207.409 70.360 C 207.302 70.253,208.006 70.202,209.385 70.218 L 211.527 70.243 209.551 70.385 M53.333 70.968 C 53.451 71.110,53.736 71.226,53.967 71.226 C 54.202 71.226,54.339 71.301,54.280 71.398 C 54.221 71.492,54.017 71.570,53.825 71.570 C 53.111 71.570,53.648 72.005,54.568 72.172 C 55.665 72.371,56.680 73.063,56.846 73.725 C 56.988 74.291,57.486 74.234,57.653 73.634 C 57.763 73.238,57.774 73.248,57.789 73.763 C 57.801 74.138,57.892 74.323,58.065 74.323 C 58.275 74.323,58.316 74.570,58.289 75.656 L 58.255 76.989 58.195 75.819 C 58.134 74.633,57.801 74.127,57.448 74.685 C 57.207 75.065,57.268 76.426,57.549 76.966 C 57.691 77.237,57.801 77.585,57.795 77.740 C 57.786 77.943,57.731 77.914,57.596 77.634 C 57.349 77.122,57.154 77.146,56.910 77.720 C 56.657 78.317,55.918 79.140,55.635 79.140 C 55.517 79.140,55.376 79.283,55.320 79.458 C 55.234 79.728,55.087 79.764,54.365 79.695 C 53.755 79.636,53.389 79.693,53.084 79.892 C 52.728 80.126,52.116 80.172,49.382 80.172 L 46.108 80.172 46.108 75.957 L 46.108 71.742 48.817 71.732 C 51.913 71.721,52.903 71.597,52.903 71.223 C 52.903 71.009,52.358 70.953,49.548 70.876 L 46.194 70.784 49.656 70.747 C 52.557 70.716,53.154 70.752,53.333 70.968 M66.183 72.043 C 66.140 72.209,66.104 72.073,66.104 71.742 C 66.104 71.411,66.140 71.275,66.183 71.441 C 66.226 71.606,66.226 71.877,66.183 72.043 M45.548 78.065 C 45.518 79.271,45.494 78.284,45.494 75.871 C 45.494 73.458,45.518 72.471,45.548 73.677 C 45.577 74.884,45.577 76.858,45.548 78.065 M184.637 72.061 C 184.129 72.383,184.966 72.688,186.345 72.683 C 187.743 72.679,188.402 72.418,187.870 72.081 C 187.554 71.882,184.945 71.865,184.637 72.061 M66.788 74.816 C 66.801 75.964,66.759 76.954,66.696 77.018 C 66.632 77.081,66.581 76.100,66.581 74.839 C 66.581 73.577,66.622 72.586,66.673 72.637 C 66.724 72.688,66.776 73.669,66.788 74.816 M82.581 75.269 C 82.463 75.411,82.114 75.527,81.806 75.527 C 81.498 75.527,81.150 75.643,81.032 75.785 C 80.914 75.927,80.599 76.043,80.332 76.043 C 80.064 76.043,79.783 76.140,79.707 76.258 C 79.553 76.500,79.073 76.821,78.495 77.071 C 78.282 77.163,78.108 77.318,78.108 77.415 C 78.108 77.512,78.006 77.591,77.882 77.591 C 77.757 77.591,77.433 77.824,77.161 78.108 C 76.889 78.391,76.571 78.624,76.454 78.624 C 76.194 78.624,75.665 79.633,75.805 79.860 C 75.860 79.950,75.762 79.998,75.587 79.968 C 75.322 79.923,75.276 80.014,75.310 80.516 C 75.346 81.050,75.331 81.073,75.182 80.720 C 74.992 80.270,74.667 80.365,74.667 80.870 C 74.667 81.054,74.570 81.206,74.452 81.207 C 74.066 81.213,73.417 82.045,73.513 82.410 C 73.571 82.635,73.517 82.753,73.355 82.753 C 73.219 82.753,73.059 82.888,73.001 83.054 C 72.942 83.219,72.780 83.488,72.641 83.650 C 72.498 83.816,72.424 84.134,72.470 84.377 C 72.531 84.693,72.467 84.837,72.233 84.911 C 71.894 85.019,71.760 86.022,72.086 86.022 C 72.181 86.022,72.316 86.025,72.387 86.028 C 72.458 86.032,72.564 85.780,72.623 85.469 C 72.725 84.925,72.730 84.932,72.752 85.634 C 72.768 86.180,72.709 86.366,72.516 86.366 C 72.353 86.366,72.252 86.540,72.241 86.839 C 72.225 87.283,72.217 87.288,72.112 86.915 C 72.050 86.696,71.942 86.522,71.871 86.527 C 71.800 86.533,71.665 86.538,71.570 86.538 C 71.471 86.538,71.398 87.079,71.398 87.818 C 71.398 88.522,71.320 89.146,71.226 89.204 C 71.131 89.263,71.054 89.500,71.054 89.731 C 71.054 89.962,71.131 90.151,71.226 90.151 C 71.320 90.151,71.398 89.966,71.398 89.740 C 71.398 89.481,71.519 89.299,71.727 89.244 C 71.909 89.197,72.092 88.975,72.134 88.751 C 72.196 88.424,72.216 88.451,72.235 88.889 C 72.248 89.189,72.200 89.459,72.129 89.491 C 71.444 89.795,71.072 93.069,71.656 93.653 C 71.798 93.795,71.914 94.134,71.914 94.406 C 71.914 94.679,72.028 95.052,72.167 95.236 C 72.305 95.420,72.422 95.747,72.425 95.962 C 72.428 96.178,72.546 96.399,72.688 96.454 C 72.830 96.508,72.948 96.719,72.949 96.922 C 72.954 97.455,73.739 98.163,74.045 97.909 C 74.351 97.654,74.549 98.279,74.260 98.588 C 74.114 98.743,74.119 98.816,74.280 98.875 C 74.398 98.918,74.495 99.066,74.495 99.203 C 74.495 99.340,74.611 99.496,74.753 99.551 C 74.895 99.605,75.011 99.719,75.011 99.803 C 75.011 99.986,75.643 100.642,75.828 100.652 C 75.899 100.656,76.147 100.889,76.379 101.169 C 76.611 101.448,76.869 101.677,76.951 101.677 C 77.034 101.677,77.334 101.910,77.618 102.194 C 77.902 102.477,78.244 102.710,78.379 102.710 C 78.513 102.710,78.624 102.781,78.624 102.868 C 78.624 103.116,79.739 103.741,80.192 103.747 C 80.418 103.750,80.752 103.867,80.936 104.005 C 81.120 104.144,81.472 104.258,81.719 104.258 C 81.966 104.258,82.264 104.355,82.383 104.473 C 82.540 104.631,83.522 104.688,86.073 104.688 C 89.898 104.688,90.871 104.527,89.290 104.156 L 88.344 103.934 89.290 104.002 C 89.811 104.040,90.561 104.120,90.957 104.181 C 91.481 104.262,91.785 104.217,92.071 104.017 C 92.287 103.866,92.650 103.742,92.878 103.742 C 93.315 103.742,94.452 103.124,94.452 102.886 C 94.452 102.810,94.645 102.698,94.882 102.639 C 95.118 102.580,95.312 102.455,95.312 102.362 C 95.312 102.269,95.398 102.194,95.504 102.194 C 95.711 102.194,97.032 100.936,97.032 100.739 C 97.032 100.586,97.488 100.129,97.641 100.129 C 98.632 100.129,98.991 97.400,98.087 96.732 C 97.703 96.448,97.545 96.413,97.374 96.571 C 97.199 96.732,97.177 96.708,97.266 96.458 C 97.426 96.003,97.227 95.767,96.906 96.033 C 96.675 96.225,96.654 96.206,96.752 95.898 C 96.951 95.272,96.124 94.560,95.344 94.685 C 94.691 94.789,92.306 95.886,92.137 96.159 C 92.085 96.243,91.888 96.271,91.699 96.222 C 91.510 96.173,91.148 96.268,90.895 96.434 C 90.634 96.605,89.981 96.768,89.392 96.810 C 88.820 96.850,88.247 96.970,88.121 97.075 C 87.994 97.180,87.489 97.248,86.999 97.226 C 86.413 97.200,85.990 97.276,85.763 97.448 C 85.574 97.592,85.187 97.704,84.903 97.697 L 84.387 97.685 84.946 97.506 C 85.885 97.205,85.602 96.835,84.395 96.784 C 83.872 96.762,83.528 96.624,83.168 96.289 C 82.892 96.033,82.547 95.786,82.401 95.740 C 82.082 95.638,81.106 93.735,80.967 92.946 L 80.869 92.387 89.368 92.387 L 97.867 92.387 98.135 91.850 C 98.283 91.555,98.358 91.240,98.303 91.150 C 98.247 91.061,98.345 91.012,98.520 91.042 C 98.737 91.079,98.831 91.000,98.814 90.792 C 98.801 90.625,98.878 90.503,98.986 90.521 C 100.038 90.698,100.729 87.397,99.876 86.269 C 99.738 86.086,99.621 85.577,99.618 85.139 C 99.615 84.647,99.514 84.261,99.355 84.129 C 99.213 84.011,99.097 83.700,99.097 83.438 C 99.097 83.173,98.982 82.918,98.839 82.863 C 98.697 82.808,98.581 82.576,98.581 82.346 C 98.581 82.117,98.484 81.891,98.366 81.844 C 98.247 81.797,97.996 81.462,97.806 81.100 C 97.393 80.310,94.922 77.811,94.095 77.347 C 93.771 77.165,93.443 76.913,93.368 76.788 C 93.292 76.662,93.127 76.559,93.002 76.559 C 92.876 76.559,92.671 76.436,92.547 76.286 C 92.406 76.116,92.140 76.040,91.840 76.084 C 91.486 76.136,91.333 76.072,91.259 75.841 C 91.183 75.601,90.985 75.527,90.418 75.527 C 89.969 75.527,89.592 75.425,89.462 75.269 C 89.286 75.056,88.680 75.011,86.022 75.011 C 83.363 75.011,82.757 75.056,82.581 75.269 M110.562 75.269 C 110.411 75.420,109.991 75.527,109.551 75.527 C 109.136 75.527,108.647 75.641,108.463 75.779 C 108.279 75.918,107.895 76.035,107.608 76.038 C 107.275 76.041,106.884 76.229,106.522 76.559 C 106.212 76.843,105.859 77.075,105.740 77.075 C 105.332 77.075,104.733 77.880,104.856 78.265 C 104.975 78.641,104.684 78.782,104.558 78.409 C 104.473 78.157,103.578 78.929,103.573 79.258 C 103.571 79.371,103.338 79.717,103.054 80.028 C 102.451 80.687,102.403 81.240,102.880 82.022 C 103.265 82.653,103.474 82.716,103.728 82.280 C 103.895 81.993,103.904 81.993,103.909 82.280 C 103.912 82.445,104.032 82.581,104.175 82.581 C 104.368 82.581,104.408 82.693,104.329 83.011 C 104.262 83.276,104.294 83.441,104.411 83.441 C 104.516 83.441,104.602 83.514,104.602 83.604 C 104.602 84.396,106.211 84.940,106.935 84.393 C 107.119 84.254,107.395 84.138,107.549 84.135 C 107.703 84.131,107.925 84.013,108.043 83.871 C 108.161 83.729,108.476 83.613,108.744 83.613 C 109.011 83.613,109.298 83.491,109.382 83.342 C 109.486 83.156,109.832 83.057,110.478 83.027 C 112.077 82.952,112.318 82.551,110.925 82.283 L 110.022 82.110 110.992 82.087 C 111.681 82.071,111.992 81.990,112.062 81.806 C 112.143 81.597,112.550 81.548,114.231 81.548 C 115.956 81.548,116.301 81.591,116.301 81.806 C 116.301 81.948,116.383 82.065,116.483 82.065 C 116.583 82.065,116.618 82.142,116.559 82.237 C 116.389 82.512,116.176 82.436,116.079 82.065 C 115.956 81.594,112.578 81.531,112.400 81.996 C 112.227 82.446,112.681 82.575,114.441 82.578 C 115.358 82.579,116.150 82.648,116.201 82.730 C 116.252 82.813,116.525 82.927,116.808 82.983 C 117.622 83.146,118.022 83.665,118.022 84.559 L 118.022 85.333 115.560 85.333 C 113.706 85.333,113.016 85.394,112.764 85.577 C 112.188 85.998,112.637 86.105,115.412 86.204 L 118.108 86.300 115.300 86.333 C 112.923 86.361,112.449 86.323,112.216 86.090 C 111.880 85.754,109.575 85.811,109.460 86.158 C 109.419 86.279,109.068 86.366,108.615 86.366 C 107.997 86.366,107.821 86.432,107.753 86.692 C 107.690 86.933,107.521 87.015,107.110 87.003 C 106.803 86.994,106.442 87.081,106.308 87.196 C 105.548 87.847,105.223 88.086,105.098 88.086 C 105.021 88.086,104.721 88.318,104.430 88.602 C 104.140 88.886,103.827 89.118,103.736 89.118 C 103.645 89.118,103.570 89.234,103.570 89.376 C 103.570 89.518,103.492 89.634,103.396 89.634 C 103.289 89.634,103.264 89.901,103.332 90.323 C 103.406 90.784,103.378 91.011,103.248 91.011 C 103.141 91.011,103.054 90.817,103.054 90.581 C 103.054 89.992,102.782 90.039,102.563 90.667 C 102.464 90.951,102.316 91.183,102.234 91.183 C 101.962 91.183,101.344 92.471,101.498 92.719 C 101.742 93.115,102.245 92.791,102.151 92.299 C 102.106 92.064,102.136 91.871,102.217 91.871 C 102.299 91.871,102.366 92.142,102.366 92.473 C 102.366 92.894,102.288 93.075,102.108 93.075 C 101.892 93.075,101.844 93.478,101.814 95.527 L 101.779 97.978 101.685 95.658 C 101.606 93.702,101.548 93.329,101.313 93.284 C 100.685 93.164,100.558 97.289,101.170 97.901 C 101.381 98.112,101.484 98.378,101.426 98.561 C 101.364 98.754,101.543 99.152,101.902 99.628 C 102.218 100.045,102.526 100.523,102.588 100.688 C 102.739 101.097,102.961 101.066,103.204 100.602 C 103.384 100.257,103.397 100.285,103.325 100.869 C 103.251 101.469,103.274 101.513,103.605 101.408 C 103.901 101.314,103.945 101.349,103.848 101.601 C 103.723 101.927,104.819 103.226,105.218 103.226 C 105.329 103.226,105.517 103.342,105.634 103.484 C 105.752 103.626,105.984 103.742,106.151 103.742 C 106.317 103.742,106.549 103.858,106.667 104.000 C 106.784 104.142,107.049 104.258,107.255 104.258 C 107.462 104.258,107.727 104.355,107.845 104.473 C 108.001 104.629,108.906 104.688,111.140 104.688 C 113.374 104.688,114.278 104.629,114.434 104.473 C 114.553 104.355,114.818 104.258,115.024 104.258 C 115.230 104.258,115.495 104.142,115.613 104.000 C 115.731 103.858,116.003 103.742,116.218 103.742 C 116.433 103.742,116.653 103.626,116.707 103.484 C 116.762 103.342,116.949 103.226,117.124 103.226 C 117.298 103.226,117.664 102.994,117.935 102.710 C 118.472 102.149,118.959 102.043,119.116 102.452 C 119.170 102.594,119.334 102.710,119.478 102.710 C 119.623 102.710,119.742 102.792,119.742 102.893 C 119.742 103.002,119.890 103.030,120.103 102.962 C 120.410 102.865,120.447 102.902,120.349 103.209 C 120.286 103.407,120.308 103.570,120.398 103.570 C 120.488 103.570,120.603 103.725,120.652 103.914 C 120.718 104.165,120.887 104.258,121.274 104.258 C 121.567 104.258,121.806 104.335,121.806 104.430 C 121.806 104.525,122.112 104.602,122.484 104.602 C 122.857 104.602,123.210 104.525,123.269 104.430 C 123.333 104.326,123.102 104.258,122.687 104.258 C 122.308 104.258,121.951 104.181,121.892 104.086 C 121.741 103.841,122.948 103.869,123.660 104.126 C 124.157 104.306,124.277 104.298,124.446 104.073 C 124.556 103.926,124.786 103.754,124.958 103.689 C 125.178 103.607,125.238 103.469,125.161 103.226 C 125.088 102.996,125.142 102.845,125.321 102.776 C 125.470 102.719,125.597 102.468,125.603 102.218 C 125.615 101.767,125.616 101.766,125.801 102.151 C 126.025 102.615,126.251 102.647,126.399 102.237 C 126.458 102.071,126.649 101.797,126.823 101.628 C 127.263 101.200,127.316 84.041,126.881 83.206 C 126.739 82.935,126.624 82.570,126.624 82.394 C 126.624 81.710,125.038 79.140,124.616 79.140 C 124.490 79.140,124.387 78.988,124.387 78.802 C 124.387 78.616,124.235 78.382,124.049 78.283 C 123.862 78.183,123.495 77.900,123.231 77.654 C 122.256 76.742,121.334 76.043,121.101 76.038 C 120.968 76.035,120.710 75.918,120.526 75.779 C 120.343 75.641,119.878 75.524,119.494 75.521 C 119.110 75.518,118.645 75.402,118.462 75.263 C 117.964 74.887,110.939 74.892,110.562 75.269 M284.774 75.123 C 284.317 75.311,284.570 75.680,285.204 75.750 C 285.587 75.791,285.534 75.801,285.075 75.772 C 284.649 75.745,284.037 75.669,283.714 75.602 C 283.248 75.505,283.078 75.546,282.893 75.800 C 282.726 76.028,282.487 76.105,282.060 76.068 C 281.640 76.032,281.431 76.097,281.358 76.288 C 281.300 76.437,281.088 76.561,280.885 76.564 C 280.682 76.567,280.290 76.799,280.014 77.080 C 279.738 77.361,279.440 77.591,279.351 77.591 C 278.822 77.591,275.613 80.767,275.613 81.290 C 275.613 81.358,275.395 81.695,275.128 82.040 C 274.434 82.937,273.857 84.132,273.973 84.435 C 274.030 84.585,273.926 84.796,273.724 84.937 C 273.315 85.224,273.273 85.819,273.629 86.290 C 273.830 86.556,273.882 87.285,273.882 89.892 C 273.882 92.500,273.830 93.229,273.629 93.495 C 273.273 93.966,273.315 94.561,273.724 94.848 C 273.921 94.986,274.030 95.201,273.975 95.345 C 273.860 95.644,274.585 97.150,275.189 97.868 C 275.422 98.145,275.613 98.424,275.613 98.488 C 275.613 99.010,279.354 102.710,279.882 102.710 C 279.971 102.710,280.140 102.826,280.258 102.968 C 280.376 103.110,280.608 103.226,280.774 103.226 C 280.940 103.226,281.173 103.342,281.290 103.484 C 281.411 103.630,281.786 103.742,282.153 103.742 C 282.571 103.742,282.837 103.834,282.901 104.000 C 282.955 104.142,283.180 104.258,283.401 104.258 C 283.622 104.258,283.899 104.355,284.017 104.473 C 284.176 104.632,285.232 104.688,288.086 104.688 C 290.940 104.688,291.996 104.632,292.155 104.473 C 292.273 104.355,292.616 104.258,292.917 104.258 C 293.217 104.258,293.560 104.142,293.677 104.000 C 293.795 103.858,294.123 103.742,294.405 103.742 C 294.716 103.742,295.175 103.538,295.570 103.226 C 295.928 102.942,296.280 102.710,296.351 102.710 C 296.906 102.710,301.075 98.499,301.075 97.939 C 301.075 97.842,301.191 97.666,301.333 97.548 C 301.475 97.431,301.591 97.158,301.591 96.944 C 301.591 96.729,301.708 96.508,301.849 96.454 C 301.991 96.399,302.108 96.194,302.108 95.998 C 302.108 95.802,302.280 95.408,302.492 95.122 C 302.864 94.619,302.867 94.587,302.578 94.083 C 302.270 93.547,302.125 90.323,302.409 90.323 C 302.480 90.323,302.538 91.052,302.538 91.943 C 302.538 92.834,302.597 93.622,302.670 93.695 C 302.984 94.010,303.226 93.339,303.239 92.116 C 303.246 91.378,303.338 90.744,303.454 90.628 C 303.706 90.376,303.716 89.864,303.472 89.713 C 303.372 89.651,303.180 89.743,303.048 89.918 C 302.851 90.178,302.806 90.187,302.801 89.970 C 302.798 89.823,302.883 89.616,302.989 89.510 C 303.294 89.205,303.279 86.484,302.970 86.111 C 302.829 85.941,302.736 85.634,302.763 85.429 C 302.790 85.224,302.653 84.854,302.460 84.608 C 302.266 84.362,302.108 83.996,302.108 83.795 C 302.108 83.594,301.991 83.385,301.849 83.331 C 301.708 83.277,301.591 83.044,301.591 82.815 C 301.591 82.585,301.475 82.353,301.333 82.299 C 301.191 82.244,301.075 82.084,301.075 81.942 C 301.075 81.246,297.234 77.371,296.314 77.139 C 296.107 77.087,295.897 76.935,295.846 76.802 C 295.795 76.668,295.565 76.559,295.336 76.559 C 295.106 76.559,294.874 76.443,294.820 76.301 C 294.765 76.159,294.534 76.043,294.306 76.043 C 294.078 76.043,293.795 75.927,293.677 75.785 C 293.438 75.497,292.129 75.424,292.129 75.699 C 292.129 75.797,291.705 75.858,291.140 75.840 L 290.151 75.809 290.978 75.744 C 291.645 75.692,291.795 75.622,291.750 75.388 C 291.695 75.100,285.409 74.861,284.774 75.123 M350.722 75.316 C 350.645 75.558,350.481 75.608,349.938 75.557 C 349.424 75.508,349.224 75.561,349.144 75.767 C 349.086 75.919,348.851 76.043,348.621 76.043 C 348.392 76.043,348.163 76.152,348.112 76.284 C 348.061 76.417,347.889 76.573,347.730 76.631 C 347.205 76.823,346.680 77.183,346.254 77.643 L 345.834 78.096 344.516 76.811 C 343.791 76.105,343.054 75.527,342.878 75.527 C 342.702 75.527,342.510 75.449,342.452 75.355 C 342.393 75.260,341.924 75.183,341.409 75.183 C 340.894 75.183,340.473 75.260,340.473 75.355 C 340.473 75.449,340.338 75.528,340.172 75.530 C 339.556 75.535,339.318 75.848,339.699 76.153 C 340.029 76.418,340.020 76.425,339.484 76.326 C 339.165 76.268,338.925 76.296,338.925 76.391 C 338.925 76.484,338.838 76.559,338.732 76.559 C 338.128 76.559,337.141 77.952,337.346 78.517 C 337.496 78.933,337.548 83.214,337.548 95.028 C 337.548 109.048,337.580 110.991,337.806 111.078 C 337.948 111.132,338.065 111.338,338.065 111.535 C 338.065 111.887,338.060 111.888,337.818 111.560 C 337.615 111.285,337.531 111.266,337.345 111.450 C 337.058 111.734,337.815 112.384,338.270 112.244 C 338.518 112.168,338.547 112.247,338.463 112.762 C 338.377 113.295,338.417 113.388,338.800 113.534 C 339.040 113.625,339.286 113.781,339.348 113.882 C 339.410 113.982,339.642 114.065,339.863 114.065 C 340.084 114.065,340.309 114.181,340.363 114.323 C 340.436 114.513,340.736 114.581,341.500 114.581 C 342.308 114.581,342.538 114.523,342.538 114.323 C 342.538 114.153,342.707 114.065,343.034 114.065 C 343.385 114.065,343.556 113.964,343.620 113.720 C 343.674 113.515,343.854 113.376,344.070 113.376 C 344.437 113.376,344.556 113.131,344.274 112.956 C 344.036 112.809,344.271 112.140,344.526 112.238 C 344.884 112.375,345.559 111.971,345.866 111.435 C 346.110 111.011,346.151 110.325,346.151 106.663 C 346.151 102.823,346.261 101.680,346.557 102.453 C 346.611 102.594,346.774 102.710,346.919 102.710 C 347.064 102.710,347.183 102.786,347.183 102.878 C 347.183 102.971,347.371 103.094,347.600 103.152 C 347.830 103.210,348.060 103.366,348.111 103.499 C 348.162 103.633,348.392 103.742,348.621 103.742 C 348.851 103.742,349.083 103.858,349.137 104.000 C 349.192 104.142,349.417 104.258,349.638 104.258 C 349.858 104.258,350.135 104.355,350.254 104.473 C 350.612 104.832,355.584 104.880,356.639 104.535 C 357.104 104.383,357.607 104.258,357.758 104.258 C 357.909 104.258,358.077 104.142,358.131 104.000 C 358.186 103.858,358.418 103.742,358.647 103.742 C 358.877 103.742,359.109 103.626,359.164 103.484 C 359.218 103.342,359.359 103.226,359.477 103.226 C 359.943 103.226,360.649 102.371,360.416 102.090 C 360.227 101.863,360.259 101.843,360.658 101.943 C 360.950 102.016,361.118 101.989,361.118 101.868 C 361.118 101.763,361.242 101.677,361.392 101.677 C 361.543 101.677,361.707 101.523,361.757 101.333 C 361.806 101.144,361.916 100.989,362.002 100.989 C 362.087 100.989,362.116 100.776,362.067 100.516 C 362.017 100.256,362.022 100.140,362.078 100.258 C 362.189 100.494,362.667 100.557,362.667 100.335 C 362.667 100.260,362.598 100.124,362.514 100.034 C 362.430 99.945,362.425 99.716,362.502 99.527 C 362.635 99.200,362.643 99.202,362.655 99.570 C 362.671 100.091,363.148 100.068,363.281 99.539 C 363.339 99.310,363.495 99.080,363.628 99.029 C 363.762 98.977,363.871 98.826,363.871 98.693 C 363.871 98.560,363.987 98.354,364.129 98.237 C 364.271 98.119,364.387 97.887,364.387 97.720 C 364.387 97.554,364.503 97.322,364.645 97.204 C 364.787 97.087,364.903 96.738,364.903 96.430 C 364.903 96.122,365.019 95.774,365.161 95.656 C 365.303 95.538,365.419 95.196,365.419 94.895 C 365.419 94.594,365.516 94.252,365.634 94.134 C 365.927 93.841,366.046 86.894,365.767 86.372 C 365.538 85.944,365.252 86.062,365.236 86.591 C 365.226 86.964,365.224 86.963,365.065 86.568 C 364.947 86.274,364.973 86.099,365.162 85.910 C 365.491 85.581,365.494 84.637,365.167 84.205 C 365.028 84.021,364.912 83.701,364.909 83.494 C 364.906 83.286,364.747 83.007,364.555 82.873 C 364.349 82.728,364.249 82.521,364.309 82.365 C 364.370 82.205,364.262 81.996,364.036 81.838 C 363.830 81.694,363.712 81.494,363.774 81.394 C 363.915 81.166,363.198 80.172,362.892 80.172 C 362.768 80.172,362.667 80.044,362.667 79.887 C 362.667 79.493,361.161 77.591,360.848 77.591 C 360.746 77.591,360.025 77.034,359.183 76.304 C 359.017 76.160,358.724 76.043,358.532 76.043 C 358.340 76.043,358.138 75.927,358.084 75.785 C 358.029 75.641,357.773 75.527,357.508 75.527 C 357.246 75.527,356.935 75.411,356.817 75.269 C 356.467 74.847,350.857 74.890,350.722 75.316 M134.796 75.355 C 134.737 75.449,134.507 75.527,134.284 75.527 C 134.007 75.527,133.583 75.854,132.944 76.559 C 132.430 77.127,131.929 77.591,131.829 77.591 C 130.937 77.591,130.325 94.970,131.177 96.096 C 131.316 96.280,131.432 96.715,131.435 97.063 C 131.438 97.411,131.544 97.799,131.670 97.925 C 131.796 98.051,131.952 98.366,132.017 98.625 C 132.082 98.885,132.212 99.097,132.304 99.097 C 132.397 99.097,132.473 99.250,132.473 99.438 C 132.473 99.951,136.320 103.742,136.840 103.742 C 137.065 103.742,137.350 103.865,137.475 104.015 C 137.635 104.208,137.853 104.255,138.227 104.177 C 138.892 104.037,140.186 103.895,139.957 103.987 C 139.862 104.025,139.565 104.105,139.297 104.164 C 138.892 104.254,138.844 104.315,139.017 104.523 C 139.260 104.817,143.896 104.889,144.343 104.607 C 144.683 104.392,144.410 104.134,143.742 104.039 C 143.325 103.980,143.365 103.961,143.947 103.940 C 144.343 103.926,144.716 103.991,144.774 104.086 C 144.945 104.362,146.062 104.294,146.174 104.000 C 146.229 103.858,146.461 103.742,146.690 103.742 C 146.920 103.742,147.149 103.633,147.201 103.499 C 147.252 103.366,147.468 103.213,147.682 103.159 C 147.895 103.106,148.260 102.886,148.493 102.671 C 148.726 102.456,149.135 102.181,149.402 102.060 C 149.811 101.874,149.875 101.758,149.811 101.321 C 149.769 101.036,149.810 100.756,149.901 100.699 C 150.005 100.635,150.038 100.965,149.987 101.569 C 149.913 102.470,149.931 102.535,150.239 102.437 C 150.519 102.348,150.553 102.392,150.452 102.710 C 150.346 103.042,150.379 103.073,150.719 102.965 C 151.041 102.863,151.086 102.893,150.989 103.147 C 150.848 103.513,151.481 104.258,151.934 104.258 C 152.101 104.258,152.286 104.335,152.344 104.430 C 152.403 104.525,152.983 104.602,153.634 104.602 C 154.286 104.602,154.866 104.525,154.925 104.430 C 154.983 104.335,155.168 104.258,155.335 104.258 C 155.796 104.258,156.310 103.581,156.564 102.636 C 156.771 101.870,156.810 101.825,156.963 102.168 C 157.159 102.607,157.477 102.570,157.568 102.098 C 157.603 101.919,157.758 101.680,157.913 101.567 C 158.339 101.255,158.344 78.534,157.918 78.222 C 157.766 78.111,157.586 77.846,157.519 77.634 C 157.364 77.146,157.175 77.142,156.961 77.622 C 156.810 77.959,156.769 77.911,156.557 77.153 C 156.263 76.103,155.675 75.527,154.900 75.527 C 154.582 75.527,154.323 75.449,154.323 75.355 C 154.323 75.260,154.013 75.183,153.634 75.183 C 153.256 75.183,152.946 75.260,152.946 75.355 C 152.946 75.449,152.651 75.527,152.289 75.527 C 151.563 75.527,150.774 76.203,150.954 76.672 C 151.028 76.865,150.965 76.898,150.685 76.809 C 150.359 76.706,150.331 76.743,150.431 77.142 C 150.498 77.406,150.472 77.591,150.369 77.591 C 150.272 77.591,150.194 77.514,150.194 77.419 C 150.194 77.325,150.135 77.247,150.065 77.247 C 149.994 77.247,149.938 80.789,149.942 85.118 L 149.949 92.989 149.856 85.477 C 149.805 81.345,149.704 77.905,149.632 77.832 C 149.202 77.403,149.142 78.381,149.156 85.620 C 149.164 89.778,149.115 93.236,149.048 93.303 C 148.873 93.478,148.479 94.654,148.476 95.011 C 148.474 95.176,148.396 95.312,148.301 95.312 C 148.206 95.312,148.129 95.416,148.129 95.543 C 148.129 95.842,147.403 96.688,147.147 96.688 C 147.038 96.688,146.845 96.793,146.717 96.921 C 146.589 97.049,146.106 97.223,145.643 97.308 C 144.805 97.462,144.337 97.892,145.008 97.892 C 145.199 97.892,145.404 97.970,145.462 98.065 C 145.521 98.159,145.409 98.237,145.214 98.237 C 145.014 98.237,144.860 98.349,144.860 98.495 C 144.860 98.690,144.649 98.753,143.990 98.753 C 143.453 98.753,143.160 98.687,143.226 98.581 C 143.284 98.486,143.605 98.409,143.938 98.409 C 144.346 98.409,144.522 98.338,144.474 98.194 C 144.384 97.917,143.326 97.810,143.083 98.052 C 142.982 98.154,142.779 98.234,142.632 98.231 C 142.415 98.227,142.424 98.181,142.684 97.984 C 143.084 97.681,142.949 97.450,142.292 97.319 C 141.755 97.211,141.075 96.725,141.075 96.448 C 141.075 96.359,140.940 96.135,140.774 95.953 C 140.498 95.647,140.468 94.936,140.416 87.337 C 140.383 82.630,140.291 78.983,140.201 78.890 C 140.114 78.800,140.043 78.623,140.043 78.496 C 140.043 78.103,138.835 76.559,138.527 76.559 C 138.450 76.559,138.164 76.327,137.892 76.043 C 137.621 75.759,137.262 75.527,137.096 75.527 C 136.930 75.527,136.747 75.449,136.688 75.355 C 136.630 75.260,136.204 75.183,135.742 75.183 C 135.280 75.183,134.854 75.260,134.796 75.355 M185.548 75.355 C 185.490 75.449,185.254 75.527,185.024 75.527 C 184.791 75.527,184.509 75.680,184.390 75.871 C 184.272 76.060,184.052 76.215,183.901 76.215 C 183.491 76.215,183.375 76.410,183.613 76.697 C 183.793 76.914,183.768 76.935,183.454 76.835 C 183.067 76.712,182.746 76.971,183.051 77.160 C 183.277 77.299,183.279 77.935,183.054 77.935 C 182.959 77.935,182.882 77.774,182.882 77.577 C 182.882 77.136,182.478 77.228,182.388 77.690 C 182.353 77.870,182.179 78.120,182.001 78.245 C 181.690 78.462,181.677 78.906,181.677 89.802 C 181.677 101.185,181.696 101.677,182.114 101.677 C 182.239 101.677,182.366 101.846,182.397 102.051 C 182.469 102.544,182.882 102.677,182.882 102.208 C 182.882 102.011,182.959 101.849,183.054 101.849 C 183.148 101.849,183.226 102.043,183.226 102.280 C 183.226 102.516,183.144 102.710,183.044 102.710 C 182.943 102.710,182.911 102.790,182.972 102.889 C 183.033 102.987,183.231 103.021,183.412 102.963 C 183.597 102.905,183.742 102.940,183.742 103.042 C 183.742 103.143,183.650 103.226,183.538 103.226 C 183.425 103.226,183.561 103.464,183.839 103.755 C 184.258 104.193,184.432 104.265,184.860 104.174 C 186.029 103.925,186.839 103.882,186.839 104.069 C 186.839 104.175,186.534 104.258,186.140 104.258 C 185.719 104.258,185.484 104.326,185.548 104.430 C 185.607 104.525,185.960 104.602,186.333 104.602 C 186.706 104.602,187.011 104.525,187.011 104.430 C 187.011 104.335,187.245 104.258,187.532 104.258 C 187.822 104.258,188.095 104.150,188.147 104.016 C 188.198 103.882,188.413 103.730,188.624 103.677 C 188.916 103.603,189.063 103.366,189.239 102.678 C 189.437 101.903,189.490 101.829,189.611 102.156 C 189.792 102.646,190.051 102.643,190.205 102.151 C 190.272 101.938,190.398 101.717,190.487 101.660 C 190.725 101.506,190.702 78.220,190.464 78.140 C 190.363 78.107,190.280 77.979,190.280 77.856 C 190.280 77.361,189.777 77.184,189.595 77.615 C 189.434 77.994,189.425 77.984,189.461 77.473 C 189.501 76.908,188.896 76.043,188.462 76.043 C 188.346 76.043,188.207 75.927,188.153 75.785 C 188.096 75.636,187.838 75.527,187.542 75.527 C 187.261 75.527,186.983 75.449,186.925 75.355 C 186.866 75.260,186.557 75.183,186.237 75.183 C 185.917 75.183,185.607 75.260,185.548 75.355 M217.720 75.355 C 217.662 75.449,217.362 75.527,217.054 75.527 C 216.658 75.527,216.351 75.676,216.005 76.038 L 215.515 76.550 215.929 76.716 C 216.229 76.835,216.260 76.884,216.043 76.892 C 215.877 76.898,215.742 76.981,215.742 77.075 C 215.742 77.534,215.091 77.922,214.976 77.532 C 214.870 77.174,214.859 77.172,214.659 77.489 C 214.545 77.669,214.316 77.937,214.151 78.086 C 213.723 78.470,213.681 96.335,214.108 96.688 C 214.249 96.806,214.366 97.154,214.366 97.462 C 214.366 97.770,214.482 98.119,214.624 98.237 C 214.766 98.354,214.882 98.587,214.882 98.753 C 214.882 98.919,214.998 99.151,215.140 99.269 C 215.282 99.387,215.399 99.570,215.401 99.677 C 215.407 100.078,216.245 100.698,216.498 100.488 C 216.793 100.243,217.058 100.775,216.779 101.053 C 216.577 101.255,217.889 102.710,218.272 102.710 C 218.395 102.710,218.495 102.789,218.495 102.886 C 218.495 102.983,218.669 103.138,218.882 103.230 C 219.095 103.322,219.404 103.475,219.570 103.569 C 221.561 104.710,221.442 104.684,224.602 104.686 C 227.492 104.688,228.989 104.413,228.989 103.881 C 228.989 103.804,229.139 103.742,229.321 103.742 C 229.504 103.742,229.769 103.626,229.911 103.484 C 230.053 103.342,230.248 103.226,230.345 103.226 C 230.441 103.226,230.582 103.129,230.658 103.011 C 230.734 102.892,231.136 102.628,231.552 102.423 L 232.308 102.050 233.423 103.154 C 234.036 103.761,234.678 104.258,234.850 104.258 C 235.022 104.258,235.210 104.335,235.269 104.430 C 235.327 104.525,235.796 104.602,236.311 104.602 C 236.826 104.602,237.247 104.525,237.247 104.430 C 237.247 104.335,237.449 104.258,237.696 104.258 C 238.166 104.258,238.960 103.639,238.965 103.269 C 238.966 103.151,239.050 103.054,239.151 103.054 C 239.261 103.054,239.288 102.905,239.218 102.684 C 239.126 102.395,239.158 102.336,239.365 102.415 C 239.788 102.577,240.408 102.188,240.733 101.557 C 241.194 100.661,241.192 79.132,240.731 78.205 C 240.561 77.863,240.299 77.598,240.129 77.596 C 239.963 77.593,239.828 77.509,239.828 77.408 C 239.828 77.300,239.680 77.271,239.467 77.339 C 239.160 77.436,239.123 77.400,239.220 77.092 C 239.288 76.879,239.260 76.731,239.151 76.731 C 239.050 76.731,238.966 76.634,238.965 76.516 C 238.960 76.146,238.166 75.527,237.696 75.527 C 237.449 75.527,237.247 75.449,237.247 75.355 C 237.247 75.260,236.826 75.183,236.311 75.183 C 235.796 75.183,235.327 75.260,235.269 75.355 C 235.210 75.449,235.031 75.527,234.871 75.527 C 234.399 75.527,233.609 76.462,233.859 76.725 C 234.022 76.897,233.988 76.919,233.692 76.830 C 233.264 76.701,232.086 77.768,232.086 78.285 C 232.086 78.448,231.973 78.675,231.835 78.790 C 231.622 78.967,231.575 80.205,231.533 86.768 C 231.488 93.842,231.457 94.576,231.183 94.963 C 231.017 95.197,230.882 95.491,230.882 95.616 C 230.882 95.831,230.571 96.165,229.658 96.930 C 229.443 97.110,228.964 97.285,228.595 97.318 C 227.717 97.397,227.215 97.652,227.656 97.795 C 228.514 98.073,228.577 98.122,228.172 98.193 C 227.959 98.230,227.785 98.371,227.785 98.507 C 227.785 98.687,227.556 98.753,226.925 98.753 C 226.452 98.753,226.065 98.675,226.065 98.581 C 226.065 98.486,226.215 98.409,226.398 98.409 C 226.582 98.409,226.781 98.331,226.839 98.235 C 227.006 97.966,226.400 97.815,226.044 98.037 C 225.586 98.323,225.220 98.279,225.609 97.984 C 225.956 97.721,225.857 97.376,225.435 97.376 C 224.992 97.376,224.000 96.836,224.000 96.594 C 224.000 96.469,223.855 96.321,223.677 96.265 C 223.368 96.167,223.353 95.813,223.324 87.866 C 223.305 82.934,223.227 79.504,223.130 79.406 C 223.041 79.317,222.968 78.997,222.968 78.696 C 222.968 78.172,222.557 77.600,222.338 77.820 C 222.090 78.068,222.293 92.977,222.548 93.259 C 222.809 93.548,222.844 94.532,222.624 95.398 C 222.522 95.797,222.488 95.650,222.472 94.753 C 222.456 93.844,222.395 93.591,222.194 93.591 C 221.968 93.591,221.935 92.607,221.935 85.763 C 221.935 78.920,221.903 77.935,221.677 77.935 C 221.388 77.935,221.323 77.327,221.594 77.160 C 221.898 76.972,221.579 76.712,221.190 76.830 C 220.886 76.921,220.857 76.900,221.032 76.717 C 221.371 76.360,220.482 75.527,219.763 75.527 C 219.455 75.527,219.155 75.449,219.097 75.355 C 219.038 75.260,218.729 75.183,218.409 75.183 C 218.089 75.183,217.779 75.260,217.720 75.355 M309.935 75.356 C 309.816 75.548,310.023 75.645,310.796 75.762 C 311.080 75.805,310.963 75.815,310.538 75.785 C 310.112 75.754,309.546 75.674,309.280 75.606 C 308.666 75.450,307.656 76.283,307.983 76.676 C 308.135 76.860,308.090 76.898,307.765 76.862 C 307.419 76.824,307.363 76.885,307.406 77.247 C 307.442 77.559,307.412 77.612,307.296 77.440 C 307.207 77.310,307.045 77.259,306.936 77.327 C 306.785 77.420,306.787 77.511,306.943 77.700 C 307.101 77.889,307.103 77.998,306.952 78.149 C 306.801 78.300,306.753 78.277,306.753 78.056 C 306.753 77.713,306.562 77.679,306.271 77.970 C 305.934 78.307,305.978 96.680,306.317 97.128 C 306.456 97.312,306.572 97.671,306.575 97.927 C 306.578 98.182,306.690 98.453,306.825 98.529 C 306.959 98.605,307.273 99.073,307.522 99.570 C 308.003 100.529,308.298 100.723,308.306 100.086 C 308.311 99.727,308.325 99.722,308.496 100.017 C 308.619 100.229,308.624 100.392,308.509 100.506 C 308.311 100.704,308.788 101.675,309.082 101.676 C 309.181 101.677,309.604 102.026,310.022 102.452 C 310.439 102.877,310.884 103.226,311.009 103.226 C 311.134 103.226,311.281 103.342,311.336 103.484 C 311.390 103.626,311.622 103.742,311.852 103.742 C 312.081 103.742,312.313 103.858,312.368 104.000 C 312.422 104.142,312.580 104.258,312.717 104.258 C 312.855 104.258,313.350 104.383,313.816 104.536 C 314.868 104.880,319.495 104.826,319.614 104.469 C 319.653 104.353,319.904 104.258,320.172 104.258 C 320.842 104.258,322.342 103.476,323.071 102.746 C 323.987 101.831,324.485 101.922,325.636 103.215 C 326.277 103.934,326.691 104.258,326.971 104.258 C 327.195 104.258,327.425 104.335,327.484 104.430 C 327.542 104.525,328.007 104.602,328.516 104.602 C 329.025 104.602,329.490 104.525,329.548 104.430 C 329.607 104.335,329.808 104.258,329.995 104.258 C 330.500 104.258,332.731 101.964,332.731 101.444 C 332.731 101.214,332.847 100.981,332.989 100.927 C 333.215 100.840,333.247 99.466,333.247 89.996 C 333.247 80.597,333.213 79.130,332.989 78.906 C 332.847 78.764,332.731 78.480,332.731 78.274 C 332.731 77.787,330.490 75.527,330.006 75.527 C 329.813 75.527,329.607 75.449,329.548 75.355 C 329.375 75.075,328.086 75.140,328.086 75.429 C 328.086 75.565,328.260 75.709,328.473 75.750 C 328.686 75.791,328.628 75.800,328.344 75.770 C 328.060 75.740,327.571 75.663,327.258 75.600 C 326.715 75.490,326.617 75.557,325.236 76.986 L 323.785 78.487 323.753 86.168 C 323.735 90.393,323.714 94.043,323.707 94.280 C 323.687 94.935,321.603 97.545,321.323 97.266 C 321.188 97.131,319.937 97.479,319.874 97.668 C 319.835 97.785,320.174 97.930,320.722 98.029 L 321.634 98.196 320.838 98.216 C 320.362 98.228,319.956 98.340,319.828 98.495 C 319.495 98.896,318.073 98.840,317.808 98.416 C 317.634 98.137,317.646 98.051,317.876 97.922 C 318.251 97.712,318.017 97.376,317.496 97.376 C 316.945 97.376,315.699 96.252,315.699 95.755 C 315.699 95.547,315.585 95.227,315.446 95.044 C 315.233 94.761,315.193 93.460,315.188 86.613 L 315.183 78.516 314.686 78.040 C 314.385 77.752,314.144 77.634,314.077 77.743 C 314.006 77.858,313.857 77.816,313.665 77.628 C 313.378 77.348,313.381 77.327,313.714 77.192 C 314.044 77.060,314.029 77.021,313.462 76.541 C 313.131 76.260,312.738 75.917,312.588 75.779 C 312.438 75.640,312.113 75.527,311.867 75.527 C 311.620 75.527,311.370 75.449,311.312 75.355 C 311.173 75.131,310.073 75.132,309.935 75.356 M83.572 75.817 C 83.407 75.860,83.098 75.862,82.884 75.821 C 82.670 75.779,82.804 75.744,83.183 75.742 C 83.561 75.740,83.736 75.774,83.572 75.817 M86.495 75.822 C 86.234 75.862,85.809 75.862,85.548 75.822 C 85.288 75.783,85.501 75.750,86.022 75.750 C 86.542 75.750,86.755 75.783,86.495 75.822 M89.249 75.817 C 89.085 75.860,88.775 75.862,88.561 75.821 C 88.347 75.779,88.482 75.744,88.860 75.742 C 89.239 75.740,89.414 75.774,89.249 75.817 M111.960 75.822 C 111.702 75.861,111.237 75.862,110.928 75.824 C 110.619 75.785,110.830 75.753,111.398 75.752 C 111.966 75.751,112.219 75.783,111.960 75.822 M115.398 75.824 C 115.043 75.861,114.462 75.861,114.108 75.824 C 113.753 75.787,114.043 75.757,114.753 75.757 C 115.462 75.757,115.753 75.787,115.398 75.824 M118.325 75.817 C 118.160 75.860,117.850 75.862,117.636 75.821 C 117.422 75.779,117.557 75.744,117.935 75.742 C 118.314 75.740,118.489 75.774,118.325 75.817 M135.957 75.820 C 135.744 75.861,135.396 75.861,135.183 75.820 C 134.970 75.779,135.144 75.746,135.570 75.746 C 135.996 75.746,136.170 75.779,135.957 75.820 M154.022 75.820 C 153.809 75.861,153.460 75.861,153.247 75.820 C 153.034 75.779,153.209 75.746,153.634 75.746 C 154.060 75.746,154.234 75.779,154.022 75.820 M164.258 75.822 C 163.998 75.862,163.572 75.862,163.312 75.822 C 163.052 75.783,163.265 75.750,163.785 75.750 C 164.305 75.750,164.518 75.783,164.258 75.822 M175.871 75.825 C 175.469 75.861,174.811 75.861,174.409 75.825 C 174.006 75.789,174.335 75.759,175.140 75.759 C 175.944 75.759,176.273 75.789,175.871 75.825 M186.626 75.817 C 186.461 75.860,186.151 75.862,185.937 75.821 C 185.723 75.779,185.858 75.744,186.237 75.742 C 186.615 75.740,186.790 75.774,186.626 75.817 M196.516 75.820 C 196.303 75.861,195.955 75.861,195.742 75.820 C 195.529 75.779,195.703 75.746,196.129 75.746 C 196.555 75.746,196.729 75.779,196.516 75.820 M208.559 75.825 C 208.157 75.861,207.499 75.861,207.097 75.825 C 206.695 75.789,207.024 75.759,207.828 75.759 C 208.632 75.759,208.961 75.789,208.559 75.825 M218.798 75.817 C 218.633 75.860,218.324 75.862,218.110 75.821 C 217.896 75.779,218.030 75.744,218.409 75.742 C 218.787 75.740,218.962 75.774,218.798 75.817 M236.946 75.820 C 236.733 75.861,236.385 75.861,236.172 75.820 C 235.959 75.779,236.133 75.746,236.559 75.746 C 236.985 75.746,237.159 75.779,236.946 75.820 M288.648 75.822 C 288.390 75.861,287.925 75.862,287.616 75.824 C 287.307 75.785,287.518 75.753,288.086 75.752 C 288.654 75.751,288.907 75.783,288.648 75.822 M342.366 75.828 C 342.366 75.899,341.978 75.957,341.505 75.957 C 341.032 75.957,340.645 75.899,340.645 75.828 C 340.645 75.757,341.032 75.699,341.505 75.699 C 341.978 75.699,342.366 75.757,342.366 75.828 M354.024 75.817 C 353.859 75.860,353.549 75.862,353.335 75.821 C 353.121 75.779,353.256 75.744,353.634 75.742 C 354.013 75.740,354.188 75.774,354.024 75.817 M178.647 77.696 C 178.574 77.984,178.614 78.194,178.757 78.282 C 179.293 78.613,179.695 77.915,179.234 77.454 C 178.921 77.141,178.770 77.203,178.647 77.696 M221.789 77.411 C 221.827 77.524,221.914 77.611,221.983 77.604 C 222.189 77.583,222.149 77.347,221.927 77.273 C 221.813 77.235,221.751 77.297,221.789 77.411 M192.983 79.269 C 192.944 79.529,192.912 79.316,192.912 78.796 C 192.912 78.275,192.944 78.062,192.983 78.323 C 193.023 78.583,193.023 79.009,192.983 79.269 M182.667 95.686 C 182.640 98.934,182.619 96.327,182.619 89.892 C 182.619 83.458,182.640 80.801,182.667 83.987 C 182.693 87.174,182.693 92.439,182.667 95.686 M65.763 78.882 C 65.717 79.118,65.651 79.312,65.614 79.312 C 65.578 79.312,65.548 79.118,65.548 78.882 C 65.548 78.645,65.615 78.452,65.697 78.452 C 65.778 78.452,65.808 78.645,65.763 78.882 M131.957 78.710 C 131.957 78.852,131.880 78.968,131.785 78.968 C 131.690 78.968,131.613 78.852,131.613 78.710 C 131.613 78.568,131.690 78.452,131.785 78.452 C 131.880 78.452,131.957 78.568,131.957 78.710 M157.376 95.600 C 157.350 98.801,157.329 96.232,157.329 89.892 C 157.329 83.553,157.350 80.934,157.376 84.073 C 157.402 87.213,157.403 92.400,157.376 95.600 M240.291 79.269 C 240.247 79.434,240.212 79.299,240.212 78.968 C 240.212 78.637,240.247 78.501,240.291 78.667 C 240.334 78.832,240.334 79.103,240.291 79.269 M324.602 90.710 C 324.575 92.910,324.552 91.110,324.552 86.710 C 324.552 82.310,324.575 80.510,324.602 82.710 C 324.629 84.910,324.629 88.510,324.602 90.710 M336.778 79.699 C 336.626 80.971,336.746 110.567,336.903 110.724 C 336.974 110.795,337.090 110.795,337.161 110.724 C 337.316 110.569,337.438 80.574,337.288 79.527 C 337.145 78.528,336.907 78.608,336.778 79.699 M139.835 86.581 C 139.815 90.768,139.777 93.458,139.750 92.559 C 139.631 88.548,139.625 78.968,139.742 78.968 C 139.813 78.968,139.855 82.394,139.835 86.581 M232.430 87.054 C 232.430 91.501,232.364 95.140,232.283 95.140 C 232.202 95.140,232.119 91.501,232.100 87.054 C 232.075 81.426,232.119 78.968,232.247 78.968 C 232.374 78.968,232.430 81.449,232.430 87.054 M332.602 86.064 C 332.578 89.968,332.538 94.942,332.512 97.118 C 332.487 99.295,332.449 96.101,332.427 90.022 C 332.405 83.942,332.445 78.968,332.516 78.968 C 332.587 78.968,332.626 82.161,332.602 86.064 M160.291 79.957 C 160.247 80.123,160.212 79.987,160.212 79.656 C 160.212 79.325,160.247 79.189,160.291 79.355 C 160.334 79.520,160.334 79.791,160.291 79.957 M190.064 95.281 C 190.038 98.184,190.016 95.759,190.016 89.892 C 190.016 84.026,190.038 81.651,190.064 84.615 C 190.091 87.578,190.091 92.378,190.064 95.281 M65.376 79.828 C 65.376 80.017,65.299 80.172,65.204 80.172 C 65.110 80.172,65.032 80.017,65.032 79.828 C 65.032 79.639,65.110 79.484,65.204 79.484 C 65.299 79.484,65.376 79.639,65.376 79.828 M103.680 80.606 C 103.525 80.719,103.398 81.016,103.398 81.266 C 103.398 81.516,103.320 81.720,103.226 81.720 C 102.881 81.720,103.046 80.664,103.441 80.342 C 103.680 80.147,103.853 80.097,103.895 80.213 C 103.931 80.316,103.835 80.493,103.680 80.606 M86.882 81.290 C 86.882 81.483,87.110 81.556,87.785 81.577 C 88.505 81.600,88.560 81.620,88.056 81.673 C 87.708 81.710,87.336 81.846,87.228 81.976 C 86.946 82.316,87.628 82.644,88.368 82.524 C 88.803 82.453,88.946 82.492,88.946 82.682 C 88.946 82.820,89.120 83.000,89.333 83.081 C 89.826 83.270,90.250 83.741,90.675 84.575 C 91.363 85.924,91.642 85.849,85.909 85.849 C 81.067 85.849,80.820 85.834,81.063 85.548 C 81.204 85.383,81.483 84.924,81.682 84.529 C 82.158 83.588,82.590 83.097,82.942 83.097 C 83.099 83.097,83.323 82.981,83.441 82.839 C 83.559 82.697,83.873 82.581,84.139 82.581 C 85.346 82.581,85.863 82.057,84.946 81.763 C 84.532 81.630,84.482 81.579,84.753 81.566 C 84.954 81.556,85.216 81.432,85.333 81.290 C 85.456 81.142,85.832 81.032,86.215 81.032 C 86.693 81.032,86.882 81.105,86.882 81.290 M210.151 81.204 C 209.681 81.406,209.548 81.406,209.548 81.204 C 209.548 81.110,209.761 81.038,210.022 81.044 C 210.441 81.055,210.455 81.073,210.151 81.204 M288.860 81.290 C 288.860 81.456,289.026 81.548,289.323 81.548 C 289.761 81.548,289.768 81.561,289.459 81.788 C 289.017 82.111,289.388 82.581,290.086 82.581 C 290.358 82.581,290.581 82.653,290.581 82.741 C 290.581 82.829,290.755 82.954,290.968 83.019 C 291.181 83.083,291.563 83.360,291.818 83.633 C 292.073 83.906,292.389 84.129,292.520 84.129 C 292.683 84.129,292.735 84.281,292.687 84.612 C 292.642 84.914,292.718 85.179,292.889 85.321 C 293.039 85.446,293.161 85.800,293.161 86.108 C 293.161 86.893,293.624 87.263,293.771 86.596 C 293.957 85.757,294.022 85.731,293.912 86.538 C 293.855 86.963,293.807 88.473,293.807 89.892 C 293.807 91.312,293.855 92.822,293.912 93.247 C 294.022 94.054,293.957 94.028,293.771 93.189 C 293.613 92.473,293.161 92.914,293.161 93.785 C 293.161 94.358,293.216 94.454,293.548 94.465 C 293.761 94.473,293.839 94.518,293.720 94.566 C 293.602 94.613,293.496 94.897,293.485 95.197 L 293.465 95.742 293.354 95.226 C 293.224 94.617,292.756 94.532,292.676 95.102 C 292.624 95.467,290.847 97.413,290.700 97.266 C 290.559 97.126,288.799 97.473,288.739 97.653 C 288.703 97.762,289.061 97.916,289.585 98.017 C 290.285 98.151,290.370 98.197,289.954 98.214 C 289.649 98.227,289.370 98.349,289.314 98.495 C 289.243 98.681,288.950 98.753,288.258 98.753 C 287.566 98.753,287.274 98.681,287.202 98.495 C 287.148 98.353,286.986 98.237,286.842 98.237 C 286.633 98.237,286.623 98.187,286.789 97.986 C 287.088 97.626,286.890 97.423,286.117 97.292 C 285.744 97.229,285.348 97.067,285.236 96.933 C 285.124 96.798,284.965 96.688,284.882 96.688 C 284.686 96.688,284.043 96.045,284.043 95.849 C 284.043 95.766,283.927 95.602,283.785 95.484 C 283.643 95.366,283.527 95.134,283.527 94.968 C 283.527 94.802,283.421 94.578,283.292 94.471 C 283.159 94.360,283.018 93.788,282.967 93.144 C 282.917 92.521,282.790 91.926,282.685 91.821 C 282.420 91.555,282.431 88.218,282.699 87.951 C 282.811 87.838,282.908 87.280,282.914 86.711 C 282.923 85.882,282.985 85.656,283.226 85.579 C 283.418 85.517,283.527 85.308,283.527 84.999 C 283.527 84.733,283.643 84.419,283.785 84.301 C 283.927 84.183,284.043 84.019,284.043 83.936 C 284.043 83.667,284.669 83.150,285.136 83.032 C 285.387 82.970,285.591 82.842,285.591 82.749 C 285.591 82.657,285.814 82.581,286.086 82.581 C 286.784 82.581,287.155 82.111,286.713 81.788 C 286.404 81.562,286.412 81.548,286.854 81.548 C 287.112 81.548,287.367 81.432,287.422 81.290 C 287.486 81.122,287.754 81.032,288.190 81.032 C 288.671 81.032,288.860 81.105,288.860 81.290 M352.172 81.170 C 352.172 81.246,351.901 81.308,351.570 81.308 C 351.239 81.308,350.968 81.246,350.968 81.170 C 350.968 81.094,351.239 81.032,351.570 81.032 C 351.901 81.032,352.172 81.094,352.172 81.170 M85.544 81.578 C 85.632 81.842,86.363 81.892,86.371 81.634 C 86.374 81.540,86.172 81.437,85.922 81.406 C 85.605 81.367,85.491 81.419,85.544 81.578 M287.699 81.591 C 287.738 81.710,287.913 81.806,288.086 81.806 C 288.259 81.806,288.434 81.710,288.473 81.591 C 288.519 81.455,288.377 81.376,288.086 81.376 C 287.795 81.376,287.654 81.455,287.699 81.591 M125.796 82.151 C 125.757 82.482,125.696 82.753,125.659 82.753 C 125.622 82.753,125.591 82.482,125.591 82.151 C 125.591 81.819,125.653 81.548,125.729 81.548 C 125.805 81.548,125.835 81.819,125.796 82.151 M164.043 81.720 C 163.915 81.927,162.975 81.927,162.495 81.720 C 162.248 81.614,162.432 81.569,163.150 81.560 C 163.775 81.553,164.110 81.613,164.043 81.720 M172.946 86.495 C 172.922 89.215,172.881 92.641,172.855 94.108 C 172.829 95.574,172.791 93.348,172.769 89.161 C 172.748 84.974,172.789 81.548,172.860 81.548 C 172.931 81.548,172.970 83.774,172.946 86.495 M176.602 81.720 C 175.829 81.917,173.799 81.917,173.677 81.720 C 173.609 81.610,174.201 81.556,175.345 81.569 C 176.532 81.582,176.948 81.633,176.602 81.720 M196.731 81.634 C 196.287 81.784,194.925 81.833,194.925 81.699 C 194.925 81.616,195.370 81.554,195.914 81.562 C 196.458 81.569,196.826 81.602,196.731 81.634 M350.869 81.700 C 351.045 81.984,351.634 82.027,352.095 81.787 C 352.348 81.656,352.837 81.557,353.181 81.568 C 353.552 81.580,353.666 81.623,353.462 81.673 C 352.591 81.887,352.591 82.581,353.462 82.581 C 353.676 82.581,353.947 82.697,354.065 82.839 C 354.182 82.981,354.347 83.097,354.430 83.097 C 354.667 83.097,355.269 83.760,355.269 84.022 C 355.269 84.152,355.385 84.355,355.527 84.473 C 355.669 84.591,355.785 84.929,355.786 85.225 C 355.787 85.521,355.903 85.985,356.044 86.256 C 356.245 86.641,356.301 87.439,356.301 89.892 C 356.301 92.346,356.245 93.144,356.044 93.529 C 355.903 93.800,355.787 94.304,355.786 94.648 C 355.785 95.058,355.692 95.311,355.515 95.379 C 355.336 95.447,355.282 95.598,355.355 95.827 C 355.433 96.074,355.386 96.172,355.189 96.172 C 355.038 96.172,354.869 96.288,354.815 96.430 C 354.760 96.572,354.608 96.688,354.476 96.688 C 354.344 96.688,354.098 96.827,353.929 96.996 C 353.517 97.407,349.772 97.432,349.052 97.028 C 348.271 96.590,347.183 95.499,347.183 95.155 C 347.183 94.973,347.092 94.794,346.981 94.757 C 346.869 94.720,346.763 94.320,346.744 93.869 C 346.725 93.418,346.629 92.969,346.532 92.872 C 346.264 92.603,345.933 93.350,346.013 94.041 C 346.051 94.362,346.020 94.624,345.944 94.624 C 345.868 94.624,345.806 94.275,345.806 93.849 C 345.806 93.276,345.740 93.075,345.548 93.075 C 345.328 93.075,345.290 92.600,345.290 89.828 C 345.290 87.151,345.336 86.542,345.548 86.366 C 345.702 86.238,345.815 85.830,345.828 85.355 L 345.849 84.559 345.983 85.474 C 346.193 86.919,346.690 86.893,346.731 85.434 C 346.743 85.001,346.812 84.647,346.885 84.646 C 346.958 84.646,347.113 84.433,347.229 84.174 C 347.464 83.652,347.961 83.097,348.194 83.097 C 348.277 83.097,348.433 82.990,348.541 82.860 C 348.649 82.730,349.128 82.586,349.605 82.540 C 350.779 82.428,351.033 82.150,350.267 81.818 L 349.677 81.562 350.226 81.555 C 350.528 81.551,350.817 81.616,350.869 81.700 M205.548 96.657 C 205.522 99.276,205.500 97.084,205.500 91.785 C 205.500 86.486,205.522 84.343,205.548 87.023 C 205.575 89.703,205.575 94.038,205.548 96.657 M164.946 93.623 C 164.919 95.735,164.896 94.056,164.896 89.892 C 164.896 85.729,164.919 84.001,164.946 86.053 C 164.973 88.104,164.973 91.511,164.946 93.623 M198.022 90.899 C 198.022 95.475,198.056 99.714,198.099 100.319 C 198.141 100.924,198.135 101.245,198.087 101.032 C 198.038 100.819,197.848 100.564,197.665 100.467 C 197.134 100.183,197.146 82.581,197.677 82.581 C 198.017 82.581,198.022 82.695,198.022 90.899 M108.215 83.269 C 108.215 83.484,108.032 83.484,107.699 83.269 C 107.490 83.134,107.515 83.102,107.828 83.099 C 108.041 83.098,108.215 83.174,108.215 83.269 M126.322 89.849 C 126.298 93.563,126.257 97.725,126.231 99.097 C 126.205 100.469,126.166 97.430,126.146 92.344 C 126.125 87.258,126.166 83.097,126.237 83.097 C 126.308 83.097,126.346 86.135,126.322 89.849 M107.011 83.764 C 107.011 83.902,105.471 83.822,105.305 83.676 C 105.265 83.641,105.633 83.613,106.122 83.613 C 106.611 83.613,107.011 83.681,107.011 83.764 M274.925 84.215 C 274.925 84.546,274.894 84.817,274.858 84.817 C 274.821 84.817,274.759 84.546,274.720 84.215 C 274.681 83.884,274.712 83.613,274.787 83.613 C 274.863 83.613,274.925 83.884,274.925 84.215 M301.968 85.247 C 301.929 85.578,301.868 85.849,301.831 85.849 C 301.794 85.849,301.763 85.578,301.763 85.247 C 301.763 84.916,301.825 84.645,301.901 84.645 C 301.977 84.645,302.007 84.916,301.968 85.247 M356.741 86.327 C 356.561 86.507,356.534 86.281,356.631 85.419 L 356.728 84.559 356.783 85.395 C 356.813 85.854,356.794 86.274,356.741 86.327 M274.409 85.677 C 274.409 86.056,274.348 86.366,274.275 86.366 C 274.202 86.366,274.171 86.056,274.207 85.677 C 274.243 85.299,274.303 84.989,274.341 84.989 C 274.378 84.989,274.409 85.299,274.409 85.677 M91.993 86.063 C 91.951 86.277,91.916 86.142,91.914 85.763 C 91.912 85.385,91.946 85.210,91.989 85.374 C 92.032 85.539,92.034 85.849,91.993 86.063 M80.205 86.280 C 80.243 86.611,80.213 86.882,80.137 86.882 C 80.062 86.882,80.000 86.611,80.000 86.280 C 80.000 85.948,80.030 85.677,80.067 85.677 C 80.104 85.677,80.166 85.948,80.205 86.280 M302.538 87.828 C 302.538 88.727,302.480 89.462,302.409 89.462 C 302.338 89.462,302.280 88.727,302.280 87.828 C 302.280 86.929,302.338 86.194,302.409 86.194 C 302.480 86.194,302.538 86.929,302.538 87.828 M51.871 86.538 C 51.929 86.632,52.573 86.719,53.300 86.729 C 54.987 86.755,53.940 87.028,52.096 87.044 C 51.054 87.053,50.523 87.235,50.886 87.460 C 50.962 87.507,52.101 87.589,53.418 87.642 C 55.304 87.717,55.843 87.793,55.958 87.998 C 56.038 88.141,56.283 88.258,56.504 88.258 C 56.724 88.258,57.000 88.374,57.118 88.516 C 57.236 88.658,57.420 88.775,57.526 88.775 C 58.090 88.778,58.382 89.867,58.434 92.162 L 58.485 94.432 57.929 95.001 C 57.034 95.917,56.462 96.203,55.345 96.292 C 54.773 96.338,54.145 96.468,53.948 96.580 C 53.693 96.726,52.520 96.767,49.847 96.724 L 46.102 96.664 46.148 91.902 L 46.194 87.140 48.486 87.092 C 51.625 87.026,51.580 86.663,48.416 86.530 L 46.194 86.436 48.979 86.401 C 50.690 86.379,51.806 86.432,51.871 86.538 M112.171 86.753 C 112.172 86.824,111.553 86.882,110.796 86.882 C 110.039 86.882,109.419 86.823,109.419 86.752 C 109.419 86.680,110.038 86.622,110.795 86.623 C 111.551 86.623,112.171 86.682,112.171 86.753 M273.017 87.009 C 272.762 87.679,272.881 92.822,273.158 93.099 C 273.551 93.490,273.634 93.060,273.690 90.360 C 273.763 86.838,273.527 85.666,273.017 87.009 M282.477 87.613 C 282.487 87.778,282.376 87.914,282.231 87.914 C 282.086 87.914,281.897 88.088,281.812 88.301 C 281.660 88.679,281.656 88.677,281.645 88.233 C 281.639 87.980,281.749 87.735,281.892 87.680 C 282.044 87.622,282.158 87.347,282.168 87.016 C 282.186 86.410,282.436 86.892,282.477 87.613 M345.567 86.810 C 345.332 87.421,345.453 92.338,345.708 92.549 C 346.145 92.911,346.275 92.253,346.284 89.637 C 346.293 86.951,345.982 85.727,345.567 86.810 M88.903 86.838 C 87.413 86.867,84.974 86.867,83.484 86.838 C 81.994 86.810,83.213 86.786,86.194 86.786 C 89.174 86.786,90.394 86.810,88.903 86.838 M357.290 91.475 C 357.259 92.402,357.233 91.690,357.233 89.892 C 357.233 88.095,357.258 87.336,357.289 88.206 C 357.321 89.076,357.321 90.547,357.290 91.475 M45.548 94.226 C 45.519 95.628,45.495 94.529,45.495 91.785 C 45.495 89.041,45.519 87.894,45.548 89.237 C 45.577 90.579,45.577 92.825,45.548 94.226 M108.774 87.347 C 108.561 87.388,108.213 87.388,108.000 87.347 C 107.787 87.306,107.961 87.273,108.387 87.273 C 108.813 87.273,108.987 87.306,108.774 87.347 M107.527 87.742 C 107.527 87.837,107.314 87.909,107.054 87.902 C 106.635 87.891,106.620 87.873,106.925 87.742 C 107.395 87.540,107.527 87.540,107.527 87.742 M106.495 88.258 C 106.495 88.353,106.320 88.429,106.108 88.427 C 105.795 88.425,105.770 88.393,105.978 88.258 C 106.312 88.043,106.495 88.043,106.495 88.258 M67.827 89.935 C 67.721 91.042,67.654 91.132,67.633 90.194 C 67.622 89.697,67.675 89.290,67.750 89.290 C 67.826 89.290,67.860 89.581,67.827 89.935 M59.355 92.301 C 59.355 93.578,59.297 94.623,59.226 94.622 C 59.109 94.621,59.070 92.576,59.151 90.710 C 59.222 89.085,59.355 90.126,59.355 92.301 M118.072 92.774 C 118.113 93.744,118.199 94.770,118.265 95.054 C 118.379 95.548,118.375 95.553,118.153 95.181 C 117.898 94.752,117.505 94.944,117.505 95.497 C 117.505 95.656,117.389 95.882,117.247 96.000 C 117.105 96.118,116.989 96.312,116.989 96.431 C 116.989 96.550,116.854 96.694,116.688 96.751 C 116.523 96.807,116.000 97.072,115.527 97.339 C 114.735 97.786,114.531 97.823,112.946 97.809 L 111.226 97.794 110.565 97.163 C 109.236 95.894,109.940 92.903,111.567 92.903 C 111.792 92.903,112.079 92.800,112.205 92.673 C 112.346 92.532,113.094 92.397,114.145 92.323 C 115.085 92.257,115.885 92.172,115.923 92.135 C 116.137 91.921,115.659 91.697,114.958 91.682 L 114.151 91.664 114.836 91.504 C 115.213 91.416,115.596 91.269,115.687 91.177 C 115.779 91.086,116.337 91.011,116.927 91.011 L 117.999 91.011 118.072 92.774 M118.835 92.684 C 118.798 93.041,118.767 92.791,118.766 92.129 C 118.765 91.467,118.796 91.175,118.834 91.480 C 118.872 91.785,118.872 92.327,118.835 92.684 M282.185 91.882 C 282.471 92.111,282.496 92.238,282.351 92.742 L 282.182 93.333 282.166 92.769 C 282.157 92.437,282.044 92.163,281.892 92.105 C 281.747 92.050,281.640 91.807,281.648 91.551 C 281.656 91.290,281.701 91.207,281.755 91.355 C 281.806 91.497,281.999 91.734,282.185 91.882 M68.473 92.731 C 68.473 93.717,68.412 94.108,68.258 94.108 C 68.099 94.108,68.058 93.748,68.099 92.732 C 68.172 90.942,68.473 90.942,68.473 92.731 M80.122 93.288 C 80.081 93.502,80.045 93.368,80.043 92.989 C 80.041 92.611,80.075 92.436,80.118 92.600 C 80.161 92.765,80.163 93.074,80.122 93.288 M72.300 93.161 C 72.345 93.398,72.316 93.591,72.234 93.591 C 72.153 93.591,72.086 93.398,72.086 93.161 C 72.086 92.925,72.116 92.731,72.152 92.731 C 72.188 92.731,72.255 92.925,72.300 93.161 M364.916 94.305 C 364.650 94.553,364.559 94.575,364.559 94.393 C 364.559 94.259,364.675 94.053,364.817 93.935 C 364.959 93.818,365.088 93.518,365.103 93.269 C 365.125 92.909,365.145 92.935,365.201 93.395 C 365.253 93.820,365.178 94.061,364.916 94.305 M149.531 94.291 C 149.459 95.328,149.416 95.320,149.259 94.237 C 149.169 93.617,149.195 93.419,149.366 93.419 C 149.530 93.419,149.575 93.656,149.531 94.291 M274.358 94.495 C 274.317 94.708,274.283 94.533,274.283 94.108 C 274.283 93.682,274.317 93.508,274.358 93.720 C 274.399 93.933,274.399 94.282,274.358 94.495 M356.817 94.308 C 356.817 95.375,356.732 95.348,356.587 94.237 C 356.522 93.744,356.547 93.419,356.648 93.419 C 356.741 93.419,356.817 93.819,356.817 94.308 M301.969 94.548 C 302.009 94.885,301.978 95.199,301.902 95.246 C 301.826 95.294,301.763 95.018,301.763 94.634 C 301.763 93.772,301.873 93.726,301.969 94.548 M109.269 95.389 C 109.273 96.024,109.232 96.589,109.176 96.644 C 109.121 96.700,109.075 96.139,109.075 95.398 C 109.075 94.657,109.117 94.092,109.167 94.142 C 109.218 94.193,109.264 94.754,109.269 95.389 M67.803 95.265 C 67.829 95.759,67.797 96.217,67.732 96.283 C 67.666 96.348,67.613 95.911,67.613 95.312 C 67.613 94.018,67.735 93.988,67.803 95.265 M131.883 96.131 C 131.698 96.317,131.654 96.085,131.760 95.484 L 131.866 94.882 131.924 95.457 C 131.955 95.774,131.937 96.077,131.883 96.131 M274.925 95.656 C 274.925 95.940,274.861 96.172,274.782 96.172 C 274.704 96.172,274.674 95.940,274.716 95.656 C 274.758 95.372,274.822 95.140,274.858 95.140 C 274.895 95.140,274.925 95.372,274.925 95.656 M96.045 95.605 C 95.834 95.646,95.447 95.647,95.185 95.607 C 94.924 95.568,95.097 95.534,95.570 95.533 C 96.043 95.532,96.257 95.564,96.045 95.605 M356.230 96.128 C 356.045 96.313,355.947 96.054,356.077 95.724 C 356.199 95.414,356.208 95.413,356.268 95.712 C 356.303 95.885,356.286 96.072,356.230 96.128 M363.927 97.291 C 363.755 97.417,363.575 97.482,363.529 97.435 C 363.482 97.389,363.579 97.275,363.743 97.183 C 363.908 97.091,364.055 96.806,364.069 96.551 L 364.095 96.086 364.168 96.574 C 364.218 96.909,364.142 97.134,363.927 97.291 M55.656 97.022 C 56.335 97.163,56.331 97.165,55.349 97.185 C 54.637 97.199,54.327 97.278,54.256 97.462 C 54.171 97.683,53.580 97.715,50.175 97.681 L 46.194 97.641 50.038 97.592 C 53.704 97.544,53.888 97.526,53.973 97.201 C 54.071 96.825,54.489 96.781,55.656 97.022 M92.043 97.137 C 92.043 97.174,91.772 97.204,91.441 97.204 C 91.110 97.204,90.839 97.142,90.839 97.067 C 90.839 96.991,91.110 96.961,91.441 97.000 C 91.772 97.038,92.043 97.100,92.043 97.137 M97.842 97.933 C 97.801 98.147,97.766 98.013,97.764 97.634 C 97.762 97.256,97.796 97.081,97.839 97.245 C 97.882 97.410,97.883 97.719,97.842 97.933 M89.892 97.539 C 90.550 97.675,90.533 97.682,89.505 97.701 C 88.673 97.716,88.430 97.779,88.430 97.978 C 88.430 98.186,88.162 98.237,87.054 98.237 C 86.297 98.237,85.677 98.178,85.677 98.108 C 85.677 98.037,86.212 98.004,86.865 98.035 C 87.944 98.086,88.065 98.058,88.168 97.734 C 88.292 97.341,88.709 97.294,89.892 97.539 M178.063 97.591 C 178.064 97.662,177.213 97.720,176.172 97.720 C 175.131 97.720,174.280 97.650,174.280 97.564 C 174.280 97.478,175.130 97.420,176.170 97.435 C 177.210 97.450,178.062 97.520,178.063 97.591 M287.777 98.001 C 287.535 98.243,287.666 98.409,288.100 98.409 C 288.379 98.409,288.518 98.329,288.473 98.194 C 288.390 97.945,287.954 97.824,287.777 98.001 M318.235 97.994 C 317.996 98.233,318.318 98.409,318.992 98.409 C 319.469 98.409,319.663 98.342,319.614 98.194 C 319.538 97.961,318.429 97.801,318.235 97.994 M352.516 98.065 C 352.809 98.158,352.508 98.204,351.570 98.207 C 350.654 98.211,350.309 98.163,350.538 98.065 C 350.964 97.881,351.944 97.881,352.516 98.065 M102.366 98.849 C 102.366 99.186,102.301 99.421,102.222 99.373 C 102.087 99.289,102.158 98.237,102.299 98.237 C 102.336 98.237,102.366 98.512,102.366 98.849 M114.108 98.707 C 113.705 98.743,113.047 98.743,112.645 98.707 C 112.243 98.670,112.572 98.641,113.376 98.641 C 114.181 98.641,114.510 98.670,114.108 98.707 M180.301 100.573 C 180.301 101.112,180.705 101.053,180.786 100.503 C 180.823 100.255,180.750 100.129,180.571 100.129 C 180.395 100.129,180.301 100.284,180.301 100.573 M240.291 101.118 C 240.247 101.284,240.212 101.148,240.212 100.817 C 240.212 100.486,240.247 100.351,240.291 100.516 C 240.334 100.682,240.334 100.953,240.291 101.118 M345.548 106.065 C 345.548 108.951,345.490 111.312,345.419 111.312 C 345.348 111.312,345.290 108.951,345.290 106.065 C 345.290 103.178,345.348 100.817,345.419 100.817 C 345.490 100.817,345.548 103.179,345.548 106.065 M57.867 103.517 C 57.664 103.557,57.458 103.740,57.410 103.924 C 57.310 104.305,40.602 104.466,40.602 104.086 C 40.602 103.974,43.410 103.914,48.681 103.914 C 55.554 103.914,56.794 103.876,56.982 103.662 C 57.104 103.524,57.437 103.419,57.720 103.428 C 58.088 103.440,58.130 103.465,57.867 103.517 M59.140 103.516 C 58.974 103.560,58.703 103.560,58.538 103.516 C 58.372 103.473,58.508 103.438,58.839 103.438 C 59.170 103.438,59.305 103.473,59.140 103.516 M176.977 104.199 C 176.930 104.246,176.555 104.209,176.145 104.118 L 175.398 103.951 176.129 103.932 C 176.578 103.921,176.868 103.831,176.880 103.699 C 176.891 103.581,176.937 103.625,176.981 103.798 C 177.026 103.971,177.024 104.152,176.977 104.199 M83.699 104.097 C 82.879 104.289,82.581 104.274,82.581 104.042 C 82.581 103.888,82.816 103.847,83.398 103.901 C 84.149 103.970,84.173 103.986,83.699 104.097 M236.608 103.914 C 237.108 103.914,237.262 103.968,237.133 104.097 C 236.871 104.359,235.485 104.226,235.388 103.930 C 235.332 103.759,235.396 103.721,235.603 103.801 C 235.766 103.863,236.218 103.914,236.608 103.914 M250.625 103.957 C 250.540 104.214,248.946 104.355,248.946 104.105 C 248.946 104.011,249.275 103.904,249.677 103.868 C 250.080 103.832,250.473 103.789,250.552 103.772 C 250.631 103.755,250.663 103.839,250.625 103.957 M292.032 104.079 C 291.943 104.167,291.523 104.185,291.097 104.121 L 290.323 104.003 291.183 103.913 C 292.130 103.815,292.271 103.842,292.032 104.079 M314.753 104.097 C 313.932 104.289,313.634 104.274,313.634 104.042 C 313.634 103.888,313.870 103.847,314.452 103.901 C 315.202 103.970,315.227 103.986,314.753 104.097 M329.290 104.000 C 329.290 104.191,329.091 104.258,328.526 104.258 C 327.479 104.258,327.365 103.949,328.383 103.869 C 328.835 103.833,329.224 103.790,329.247 103.773 C 329.271 103.756,329.290 103.858,329.290 104.000 M351.570 104.097 C 350.750 104.289,350.452 104.274,350.452 104.042 C 350.452 103.888,350.687 103.847,351.269 103.901 C 352.020 103.970,352.044 103.986,351.570 104.097 M109.378 104.032 C 109.214 104.075,108.904 104.077,108.690 104.036 C 108.476 103.995,108.611 103.959,108.989 103.957 C 109.368 103.955,109.543 103.989,109.378 104.032 M114.308 104.083 C 114.202 104.190,113.853 104.197,113.370 104.102 L 112.602 103.952 113.540 103.933 C 114.155 103.920,114.419 103.972,114.308 104.083 M154.237 104.086 C 154.178 104.181,153.907 104.258,153.634 104.258 C 153.362 104.258,153.091 104.181,153.032 104.086 C 152.968 103.982,153.206 103.914,153.634 103.914 C 154.063 103.914,154.301 103.982,154.237 104.086 M171.699 103.980 C 171.699 104.122,170.647 104.193,170.563 104.057 C 170.514 103.978,170.750 103.914,171.087 103.914 C 171.423 103.914,171.699 103.944,171.699 103.980 M222.968 103.980 C 222.968 104.122,221.916 104.193,221.832 104.057 C 221.783 103.978,222.019 103.914,222.355 103.914 C 222.692 103.914,222.968 103.944,222.968 103.980 M227.373 104.057 C 227.289 104.193,226.237 104.122,226.237 103.980 C 226.237 103.944,226.512 103.914,226.849 103.914 C 227.186 103.914,227.421 103.978,227.373 104.057 M285.376 104.033 C 285.211 104.076,284.940 104.076,284.774 104.033 C 284.609 103.989,284.744 103.954,285.075 103.954 C 285.406 103.954,285.542 103.989,285.376 104.033 M319.484 104.086 C 319.484 104.290,319.185 104.290,318.710 104.086 C 318.421 103.962,318.456 103.936,318.925 103.926 C 319.232 103.919,319.484 103.991,319.484 104.086 M356.405 104.057 C 356.321 104.193,355.269 104.122,355.269 103.980 C 355.269 103.944,355.544 103.914,355.881 103.914 C 356.218 103.914,356.454 103.978,356.405 104.057 M342.065 113.845 C 341.757 113.883,341.254 113.883,340.946 113.845 C 340.639 113.807,340.890 113.775,341.505 113.775 C 342.120 113.775,342.372 113.807,342.065 113.845 M224.101 115.225 C 223.916 115.410,223.818 115.151,223.948 114.820 C 224.070 114.510,224.079 114.510,224.139 114.809 C 224.174 114.982,224.157 115.169,224.101 115.225 M223.575 120.052 C 223.375 120.252,223.359 119.913,223.462 117.763 L 223.570 115.527 223.618 117.744 C 223.645 118.963,223.625 120.002,223.575 120.052 M269.417 119.077 C 269.419 119.386,269.310 119.558,269.075 119.620 C 268.886 119.669,268.731 119.640,268.731 119.554 C 268.731 119.468,268.809 119.398,268.903 119.398 C 268.998 119.398,269.076 119.108,269.078 118.753 C 269.080 118.273,269.123 118.174,269.247 118.366 C 269.339 118.508,269.415 118.828,269.417 119.077 M253.720 120.043 C 249.675 120.069,243.056 120.069,239.011 120.043 C 234.966 120.017,238.275 119.996,246.366 119.996 C 254.456 119.996,257.766 120.017,253.720 120.043 M260.334 120.864 C 260.636 120.980,260.533 122.231,260.198 122.509 C 260.065 122.619,259.957 122.845,259.957 123.011 C 259.957 123.177,259.841 123.409,259.699 123.527 C 259.557 123.645,259.441 123.877,259.441 124.043 C 259.441 124.209,259.325 124.441,259.183 124.559 C 259.041 124.677,258.925 124.839,258.925 124.919 C 258.925 125.288,256.888 127.828,256.592 127.828 C 256.424 127.828,254.796 129.109,254.796 129.241 C 254.796 129.315,254.600 129.376,254.360 129.376 C 254.121 129.376,253.880 129.492,253.826 129.634 C 253.771 129.776,253.573 129.892,253.384 129.892 C 253.196 129.892,252.837 130.004,252.586 130.139 C 252.335 130.275,251.916 130.431,251.656 130.487 C 251.396 130.542,251.183 130.697,251.183 130.831 C 251.183 131.014,251.032 131.051,250.584 130.978 C 250.182 130.913,249.844 130.973,249.558 131.161 C 248.961 131.552,243.706 131.565,243.193 131.177 C 243.009 131.038,242.535 130.925,242.139 130.925 C 241.708 130.925,241.332 130.821,241.204 130.667 C 241.087 130.525,240.801 130.409,240.569 130.409 C 240.337 130.409,240.031 130.292,239.889 130.151 C 239.747 130.009,239.482 129.892,239.300 129.892 C 239.117 129.892,238.968 129.817,238.968 129.724 C 238.968 129.631,238.757 129.502,238.500 129.438 C 237.980 129.307,237.965 129.297,236.968 128.439 C 236.578 128.103,236.213 127.828,236.157 127.828 C 236.012 127.828,234.914 126.712,234.780 126.429 C 234.441 125.711,233.593 124.731,233.310 124.731 C 233.185 124.731,233.151 124.574,233.219 124.303 C 233.296 123.998,233.247 123.844,233.051 123.768 C 232.889 123.706,232.774 123.464,232.774 123.185 C 232.774 122.923,232.666 122.619,232.534 122.509 C 232.244 122.269,232.091 120.980,232.340 120.875 C 232.595 120.768,260.056 120.757,260.334 120.864 M268.903 121.903 C 268.903 122.039,268.826 122.151,268.731 122.151 C 268.637 122.151,268.559 121.991,268.559 121.796 C 268.559 121.601,268.637 121.490,268.731 121.548 C 268.826 121.607,268.903 121.766,268.903 121.903 M224.688 123.183 C 224.688 123.561,224.658 123.871,224.620 123.871 C 224.583 123.871,224.523 123.561,224.487 123.183 C 224.451 122.804,224.481 122.495,224.555 122.495 C 224.628 122.495,224.688 122.804,224.688 123.183 M225.204 124.645 C 225.204 124.976,225.146 125.247,225.075 125.247 C 225.004 125.247,224.946 124.976,224.946 124.645 C 224.946 124.314,225.004 124.043,225.075 124.043 C 225.146 124.043,225.204 124.314,225.204 124.645 M267.871 124.979 C 267.871 125.105,267.707 125.250,267.506 125.303 C 267.212 125.380,267.162 125.484,267.251 125.839 C 267.315 126.096,267.288 126.280,267.186 126.280 C 266.917 126.280,266.978 125.477,267.269 125.186 C 267.411 125.044,267.527 124.840,267.527 124.733 C 267.527 124.626,267.604 124.587,267.699 124.645 C 267.794 124.704,267.871 124.854,267.871 124.979 M266.836 127.183 C 266.838 127.254,266.761 127.312,266.667 127.312 C 266.572 127.312,266.496 127.138,266.497 126.925 C 266.500 126.555,266.828 126.806,266.836 127.183 M265.806 128.516 C 265.806 128.705,265.729 128.860,265.634 128.860 C 265.540 128.860,265.462 128.705,265.462 128.516 C 265.462 128.327,265.540 128.172,265.634 128.172 C 265.729 128.172,265.806 128.327,265.806 128.516 M241.376 131.269 C 241.376 131.363,241.086 131.432,240.731 131.421 C 240.089 131.400,240.088 131.400,240.602 131.269 C 241.347 131.079,241.376 131.079,241.376 131.269 M252.174 131.387 C 252.010 131.430,251.700 131.432,251.486 131.390 C 251.272 131.349,251.406 131.314,251.785 131.312 C 252.163 131.310,252.339 131.344,252.174 131.387 M243.441 131.785 C 243.441 131.881,243.041 131.946,242.538 131.933 L 241.634 131.908 242.323 131.785 C 243.362 131.599,243.441 131.599,243.441 131.785 M251.010 131.828 C 251.010 131.899,250.624 131.957,250.151 131.957 C 249.677 131.957,249.290 131.891,249.290 131.811 C 249.290 131.730,249.677 131.672,250.149 131.682 C 250.622 131.691,251.009 131.757,251.010 131.828 M247.699 132.429 C 246.966 132.461,245.766 132.461,245.032 132.429 C 244.299 132.397,244.899 132.370,246.366 132.370 C 247.832 132.370,248.432 132.397,247.699 132.429 M250.667 139.183 C 250.667 139.277,250.376 139.346,250.022 139.334 C 249.379 139.314,249.379 139.314,249.892 139.183 C 250.637 138.993,250.667 138.993,250.667 139.183 M243.140 139.304 C 242.927 139.345,242.578 139.345,242.366 139.304 C 242.153 139.263,242.327 139.230,242.753 139.230 C 243.178 139.230,243.353 139.263,243.140 139.304 " stroke="none" fill="#040404" fill-rule="evenodd"></path><path id="path1" d="" stroke="none" fill="#080404" fill-rule="evenodd"></path><path id="path2" d="" stroke="none" fill="#080404" fill-rule="evenodd"></path><path id="path3" d="" stroke="none" fill="#080404" fill-rule="evenodd"></path><path id="path4" d="" stroke="none" fill="#080404" fill-rule="evenodd"></path></g></svg>