<svg id="svg" version="1.1" xmlns="http://www.w3.org/2000/svg" xmlns:xlink="http://www.w3.org/1999/xlink" width="400" height="165.625" viewBox="0, 0, 400,165.625"><g id="svgg"><path id="path0" d="M47.063 53.243 C 47.012 53.377,47.046 53.733,47.140 54.035 C 47.233 54.336,47.358 54.921,47.417 55.333 C 47.476 55.746,47.627 56.533,47.752 57.083 C 47.877 57.633,48.102 58.683,48.252 59.417 C 48.733 61.758,49.195 63.799,50.025 67.250 C 50.644 69.823,50.797 70.430,51.246 72.083 C 51.494 73.000,51.798 74.125,51.921 74.583 C 52.044 75.042,52.305 75.942,52.500 76.583 C 52.695 77.225,52.960 78.125,53.087 78.583 C 53.403 79.718,53.938 81.476,54.153 82.083 C 54.250 82.358,54.521 83.183,54.755 83.917 C 54.990 84.650,55.245 85.400,55.322 85.583 C 55.399 85.767,55.741 86.704,56.082 87.667 C 57.047 90.386,58.317 93.677,58.495 93.917 C 58.563 94.008,58.660 94.233,58.711 94.417 C 59.113 95.862,62.324 102.735,64.357 106.500 C 65.321 108.286,67.129 111.178,67.912 112.185 C 68.098 112.424,68.362 112.791,68.500 113.000 C 71.246 117.177,76.828 121.176,79.896 121.164 C 81.068 121.160,80.993 121.718,81.040 112.658 L 81.083 104.417 82.500 104.230 C 84.013 104.031,86.013 103.582,86.471 103.339 C 86.625 103.258,87.260 102.963,87.884 102.683 C 91.622 101.010,96.356 96.271,99.417 91.137 C 100.515 89.295,100.974 88.527,101.280 88.019 C 101.480 87.688,101.761 87.192,101.905 86.917 C 102.048 86.642,102.315 86.192,102.497 85.917 C 103.644 84.185,103.180 84.009,101.650 85.596 C 99.205 88.131,94.930 91.051,92.500 91.847 C 92.271 91.922,91.558 92.181,90.917 92.423 C 90.275 92.665,89.331 92.956,88.818 93.072 C 88.306 93.187,87.815 93.325,87.727 93.379 C 87.512 93.512,82.751 94.167,81.999 94.167 C 80.947 94.167,81.000 94.789,81.000 82.471 L 81.000 71.174 81.375 70.938 C 81.581 70.808,82.200 70.651,82.750 70.590 C 83.300 70.528,84.050 70.397,84.417 70.299 C 84.783 70.201,85.533 70.024,86.083 69.905 C 88.734 69.333,93.569 67.876,95.333 67.117 C 98.089 65.932,99.369 65.351,100.082 64.961 C 100.541 64.711,101.098 64.426,101.320 64.329 C 101.794 64.123,105.386 61.757,105.984 61.258 C 108.972 58.765,110.523 57.075,111.784 54.938 C 112.877 53.086,112.752 52.734,111.305 53.586 C 108.180 55.426,102.818 57.157,97.083 58.177 C 95.370 58.482,93.502 58.741,89.667 59.203 C 87.542 59.459,74.768 59.460,72.667 59.205 C 71.796 59.099,70.108 58.894,68.917 58.750 C 67.725 58.606,66.487 58.423,66.167 58.344 C 65.846 58.264,65.171 58.152,64.667 58.095 C 64.162 58.038,63.262 57.883,62.667 57.750 C 62.071 57.618,60.871 57.352,60.000 57.158 C 55.883 56.245,50.381 54.441,48.311 53.326 C 47.590 52.938,47.190 52.911,47.063 53.243 M69.000 74.180 C 70.802 74.711,72.428 75.728,74.042 77.336 C 76.072 79.358,76.075 79.354,72.658 79.152 C 69.973 78.994,64.145 78.720,60.292 78.572 C 56.953 78.443,56.788 78.302,58.457 76.998 C 62.307 73.988,65.474 73.141,69.000 74.180 M94.167 73.774 C 91.678 74.269,89.544 75.487,87.535 77.559 C 85.743 79.407,85.711 79.382,89.608 79.170 C 91.244 79.081,94.421 78.930,96.667 78.835 C 105.815 78.447,105.553 78.524,103.375 76.886 C 100.017 74.361,96.756 73.259,94.167 73.774 " stroke="none" fill="#fbf8f8" fill-rule="evenodd"></path><path id="path1" d="M47.583 26.175 C 46.758 26.243,45.371 26.317,44.500 26.341 C 43.629 26.365,47.192 26.475,52.417 26.587 C 69.946 26.962,71.283 27.157,58.583 27.486 C 54.642 27.588,50.798 27.715,50.042 27.768 L 48.667 27.863 48.667 40.015 C 48.667 48.005,48.610 52.167,48.500 52.167 C 48.408 52.167,48.333 52.056,48.333 51.920 C 48.333 51.517,47.557 51.424,47.040 51.766 L 46.583 52.068 47.301 52.213 C 47.696 52.292,48.061 52.464,48.111 52.595 C 48.161 52.726,48.378 52.833,48.592 52.833 C 48.806 52.833,49.079 52.971,49.199 53.139 C 49.319 53.307,49.665 53.494,49.968 53.554 C 50.271 53.613,50.633 53.776,50.772 53.914 C 50.910 54.053,51.169 54.167,51.346 54.167 C 51.523 54.167,51.948 54.317,52.290 54.500 C 52.632 54.683,53.076 54.833,53.277 54.833 C 53.478 54.833,53.743 54.933,53.865 55.056 C 53.988 55.178,54.415 55.330,54.815 55.394 C 55.215 55.458,55.699 55.621,55.892 55.755 C 56.084 55.890,56.409 56.000,56.615 56.000 C 56.820 56.000,57.347 56.124,57.786 56.275 C 58.224 56.426,59.033 56.646,59.583 56.764 C 60.563 56.975,61.373 57.154,62.958 57.512 C 63.394 57.610,64.462 57.799,65.333 57.931 C 66.204 58.063,67.142 58.240,67.417 58.323 C 67.692 58.406,68.517 58.521,69.250 58.578 C 69.983 58.635,71.408 58.807,72.417 58.960 C 76.858 59.636,89.929 59.319,95.167 58.409 C 95.946 58.274,97.033 58.095,97.583 58.013 C 100.577 57.565,104.048 56.605,108.132 55.095 C 109.118 54.730,111.521 53.518,111.872 53.209 C 112.518 52.638,112.709 53.260,112.188 54.237 C 109.609 59.070,102.828 64.385,96.000 66.927 C 95.679 67.046,95.004 67.304,94.500 67.499 C 93.673 67.820,92.822 68.109,90.250 68.943 C 89.792 69.092,89.004 69.313,88.500 69.434 C 87.996 69.556,86.946 69.810,86.167 70.000 C 85.388 70.190,84.012 70.481,83.109 70.647 C 82.170 70.820,81.405 71.049,81.320 71.183 C 81.121 71.497,81.126 93.511,81.325 93.825 C 81.636 94.317,87.764 93.431,90.500 92.499 C 94.572 91.113,98.187 88.922,101.110 86.069 C 102.948 84.275,103.272 84.056,103.104 84.726 C 103.023 85.051,100.905 88.815,100.000 90.243 C 99.862 90.460,99.531 91.000,99.263 91.444 C 98.814 92.186,97.667 93.818,96.301 95.659 C 92.773 100.414,86.557 104.333,82.545 104.333 C 81.031 104.333,81.167 103.501,81.167 112.762 L 81.167 120.988 80.809 121.180 C 79.944 121.643,76.440 120.655,74.894 119.513 C 74.699 119.368,74.368 119.138,74.160 119.000 C 71.819 117.453,67.973 113.125,66.162 110.000 C 65.976 109.679,65.695 109.218,65.537 108.976 C 64.879 107.967,64.167 106.698,64.167 106.535 C 64.167 106.439,64.100 106.336,64.019 106.306 C 63.937 106.275,63.731 105.972,63.560 105.632 C 63.390 105.292,62.935 104.392,62.549 103.632 C 62.164 102.872,61.770 102.063,61.675 101.833 C 61.579 101.604,61.428 101.304,61.339 101.167 C 61.250 101.029,60.959 100.429,60.692 99.833 C 60.424 99.237,59.972 98.247,59.686 97.632 C 59.400 97.017,59.167 96.459,59.167 96.393 C 59.167 96.257,58.598 94.981,58.237 94.308 C 58.107 94.064,58.000 93.773,58.000 93.659 C 58.000 93.546,57.841 93.107,57.646 92.685 C 57.451 92.262,57.151 91.608,56.979 91.232 C 56.807 90.855,56.667 90.395,56.667 90.210 C 56.667 90.026,56.562 89.787,56.434 89.681 C 56.306 89.575,56.151 89.217,56.089 88.886 C 56.027 88.555,55.876 88.127,55.754 87.934 C 55.632 87.741,55.478 87.321,55.412 87.000 C 55.345 86.679,55.188 86.269,55.062 86.088 C 54.936 85.907,54.833 85.588,54.833 85.379 C 54.833 85.170,54.683 84.719,54.500 84.377 C 54.317 84.035,54.164 83.566,54.161 83.336 C 54.158 83.105,54.047 82.772,53.913 82.596 C 53.780 82.419,53.622 81.913,53.564 81.471 C 53.505 81.028,53.397 80.667,53.324 80.667 C 53.250 80.667,53.101 80.235,52.992 79.708 C 52.882 79.181,52.690 78.602,52.563 78.421 C 52.437 78.240,52.333 77.892,52.333 77.648 C 52.333 77.403,52.185 76.876,52.004 76.477 C 51.822 76.077,51.670 75.525,51.665 75.250 C 51.660 74.975,51.550 74.610,51.421 74.440 C 51.292 74.269,51.135 73.707,51.073 73.190 C 51.011 72.673,50.864 72.137,50.745 72.000 C 50.627 71.862,50.478 71.321,50.413 70.797 C 50.349 70.272,50.192 69.757,50.065 69.651 C 49.929 69.538,49.833 69.141,49.832 68.688 C 49.832 68.199,49.710 67.734,49.500 67.417 C 49.270 67.070,49.169 66.634,49.168 65.995 C 49.167 65.281,49.092 65.010,48.833 64.789 C 48.560 64.554,48.500 64.297,48.500 63.353 C 48.500 62.517,48.436 62.178,48.265 62.112 C 48.107 62.052,47.991 61.598,47.909 60.721 C 47.841 60.005,47.691 59.344,47.575 59.251 C 47.451 59.153,47.338 58.586,47.302 57.884 C 47.237 56.626,47.117 56.317,46.810 56.623 C 46.538 56.895,46.704 58.913,47.030 59.282 C 47.215 59.493,47.318 60.033,47.369 61.074 C 47.416 62.003,47.517 62.589,47.638 62.629 C 47.761 62.670,47.833 63.108,47.833 63.816 C 47.833 64.748,47.896 65.005,48.208 65.340 L 48.583 65.742 48.630 101.702 L 48.676 137.663 49.046 137.735 C 49.250 137.774,50.804 137.944,52.500 138.111 L 55.583 138.416 52.918 138.548 C 51.452 138.621,50.181 138.753,50.093 138.840 C 50.005 138.928,49.438 139.000,48.833 139.000 C 48.221 139.000,47.648 139.086,47.540 139.193 C 47.419 139.315,46.304 139.429,44.548 139.500 C 42.789 139.571,46.516 139.634,54.583 139.669 L 67.417 139.726 51.627 139.834 C 42.942 139.893,35.779 140.002,35.710 140.077 C 35.640 140.152,46.302 140.165,59.403 140.106 C 72.503 140.048,90.976 140.000,100.454 140.000 C 111.900 140.000,117.652 139.944,117.583 139.833 C 117.519 139.729,115.627 139.658,112.532 139.645 C 107.806 139.623,100.315 139.428,101.782 139.364 C 102.166 139.347,102.522 139.267,102.572 139.185 C 102.622 139.104,102.908 138.998,103.207 138.951 C 103.506 138.903,104.050 138.784,104.417 138.686 C 104.783 138.588,105.510 138.506,106.032 138.504 C 107.258 138.499,107.508 138.172,106.302 138.152 C 105.815 138.144,104.779 138.049,104.000 137.941 L 102.583 137.744 102.541 113.338 C 102.503 91.120,102.441 87.718,102.101 89.071 C 102.042 89.307,101.888 89.500,101.758 89.500 C 101.629 89.500,101.499 89.668,101.470 89.873 C 101.441 90.079,101.285 90.272,101.125 90.302 C 100.687 90.386,100.727 89.567,101.167 89.452 C 101.406 89.389,101.500 89.224,101.500 88.867 C 101.500 88.593,101.605 88.329,101.734 88.279 C 101.863 88.230,102.018 87.965,102.078 87.692 C 102.138 87.418,102.295 87.153,102.427 87.102 C 102.559 87.052,102.667 86.870,102.667 86.698 C 102.667 86.526,102.817 86.249,103.000 86.083 C 103.183 85.917,103.333 85.660,103.333 85.511 C 103.333 85.362,103.483 85.112,103.667 84.955 C 103.850 84.798,104.000 84.523,104.000 84.343 C 104.000 84.164,104.094 83.957,104.208 83.883 C 104.323 83.810,104.597 83.375,104.816 82.917 C 105.036 82.458,105.283 81.949,105.364 81.785 C 105.566 81.375,105.398 81.166,104.865 81.168 C 104.435 81.169,104.195 81.425,103.585 82.534 C 103.495 82.699,103.326 82.833,103.210 82.833 C 103.095 82.833,103.000 82.942,103.000 83.074 C 103.000 83.206,102.869 83.414,102.708 83.535 C 102.427 83.747,102.326 83.882,101.704 84.874 C 101.546 85.125,101.323 85.332,101.208 85.332 C 101.094 85.333,101.000 85.400,101.000 85.481 C 101.000 85.696,100.199 86.187,100.102 86.031 C 100.058 85.958,100.260 85.644,100.552 85.332 C 101.113 84.734,101.426 84.273,101.600 83.792 C 101.658 83.631,101.800 83.500,101.916 83.500 C 102.642 83.500,102.724 80.124,102.000 80.028 C 100.441 79.819,101.499 79.000,103.327 79.000 C 105.916 79.000,106.053 77.916,103.633 76.585 C 103.468 76.495,103.333 76.326,103.333 76.210 C 103.333 76.095,103.223 76.000,103.089 76.000 C 102.955 76.000,102.765 75.850,102.667 75.667 C 102.569 75.483,102.341 75.333,102.161 75.333 C 101.978 75.333,101.833 75.221,101.833 75.079 C 101.833 74.930,101.627 74.784,101.333 74.725 C 101.058 74.670,100.833 74.522,100.833 74.396 C 100.833 74.071,101.935 74.089,102.060 74.417 C 102.406 75.318,102.500 74.356,102.500 69.917 C 102.500 64.995,102.452 64.671,101.833 65.417 C 101.576 65.726,100.441 65.763,100.541 65.458 C 100.578 65.344,100.810 65.226,101.055 65.197 C 101.300 65.168,101.500 65.043,101.500 64.919 C 101.500 64.795,101.730 64.643,102.011 64.581 C 102.292 64.519,102.563 64.363,102.612 64.234 C 102.662 64.105,102.803 64.000,102.926 64.000 C 103.049 64.000,103.352 63.812,103.599 63.583 C 103.846 63.354,104.150 63.167,104.274 63.167 C 104.398 63.167,104.500 63.054,104.500 62.917 C 104.500 62.779,104.646 62.667,104.825 62.667 C 105.004 62.667,105.210 62.571,105.283 62.454 C 105.357 62.338,105.604 62.121,105.833 61.972 C 106.063 61.824,106.507 61.469,106.822 61.184 C 107.136 60.900,107.455 60.667,107.530 60.667 C 107.605 60.667,107.667 60.554,107.667 60.417 C 107.667 60.279,107.747 60.167,107.846 60.167 C 108.006 60.167,110.167 58.054,110.167 57.897 C 110.167 57.862,110.298 57.691,110.458 57.517 C 111.158 56.760,111.500 56.290,111.500 56.087 C 111.500 55.967,111.612 55.826,111.750 55.773 C 111.888 55.720,112.000 55.568,112.000 55.434 C 112.000 55.300,112.098 55.091,112.217 54.970 C 112.604 54.577,113.193 53.187,113.137 52.797 C 113.073 52.345,112.332 52.310,111.903 52.740 C 111.760 52.883,111.533 53.000,111.400 53.000 C 111.266 53.000,111.116 53.104,111.067 53.231 C 111.019 53.359,110.754 53.508,110.480 53.562 C 110.205 53.617,109.867 53.776,109.728 53.914 C 109.590 54.053,109.303 54.167,109.092 54.167 C 108.880 54.167,108.616 54.277,108.504 54.412 C 108.392 54.547,108.026 54.707,107.692 54.767 C 107.357 54.827,106.971 54.970,106.833 55.086 C 106.696 55.202,106.269 55.349,105.885 55.412 C 105.500 55.475,105.097 55.633,104.989 55.763 C 104.869 55.908,104.481 56.000,103.991 56.000 C 103.542 56.000,103.092 56.099,102.966 56.224 C 102.664 56.527,101.591 56.713,100.956 56.574 L 100.440 56.460 100.845 56.236 C 101.068 56.113,101.485 56.009,101.772 56.006 C 102.525 55.997,102.495 56.588,102.498 41.556 L 102.500 27.862 103.708 27.768 C 104.373 27.716,107.429 27.596,110.500 27.502 C 113.571 27.408,116.833 27.275,117.750 27.207 L 119.417 27.083 116.833 26.977 C 114.259 26.871,104.435 26.553,101.583 26.483 C 99.277 26.427,100.623 26.333,105.833 26.186 C 108.811 26.102,99.111 26.052,79.833 26.053 C 62.921 26.053,48.408 26.108,47.583 26.175 M28.778 28.111 C 28.598 28.291,28.650 28.444,28.889 28.444 C 29.011 28.444,29.111 28.344,29.111 28.222 C 29.111 27.983,28.957 27.932,28.778 28.111 M27.756 28.931 C 27.600 29.168,27.502 29.391,27.537 29.426 C 27.572 29.461,27.732 29.267,27.893 28.995 C 28.252 28.387,28.145 28.337,27.756 28.931 M24.082 83.000 C 24.082 108.346,24.101 118.715,24.125 106.042 C 24.149 93.369,24.149 72.631,24.125 59.958 C 24.101 47.285,24.082 57.654,24.082 83.000 M46.233 53.757 C 46.095 54.309,46.269 55.835,46.496 56.062 C 46.613 56.179,46.667 55.804,46.667 54.877 C 46.667 53.519,46.440 52.934,46.233 53.757 M99.750 57.000 C 99.814 57.104,99.488 57.166,98.885 57.164 C 98.198 57.162,97.989 57.115,98.167 57.000 C 98.496 56.787,99.619 56.787,99.750 57.000 M96.667 57.769 C 96.667 57.805,96.273 57.824,95.792 57.814 C 95.083 57.798,95.012 57.773,95.417 57.683 C 95.890 57.577,96.667 57.631,96.667 57.769 M100.429 65.980 C 100.263 66.249,99.681 66.302,99.486 66.066 C 99.326 65.874,99.400 65.833,99.906 65.833 C 100.244 65.833,100.479 65.899,100.429 65.980 M98.700 66.700 C 98.544 66.856,98.456 66.856,98.300 66.700 C 98.144 66.544,98.189 66.500,98.500 66.500 C 98.811 66.500,98.856 66.544,98.700 66.700 M98.833 73.351 C 98.833 73.531,98.710 73.535,97.979 73.382 L 97.417 73.264 97.917 73.163 C 98.472 73.051,98.833 73.125,98.833 73.351 M98.380 74.067 C 101.090 74.927,105.216 77.840,104.599 78.457 C 104.557 78.498,102.212 78.634,99.387 78.760 C 96.562 78.885,92.975 79.070,91.417 79.170 C 88.133 79.382,86.306 79.340,86.211 79.051 C 86.041 78.538,89.133 75.809,91.163 74.679 C 93.057 73.626,96.162 73.362,98.380 74.067 M100.500 73.833 C 100.500 73.925,100.271 74.000,99.990 74.000 C 99.693 74.000,99.523 73.931,99.583 73.833 C 99.640 73.742,99.869 73.667,100.093 73.667 C 100.317 73.667,100.500 73.742,100.500 73.833 M64.083 74.289 C 62.353 74.710,58.000 77.258,58.000 77.850 C 58.000 78.145,58.353 78.175,66.478 78.566 C 69.536 78.714,72.678 78.907,73.460 78.996 C 75.343 79.210,75.514 79.038,74.517 77.937 C 71.731 74.857,67.634 73.424,64.083 74.289 M100.000 86.316 C 100.000 86.520,99.530 86.684,99.427 86.516 C 99.380 86.441,99.390 86.332,99.449 86.273 C 99.608 86.114,100.000 86.144,100.000 86.316 M98.500 87.583 C 98.500 87.721,98.378 87.833,98.230 87.833 C 98.008 87.833,97.997 87.788,98.167 87.583 C 98.281 87.446,98.402 87.333,98.437 87.333 C 98.472 87.333,98.500 87.446,98.500 87.583 M100.785 90.773 C 100.816 90.866,100.671 91.132,100.463 91.365 C 100.254 91.597,99.994 91.929,99.885 92.102 C 99.703 92.391,99.685 92.379,99.676 91.958 C 99.670 91.676,99.755 91.500,99.896 91.500 C 100.022 91.500,100.171 91.269,100.228 90.986 C 100.324 90.505,100.654 90.379,100.785 90.773 M99.500 92.730 C 99.500 92.764,99.388 92.886,99.250 93.000 C 99.045 93.170,99.000 93.159,99.000 92.937 C 99.000 92.788,99.112 92.667,99.250 92.667 C 99.388 92.667,99.500 92.695,99.500 92.730 " stroke="none" fill="#c51621" fill-rule="evenodd"></path><path id="path2" d="M105.833 26.185 C 100.619 26.333,99.281 26.427,101.583 26.483 C 104.435 26.553,114.259 26.871,116.833 26.977 L 119.417 27.083 117.750 27.207 C 116.833 27.275,113.571 27.408,110.500 27.502 C 107.429 27.596,104.373 27.716,103.708 27.768 L 102.500 27.862 102.498 41.556 C 102.495 56.588,102.525 55.997,101.772 56.006 C 101.485 56.009,101.068 56.113,100.845 56.236 L 100.440 56.460 100.956 56.574 C 101.591 56.713,102.664 56.527,102.966 56.224 C 103.092 56.099,103.542 56.000,103.991 56.000 C 104.481 56.000,104.869 55.908,104.989 55.763 C 105.097 55.633,105.500 55.475,105.885 55.412 C 106.269 55.349,106.696 55.202,106.833 55.086 C 106.971 54.970,107.357 54.827,107.692 54.767 C 108.026 54.707,108.392 54.547,108.504 54.412 C 108.616 54.277,108.880 54.167,109.092 54.167 C 109.303 54.167,109.590 54.053,109.728 53.914 C 109.867 53.776,110.205 53.617,110.480 53.562 C 110.754 53.508,111.019 53.359,111.067 53.231 C 111.116 53.104,111.266 53.000,111.400 53.000 C 111.533 53.000,111.760 52.883,111.903 52.740 C 112.332 52.310,113.073 52.345,113.137 52.797 C 113.193 53.187,112.604 54.577,112.217 54.970 C 112.098 55.091,112.000 55.300,112.000 55.434 C 112.000 55.568,111.888 55.720,111.750 55.773 C 111.612 55.826,111.500 55.967,111.500 56.087 C 111.500 56.290,111.158 56.760,110.458 57.517 C 110.298 57.691,110.167 57.862,110.167 57.897 C 110.167 58.054,108.006 60.167,107.846 60.167 C 107.747 60.167,107.667 60.279,107.667 60.417 C 107.667 60.554,107.605 60.667,107.530 60.667 C 107.455 60.667,107.136 60.900,106.822 61.184 C 106.507 61.469,106.063 61.824,105.833 61.972 C 105.604 62.121,105.357 62.338,105.283 62.454 C 105.210 62.571,105.004 62.667,104.825 62.667 C 104.646 62.667,104.500 62.779,104.500 62.917 C 104.500 63.054,104.398 63.167,104.274 63.167 C 104.150 63.167,103.846 63.354,103.599 63.583 C 103.352 63.813,103.049 64.000,102.926 64.000 C 102.803 64.000,102.662 64.105,102.612 64.234 C 102.563 64.363,102.292 64.519,102.011 64.581 C 101.730 64.643,101.500 64.795,101.500 64.919 C 101.500 65.043,101.300 65.168,101.055 65.197 C 100.810 65.226,100.578 65.344,100.541 65.458 C 100.441 65.763,101.576 65.726,101.833 65.417 C 102.452 64.671,102.500 64.995,102.500 69.917 C 102.500 74.356,102.406 75.318,102.060 74.417 C 101.935 74.089,100.833 74.071,100.833 74.396 C 100.833 74.522,101.058 74.670,101.333 74.725 C 101.627 74.784,101.833 74.930,101.833 75.079 C 101.833 75.221,101.978 75.333,102.161 75.333 C 102.341 75.333,102.569 75.483,102.667 75.667 C 102.765 75.850,102.955 76.000,103.089 76.000 C 103.223 76.000,103.333 76.095,103.333 76.210 C 103.333 76.326,103.468 76.495,103.633 76.585 C 106.053 77.916,105.916 79.000,103.327 79.000 C 101.499 79.000,100.441 79.819,102.000 80.028 C 102.724 80.124,102.642 83.500,101.916 83.500 C 101.800 83.500,101.658 83.631,101.600 83.792 C 101.426 84.273,101.113 84.734,100.552 85.332 C 100.260 85.644,100.058 85.958,100.102 86.031 C 100.199 86.187,101.000 85.696,101.000 85.481 C 101.000 85.400,101.094 85.333,101.208 85.332 C 101.323 85.332,101.546 85.125,101.704 84.874 C 102.326 83.882,102.427 83.747,102.708 83.535 C 102.869 83.414,103.000 83.206,103.000 83.074 C 103.000 82.942,103.095 82.833,103.210 82.833 C 103.326 82.833,103.495 82.699,103.585 82.534 C 104.195 81.425,104.435 81.169,104.865 81.168 C 105.398 81.166,105.566 81.375,105.364 81.785 C 105.283 81.949,105.036 82.458,104.816 82.917 C 104.597 83.375,104.323 83.810,104.208 83.883 C 104.094 83.957,104.000 84.164,104.000 84.343 C 104.000 84.523,103.850 84.798,103.667 84.955 C 103.483 85.112,103.333 85.362,103.333 85.511 C 103.333 85.660,103.183 85.917,103.000 86.083 C 102.817 86.249,102.667 86.526,102.667 86.698 C 102.667 86.870,102.559 87.052,102.427 87.102 C 102.295 87.153,102.138 87.418,102.078 87.692 C 102.018 87.965,101.863 88.230,101.734 88.279 C 101.605 88.329,101.500 88.593,101.500 88.867 C 101.500 89.224,101.406 89.389,101.167 89.452 C 100.727 89.567,100.687 90.386,101.125 90.302 C 101.285 90.272,101.441 90.079,101.470 89.873 C 101.499 89.668,101.629 89.500,101.758 89.500 C 101.888 89.500,102.042 89.307,102.101 89.071 C 102.441 87.718,102.503 91.120,102.541 113.338 L 102.583 137.744 104.000 137.941 C 104.779 138.049,105.815 138.144,106.302 138.152 C 107.508 138.172,107.258 138.499,106.032 138.504 C 105.510 138.506,104.783 138.588,104.417 138.686 C 104.050 138.784,103.506 138.903,103.207 138.951 C 102.908 138.998,102.622 139.104,102.572 139.185 C 102.522 139.267,102.166 139.347,101.782 139.364 C 100.315 139.428,107.806 139.623,112.532 139.645 C 115.616 139.658,117.519 139.729,117.583 139.833 C 117.651 139.943,109.200 140.014,92.551 140.042 L 67.417 140.085 97.283 140.124 C 126.231 140.162,127.667 140.147,127.667 139.806 C 127.667 139.718,127.580 139.701,127.474 139.766 C 127.355 139.840,127.327 139.812,127.401 139.692 C 127.475 139.573,128.024 139.500,128.848 139.500 C 129.876 139.500,130.199 139.443,130.273 139.250 C 130.329 139.105,130.578 139.000,130.867 139.000 C 131.224 139.000,131.389 138.906,131.452 138.667 C 131.518 138.414,131.679 138.333,132.118 138.333 C 132.548 138.333,132.719 138.251,132.781 138.015 C 132.827 137.841,133.017 137.658,133.204 137.609 C 133.428 137.550,133.509 137.432,133.444 137.260 C 133.374 137.078,133.444 137.000,133.678 137.000 C 134.050 137.000,135.333 135.782,135.333 135.429 C 135.333 135.306,135.483 135.166,135.667 135.118 C 135.864 135.067,136.000 134.891,136.000 134.688 C 136.000 134.446,136.077 134.373,136.257 134.442 C 136.398 134.497,136.502 134.475,136.487 134.395 C 136.386 133.840,136.535 133.363,136.833 133.285 C 137.076 133.222,137.167 133.058,137.167 132.682 C 137.167 132.389,137.310 132.023,137.501 131.833 C 138.007 131.326,138.028 34.449,137.522 34.178 C 137.325 34.073,137.178 33.754,137.117 33.304 C 137.065 32.914,136.905 32.509,136.761 32.404 C 136.617 32.299,136.500 32.088,136.500 31.935 C 136.500 31.782,136.392 31.615,136.260 31.564 C 136.128 31.514,135.972 31.254,135.914 30.987 C 135.855 30.720,135.714 30.445,135.599 30.376 C 135.485 30.307,135.343 30.119,135.284 29.958 C 135.225 29.798,135.062 29.667,134.922 29.667 C 134.782 29.667,134.667 29.547,134.667 29.401 C 134.667 29.255,134.517 29.096,134.333 29.048 C 134.150 29.000,134.000 28.857,134.000 28.731 C 134.000 28.604,133.859 28.500,133.686 28.500 C 133.512 28.500,133.333 28.351,133.285 28.167 C 133.222 27.928,133.058 27.833,132.702 27.833 C 132.367 27.833,132.180 27.737,132.128 27.538 C 132.081 27.356,131.868 27.228,131.567 27.204 C 131.301 27.182,130.964 27.006,130.818 26.813 C 130.601 26.525,130.415 26.473,129.777 26.524 C 129.350 26.558,129.000 26.525,129.000 26.450 C 129.000 26.375,128.930 26.357,128.845 26.410 C 128.760 26.462,128.635 26.418,128.569 26.310 C 128.497 26.193,128.521 26.160,128.629 26.227 C 128.729 26.288,128.856 26.265,128.912 26.175 C 129.034 25.977,112.906 25.984,105.833 26.185 M98.167 57.000 C 97.989 57.115,98.198 57.162,98.885 57.164 C 99.488 57.166,99.814 57.104,99.750 57.000 C 99.619 56.787,98.496 56.787,98.167 57.000 M95.417 57.683 C 95.012 57.773,95.083 57.798,95.792 57.814 C 96.273 57.824,96.667 57.805,96.667 57.769 C 96.667 57.631,95.890 57.577,95.417 57.683 M99.486 66.066 C 99.592 66.194,99.827 66.260,100.009 66.213 C 100.597 66.059,100.536 65.833,99.906 65.833 C 99.400 65.833,99.326 65.874,99.486 66.066 M98.300 66.700 C 98.456 66.856,98.544 66.856,98.700 66.700 C 98.856 66.544,98.811 66.500,98.500 66.500 C 98.189 66.500,98.144 66.544,98.300 66.700 M97.917 73.163 L 97.417 73.264 97.979 73.382 C 98.710 73.535,98.833 73.531,98.833 73.351 C 98.833 73.125,98.472 73.051,97.917 73.163 M99.583 73.833 C 99.523 73.931,99.693 74.000,99.990 74.000 C 100.271 74.000,100.500 73.925,100.500 73.833 C 100.500 73.742,100.317 73.667,100.093 73.667 C 99.869 73.667,99.640 73.742,99.583 73.833 M99.449 86.273 C 99.390 86.332,99.380 86.441,99.427 86.516 C 99.530 86.684,100.000 86.520,100.000 86.316 C 100.000 86.144,99.608 86.114,99.449 86.273 M98.167 87.583 C 97.997 87.788,98.008 87.833,98.230 87.833 C 98.378 87.833,98.500 87.721,98.500 87.583 C 98.500 87.446,98.472 87.333,98.437 87.333 C 98.402 87.333,98.281 87.446,98.167 87.583 M100.228 90.986 C 100.171 91.269,100.022 91.500,99.896 91.500 C 99.755 91.500,99.670 91.676,99.676 91.958 C 99.685 92.379,99.703 92.391,99.885 92.102 C 99.994 91.929,100.254 91.597,100.463 91.365 C 100.854 90.929,100.876 90.653,100.530 90.538 C 100.416 90.500,100.287 90.692,100.228 90.986 M99.000 92.937 C 99.000 93.159,99.045 93.170,99.250 93.000 C 99.388 92.886,99.500 92.764,99.500 92.730 C 99.500 92.695,99.388 92.667,99.250 92.667 C 99.112 92.667,99.000 92.788,99.000 92.937 " stroke="none" fill="#a4141c" fill-rule="evenodd"></path><path id="path3" d="M162.944 47.278 C 162.657 47.566,162.832 49.321,163.167 49.500 C 163.435 49.644,163.500 49.849,163.500 50.552 C 163.500 51.033,163.603 51.574,163.728 51.755 C 163.856 51.939,163.991 52.698,164.035 53.483 C 164.094 54.528,164.184 54.934,164.391 55.085 C 164.622 55.254,164.667 55.624,164.667 57.388 C 164.667 59.318,164.694 59.503,165.000 59.667 C 165.526 59.948,165.526 108.799,165.000 109.128 C 164.693 109.320,164.667 109.517,164.667 111.613 C 164.667 113.532,164.622 113.940,164.380 114.207 C 164.162 114.448,164.078 114.915,164.028 116.178 C 163.977 117.444,163.907 117.833,163.731 117.833 C 163.551 117.833,163.500 118.167,163.500 119.333 C 163.500 120.722,163.475 120.833,163.167 120.833 C 162.874 120.833,162.833 120.944,162.833 121.751 L 162.833 122.670 171.792 122.626 L 180.750 122.583 180.804 122.114 C 180.833 121.856,180.740 121.465,180.595 121.245 C 180.443 121.013,180.333 120.487,180.333 119.990 C 180.333 119.276,180.279 119.121,180.000 119.048 C 179.698 118.969,179.667 118.821,179.667 117.465 C 179.667 116.109,179.635 115.961,179.333 115.882 C 179.023 115.800,179.000 115.654,179.000 113.739 C 179.000 112.089,178.951 111.656,178.751 111.544 C 178.536 111.424,178.485 109.873,178.376 100.202 L 178.250 89.000 180.117 89.000 C 181.721 89.000,182.006 89.041,182.146 89.292 C 182.285 89.540,182.619 89.591,184.415 89.639 C 186.041 89.682,186.542 89.748,186.612 89.930 C 186.674 90.093,186.977 90.167,187.582 90.167 C 188.321 90.167,188.475 90.220,188.548 90.500 C 188.621 90.777,188.776 90.833,189.465 90.833 C 190.154 90.833,190.309 90.890,190.382 91.167 C 190.454 91.444,190.609 91.500,191.298 91.500 C 191.988 91.500,192.143 91.556,192.215 91.833 C 192.282 92.089,192.442 92.167,192.901 92.167 C 193.322 92.167,193.500 92.241,193.500 92.417 C 193.500 92.609,193.713 92.667,194.417 92.667 C 195.086 92.667,195.333 92.604,195.333 92.436 C 195.333 92.309,195.483 92.166,195.667 92.118 C 195.850 92.070,196.000 91.906,196.000 91.754 C 196.000 91.601,196.112 91.364,196.250 91.226 C 196.387 91.089,196.500 90.794,196.500 90.571 C 196.500 90.278,196.592 90.167,196.833 90.167 C 197.101 90.167,197.167 90.056,197.167 89.603 C 197.167 89.179,197.250 89.017,197.500 88.952 C 197.755 88.885,197.833 88.724,197.833 88.266 C 197.833 87.839,197.907 87.667,198.089 87.667 C 198.229 87.667,198.392 87.535,198.451 87.375 C 198.510 87.215,198.658 87.023,198.779 86.950 C 198.901 86.877,199.000 86.595,199.000 86.325 C 199.000 85.944,199.075 85.833,199.333 85.833 C 199.601 85.833,199.667 85.722,199.667 85.269 C 199.667 84.846,199.750 84.684,200.000 84.618 C 200.255 84.552,200.333 84.391,200.333 83.932 C 200.333 83.444,200.395 83.333,200.667 83.333 C 200.883 83.333,201.000 83.222,201.000 83.018 C 201.000 82.844,201.112 82.659,201.250 82.606 C 201.396 82.550,201.500 82.301,201.500 82.005 C 201.500 81.611,201.573 81.500,201.833 81.500 C 202.126 81.500,202.167 81.389,202.167 80.583 L 202.167 79.667 189.958 79.647 C 183.244 79.637,177.882 79.593,178.044 79.551 C 178.322 79.479,178.336 78.858,178.294 68.321 L 178.250 57.167 183.320 57.167 C 187.898 57.167,188.421 57.195,188.710 57.456 C 188.936 57.660,189.395 57.763,190.277 57.808 C 191.142 57.852,191.552 57.942,191.614 58.102 C 191.674 58.260,191.989 58.333,192.601 58.333 C 193.389 58.333,193.500 58.375,193.500 58.667 C 193.500 58.960,193.611 59.000,194.417 59.000 C 195.222 59.000,195.333 59.040,195.333 59.333 C 195.333 59.598,195.444 59.667,195.877 59.667 C 196.239 59.667,196.489 59.777,196.628 60.000 C 196.761 60.213,197.017 60.333,197.335 60.333 C 197.667 60.333,197.833 60.417,197.833 60.583 C 197.833 60.994,198.939 60.918,199.048 60.500 C 199.096 60.317,199.255 60.167,199.401 60.167 C 199.592 60.167,199.667 60.008,199.667 59.603 C 199.667 59.179,199.750 59.017,200.000 58.952 C 200.255 58.885,200.333 58.724,200.333 58.266 C 200.333 57.853,200.409 57.667,200.576 57.667 C 200.722 57.667,200.863 57.430,200.930 57.070 C 200.992 56.742,201.145 56.434,201.271 56.386 C 201.397 56.337,201.500 56.081,201.500 55.816 C 201.500 55.550,201.650 55.183,201.833 55.000 C 202.018 54.815,202.167 54.444,202.167 54.168 C 202.167 53.850,202.287 53.594,202.500 53.461 C 202.718 53.325,202.833 53.073,202.833 52.729 C 202.833 52.346,202.923 52.182,203.167 52.118 C 203.422 52.052,203.500 51.891,203.500 51.432 C 203.500 51.011,203.574 50.833,203.750 50.833 C 203.925 50.833,204.000 50.657,204.000 50.250 C 204.000 49.778,204.063 49.667,204.333 49.667 C 204.637 49.667,204.667 49.556,204.667 48.417 L 204.667 47.167 183.861 47.167 C 172.418 47.167,163.006 47.217,162.944 47.278 M264.412 48.062 C 264.231 48.188,263.570 48.323,262.942 48.363 C 262.093 48.416,261.759 48.507,261.642 48.717 C 261.511 48.950,261.221 49.000,259.992 49.000 C 258.611 49.000,258.500 49.025,258.500 49.333 C 258.500 49.643,258.389 49.667,256.917 49.667 C 255.444 49.667,255.333 49.690,255.333 50.000 C 255.333 50.308,255.222 50.333,253.842 50.333 C 251.858 50.333,251.500 50.612,251.500 52.160 C 251.500 53.058,251.545 53.210,251.833 53.285 C 252.126 53.362,252.167 53.512,252.167 54.535 C 252.167 55.558,252.207 55.708,252.500 55.785 C 252.808 55.865,252.833 56.012,252.833 57.685 C 252.833 59.317,252.867 59.518,253.167 59.705 C 253.603 59.978,253.705 114.167,253.269 114.167 C 252.946 114.167,252.838 114.700,252.836 116.307 C 252.834 117.557,252.799 117.707,252.500 117.785 C 252.223 117.857,252.167 118.012,252.167 118.701 C 252.167 119.278,252.065 119.660,251.833 119.955 C 251.574 120.285,251.500 120.631,251.500 121.522 L 251.500 122.667 259.333 122.667 L 267.167 122.667 267.167 121.818 C 267.167 121.109,267.112 120.954,266.833 120.882 C 266.559 120.810,266.500 120.654,266.500 119.998 C 266.500 119.445,266.424 119.173,266.250 119.106 C 266.112 119.054,266.000 118.830,266.000 118.609 C 266.000 117.854,265.792 117.167,265.563 117.167 C 265.371 117.167,265.333 115.629,265.333 107.750 C 265.333 98.444,265.337 98.333,265.667 98.333 C 265.937 98.333,266.000 98.444,266.000 98.922 C 266.000 99.291,266.093 99.546,266.250 99.606 C 266.387 99.659,266.500 99.807,266.500 99.934 C 266.500 100.062,266.650 100.167,266.833 100.167 C 267.105 100.167,267.167 100.278,267.167 100.766 C 267.167 101.224,267.245 101.385,267.500 101.452 C 267.684 101.500,267.833 101.679,267.833 101.853 C 267.833 102.056,267.951 102.167,268.167 102.167 C 268.437 102.167,268.500 102.278,268.500 102.750 C 268.500 103.136,268.578 103.333,268.731 103.333 C 268.857 103.333,269.000 103.483,269.048 103.667 C 269.096 103.850,269.255 104.000,269.401 104.000 C 269.593 104.000,269.667 104.161,269.667 104.583 C 269.667 105.056,269.730 105.167,270.000 105.167 C 270.207 105.167,270.333 105.278,270.333 105.460 C 270.333 105.621,270.483 105.847,270.667 105.961 C 270.852 106.077,271.000 106.350,271.000 106.576 C 271.000 106.800,271.095 107.043,271.212 107.117 C 271.328 107.190,271.514 107.456,271.625 107.708 C 271.736 107.960,271.903 108.167,271.996 108.167 C 272.090 108.167,272.167 108.354,272.167 108.583 C 272.167 108.889,272.256 109.000,272.500 109.000 C 272.762 109.000,272.833 109.111,272.833 109.516 C 272.833 109.891,272.924 110.055,273.167 110.118 C 273.351 110.167,273.500 110.346,273.500 110.519 C 273.500 110.692,273.612 110.833,273.750 110.833 C 273.917 110.833,274.000 111.000,274.000 111.332 C 274.000 111.650,274.121 111.906,274.333 112.039 C 274.517 112.153,274.667 112.379,274.667 112.540 C 274.667 112.701,274.817 112.983,275.000 113.167 C 275.183 113.350,275.333 113.612,275.333 113.750 C 275.333 113.889,275.481 114.000,275.667 114.000 C 275.937 114.000,276.000 114.111,276.000 114.583 C 276.000 114.991,276.075 115.167,276.250 115.167 C 276.403 115.167,276.500 115.323,276.500 115.570 C 276.500 116.145,276.666 116.500,276.934 116.500 C 277.083 116.500,277.167 116.686,277.167 117.016 C 277.167 117.391,277.257 117.555,277.500 117.618 C 277.753 117.684,277.833 117.846,277.833 118.285 C 277.833 118.724,277.914 118.886,278.167 118.952 C 278.414 119.017,278.500 119.179,278.500 119.585 C 278.500 119.909,278.599 120.169,278.742 120.224 C 278.914 120.290,278.999 120.647,279.034 121.450 L 279.083 122.583 287.468 122.627 L 295.852 122.670 295.801 121.877 C 295.754 121.142,295.710 121.072,295.208 120.924 C 294.858 120.821,294.667 120.659,294.667 120.466 C 294.667 120.278,294.543 120.167,294.333 120.167 C 294.148 120.167,294.000 120.056,294.000 119.917 C 294.000 119.779,293.887 119.667,293.750 119.667 C 293.612 119.667,293.500 119.551,293.500 119.410 C 293.500 119.268,293.350 118.992,293.167 118.795 C 292.983 118.598,292.833 118.341,292.833 118.224 C 292.833 118.107,292.683 117.931,292.500 117.833 C 292.317 117.735,292.167 117.545,292.167 117.411 C 292.167 117.277,292.017 117.167,291.833 117.167 C 291.611 117.167,291.500 117.056,291.500 116.833 C 291.500 116.648,291.389 116.500,291.250 116.500 C 291.112 116.500,291.000 116.380,291.000 116.234 C 291.000 116.088,290.850 115.930,290.667 115.882 C 290.483 115.834,290.333 115.665,290.333 115.506 C 290.333 115.348,290.183 115.083,290.000 114.917 C 289.817 114.751,289.667 114.477,289.667 114.308 C 289.667 114.111,289.546 114.000,289.333 114.000 C 289.111 114.000,289.000 113.889,289.000 113.667 C 289.000 113.481,288.889 113.333,288.750 113.333 C 288.612 113.333,288.500 113.214,288.500 113.068 C 288.500 112.922,288.350 112.763,288.167 112.715 C 287.928 112.652,287.833 112.488,287.833 112.132 C 287.833 111.776,287.739 111.611,287.500 111.548 C 287.316 111.500,287.167 111.321,287.167 111.147 C 287.167 110.944,287.049 110.833,286.833 110.833 C 286.618 110.833,286.500 110.722,286.500 110.520 C 286.500 110.348,286.395 110.120,286.266 110.014 C 286.138 109.907,285.986 109.635,285.930 109.410 C 285.873 109.184,285.716 109.000,285.580 109.000 C 285.444 109.000,285.333 108.850,285.333 108.667 C 285.333 108.444,285.222 108.333,285.000 108.333 C 284.730 108.333,284.667 108.222,284.667 107.750 C 284.667 107.278,284.603 107.167,284.333 107.167 C 284.111 107.167,284.000 107.056,284.000 106.833 C 284.000 106.648,283.889 106.500,283.750 106.500 C 283.594 106.500,283.500 106.342,283.500 106.082 C 283.500 105.852,283.350 105.535,283.167 105.378 C 282.983 105.221,282.833 104.997,282.833 104.880 C 282.833 104.762,282.683 104.667,282.500 104.667 C 282.229 104.667,282.167 104.556,282.167 104.068 C 282.167 103.609,282.089 103.448,281.833 103.382 C 281.650 103.334,281.500 103.188,281.500 103.059 C 281.500 102.929,281.387 102.780,281.250 102.727 C 281.105 102.671,281.000 102.422,281.000 102.133 C 281.000 101.776,280.906 101.611,280.667 101.548 C 280.481 101.500,280.333 101.321,280.333 101.146 C 280.333 100.972,280.183 100.702,280.000 100.545 C 279.817 100.388,279.667 100.126,279.667 99.963 C 279.667 99.778,279.542 99.667,279.333 99.667 C 279.063 99.667,279.000 99.556,279.000 99.083 C 279.000 98.676,278.925 98.500,278.750 98.500 C 278.612 98.500,278.500 98.355,278.500 98.178 C 278.500 98.001,278.350 97.808,278.167 97.750 C 277.930 97.675,277.833 97.498,277.833 97.140 C 277.833 96.776,277.741 96.611,277.500 96.548 C 277.316 96.500,277.167 96.321,277.167 96.147 C 277.167 95.944,277.049 95.833,276.833 95.833 C 276.563 95.833,276.500 95.722,276.500 95.250 C 276.500 94.843,276.425 94.667,276.250 94.667 C 276.111 94.667,276.000 94.519,276.000 94.333 C 276.000 94.148,276.111 94.000,276.250 94.000 C 276.431 94.000,276.500 93.815,276.500 93.333 C 276.500 92.778,276.556 92.667,276.833 92.667 C 277.017 92.667,277.167 92.563,277.167 92.436 C 277.167 92.309,277.317 92.166,277.500 92.118 C 277.755 92.052,277.833 91.891,277.833 91.432 C 277.833 90.944,277.895 90.833,278.167 90.833 C 278.389 90.833,278.500 90.722,278.500 90.500 C 278.500 90.315,278.611 90.167,278.750 90.167 C 278.925 90.167,279.000 89.991,279.000 89.583 C 279.000 89.111,279.063 89.000,279.333 89.000 C 279.556 89.000,279.667 88.889,279.667 88.667 C 279.667 88.444,279.778 88.333,280.000 88.333 C 280.268 88.333,280.333 88.222,280.333 87.769 C 280.333 87.346,280.416 87.184,280.667 87.118 C 280.850 87.070,281.000 86.912,281.000 86.766 C 281.000 86.620,281.112 86.500,281.250 86.500 C 281.431 86.500,281.500 86.315,281.500 85.833 C 281.500 85.278,281.556 85.167,281.833 85.167 C 282.017 85.167,282.167 85.063,282.167 84.936 C 282.167 84.809,282.317 84.666,282.500 84.618 C 282.755 84.552,282.833 84.391,282.833 83.932 C 282.833 83.444,282.895 83.333,283.167 83.333 C 283.389 83.333,283.500 83.222,283.500 83.000 C 283.500 82.815,283.611 82.667,283.750 82.667 C 283.889 82.667,284.000 82.519,284.000 82.333 C 284.000 82.150,284.104 82.000,284.232 82.000 C 284.487 82.000,284.667 81.650,284.667 81.153 C 284.667 80.944,284.783 80.833,285.000 80.833 C 285.222 80.833,285.333 80.722,285.333 80.500 C 285.333 80.317,285.427 80.165,285.542 80.164 C 285.786 80.160,286.500 79.445,286.500 79.204 C 286.500 79.113,286.650 79.000,286.833 78.952 C 287.017 78.904,287.167 78.742,287.167 78.592 C 287.167 78.442,287.317 78.158,287.500 77.962 C 287.683 77.765,287.833 77.514,287.833 77.405 C 287.833 77.295,287.983 77.166,288.167 77.118 C 288.350 77.070,288.500 76.912,288.500 76.766 C 288.500 76.620,288.612 76.500,288.750 76.500 C 288.889 76.500,289.000 76.352,289.000 76.167 C 289.000 75.951,289.111 75.833,289.314 75.833 C 289.488 75.833,289.667 75.684,289.715 75.500 C 289.763 75.317,289.922 75.167,290.068 75.167 C 290.214 75.167,290.333 75.054,290.333 74.917 C 290.333 74.779,290.475 74.667,290.647 74.667 C 290.821 74.667,291.000 74.518,291.048 74.333 C 291.108 74.104,291.276 74.000,291.583 74.000 C 291.884 74.000,292.059 73.895,292.114 73.682 C 292.160 73.507,292.341 73.327,292.515 73.281 C 292.690 73.235,292.833 73.078,292.833 72.932 C 292.833 72.786,292.948 72.667,293.089 72.667 C 293.229 72.667,293.387 72.554,293.440 72.417 C 293.492 72.279,293.640 72.167,293.768 72.167 C 293.896 72.167,294.000 72.025,294.000 71.852 C 294.000 71.624,294.161 71.507,294.583 71.428 C 295.144 71.323,295.167 71.290,295.167 70.594 C 295.167 69.608,295.763 69.667,285.732 69.667 L 276.825 69.667 276.663 70.094 C 276.573 70.329,276.500 71.034,276.500 71.660 C 276.500 72.517,276.438 72.821,276.250 72.894 C 276.066 72.964,276.000 73.255,276.000 73.993 C 276.000 74.817,275.940 75.035,275.667 75.205 C 275.448 75.342,275.333 75.594,275.333 75.937 C 275.333 76.321,275.244 76.484,275.000 76.548 C 274.745 76.615,274.667 76.776,274.667 77.234 C 274.667 77.647,274.591 77.833,274.424 77.833 C 274.279 77.833,274.138 78.067,274.072 78.417 C 274.010 78.751,273.864 79.000,273.731 79.000 C 273.573 79.000,273.500 79.209,273.500 79.667 C 273.500 80.222,273.444 80.333,273.167 80.333 C 272.897 80.333,272.833 80.444,272.833 80.917 C 272.833 81.389,272.770 81.500,272.500 81.500 C 272.284 81.500,272.167 81.611,272.167 81.816 C 272.167 81.989,272.061 82.171,271.932 82.221 C 271.804 82.270,271.648 82.541,271.586 82.822 C 271.524 83.103,271.367 83.333,271.237 83.333 C 271.107 83.333,271.000 83.465,271.000 83.627 C 271.000 83.788,270.850 84.013,270.667 84.128 C 270.454 84.261,270.333 84.517,270.333 84.835 C 270.333 85.222,270.259 85.333,270.000 85.333 C 269.817 85.333,269.667 85.438,269.667 85.566 C 269.667 85.693,269.558 85.839,269.426 85.890 C 269.293 85.941,269.135 86.249,269.074 86.575 C 269.010 86.915,268.865 87.167,268.731 87.167 C 268.604 87.167,268.500 87.317,268.500 87.500 C 268.500 87.722,268.389 87.833,268.167 87.833 C 267.897 87.833,267.833 87.944,267.833 88.417 C 267.833 88.889,267.770 89.000,267.500 89.000 C 267.285 89.000,267.167 89.111,267.167 89.314 C 267.167 89.488,267.018 89.667,266.833 89.715 C 266.650 89.763,266.500 89.922,266.500 90.068 C 266.500 90.214,266.387 90.333,266.250 90.333 C 266.075 90.333,266.000 90.509,266.000 90.917 C 266.000 91.389,265.937 91.500,265.667 91.500 C 265.184 91.500,265.135 56.099,265.616 55.746 C 265.840 55.583,265.914 55.194,265.970 53.895 C 266.019 52.730,266.107 52.211,266.270 52.117 C 266.430 52.024,266.500 51.638,266.500 50.844 C 266.500 49.846,266.541 49.695,266.833 49.618 C 267.112 49.546,267.167 49.391,267.167 48.682 L 267.167 47.833 265.954 47.833 C 265.196 47.833,264.617 47.919,264.412 48.062 M217.295 69.333 C 217.119 69.614,216.906 69.667,215.944 69.667 C 214.942 69.667,214.791 69.708,214.715 70.000 C 214.641 70.281,214.488 70.333,213.731 70.333 C 213.044 70.333,212.833 70.392,212.833 70.583 C 212.833 70.773,212.628 70.833,211.984 70.833 C 211.276 70.833,211.121 70.888,211.048 71.167 C 211.000 71.351,210.821 71.500,210.647 71.500 C 210.378 71.500,210.333 71.630,210.333 72.411 C 210.333 73.151,210.271 73.355,210.000 73.500 C 209.729 73.645,209.667 73.849,209.667 74.589 C 209.667 75.090,209.604 75.500,209.527 75.500 C 209.276 75.500,209.000 76.333,209.000 77.091 C 209.000 77.640,208.935 77.833,208.750 77.833 C 208.559 77.833,208.500 78.042,208.500 78.710 C 208.500 79.406,208.431 79.629,208.167 79.795 C 207.893 79.966,207.833 80.183,207.833 81.012 C 207.833 82.464,208.277 83.087,208.833 82.417 C 208.947 82.279,209.182 82.167,209.354 82.167 C 209.556 82.167,209.667 82.048,209.667 81.833 C 209.667 81.562,209.778 81.500,210.266 81.500 C 210.724 81.500,210.885 81.422,210.952 81.167 C 211.017 80.916,211.179 80.833,211.603 80.833 C 211.974 80.833,212.167 80.754,212.167 80.601 C 212.167 80.345,212.517 80.167,213.019 80.167 C 213.198 80.167,213.387 80.054,213.440 79.917 C 213.507 79.741,213.782 79.667,214.367 79.667 C 215.058 79.667,215.213 79.610,215.285 79.333 C 215.359 79.052,215.512 79.000,216.269 79.000 C 217.056 79.000,217.167 78.959,217.167 78.667 C 217.167 78.348,217.278 78.333,219.655 78.333 C 221.998 78.333,222.150 78.353,222.250 78.667 C 222.337 78.940,222.502 79.000,223.167 79.000 C 223.831 79.000,223.997 79.060,224.083 79.333 C 224.162 79.581,224.336 79.667,224.761 79.667 C 225.159 79.667,225.333 79.743,225.333 79.917 C 225.333 80.056,225.481 80.167,225.667 80.167 C 225.889 80.167,226.000 80.278,226.000 80.500 C 226.000 80.683,226.104 80.833,226.231 80.833 C 226.364 80.833,226.510 81.083,226.572 81.417 C 226.633 81.740,226.782 82.000,226.906 82.000 C 227.029 82.000,227.177 82.255,227.236 82.567 C 227.295 82.879,227.453 83.177,227.588 83.229 C 227.763 83.296,227.833 83.587,227.833 84.245 C 227.833 85.056,227.874 85.167,228.167 85.167 C 228.487 85.167,228.500 85.278,228.500 88.000 C 228.500 90.481,228.467 90.833,228.234 90.833 C 228.088 90.833,227.930 90.983,227.882 91.167 C 227.809 91.444,227.654 91.500,226.965 91.500 C 226.276 91.500,226.121 91.556,226.048 91.833 C 225.980 92.094,225.821 92.167,225.314 92.167 C 224.850 92.167,224.667 92.237,224.667 92.417 C 224.667 92.569,224.512 92.667,224.271 92.667 C 223.520 92.667,222.833 92.876,222.833 93.104 C 222.833 93.260,222.623 93.333,222.180 93.333 C 221.366 93.333,221.000 93.468,221.000 93.768 C 221.000 93.928,220.792 94.000,220.333 94.000 C 219.778 94.000,219.667 94.056,219.667 94.333 C 219.667 94.626,219.556 94.667,218.750 94.667 C 218.084 94.667,217.833 94.729,217.833 94.895 C 217.833 95.033,217.569 95.166,217.167 95.231 C 216.735 95.300,216.500 95.425,216.500 95.585 C 216.500 95.758,216.322 95.833,215.917 95.833 C 215.444 95.833,215.333 95.897,215.333 96.167 C 215.333 96.438,215.222 96.500,214.734 96.500 C 214.276 96.500,214.115 96.578,214.048 96.833 C 213.983 97.084,213.821 97.167,213.397 97.167 C 213.007 97.167,212.833 97.244,212.833 97.417 C 212.833 97.572,212.676 97.667,212.417 97.667 C 212.188 97.667,211.850 97.817,211.667 98.000 C 211.483 98.183,211.227 98.333,211.097 98.333 C 210.678 98.333,210.333 98.529,210.333 98.768 C 210.333 98.896,210.183 99.000,210.000 99.000 C 209.778 99.000,209.667 99.111,209.667 99.333 C 209.667 99.556,209.556 99.667,209.333 99.667 C 209.150 99.667,209.000 99.776,209.000 99.909 C 209.000 100.054,208.766 100.195,208.417 100.261 C 208.096 100.321,207.833 100.466,207.833 100.582 C 207.833 100.699,207.683 100.834,207.500 100.882 C 207.317 100.930,207.167 101.088,207.167 101.234 C 207.167 101.380,207.059 101.500,206.928 101.500 C 206.797 101.500,206.642 101.650,206.583 101.833 C 206.525 102.017,206.370 102.167,206.239 102.167 C 206.107 102.167,206.000 102.308,206.000 102.481 C 206.000 102.654,205.851 102.833,205.667 102.882 C 205.424 102.945,205.333 103.109,205.333 103.484 C 205.333 103.889,205.262 104.000,205.000 104.000 C 204.778 104.000,204.667 104.111,204.667 104.333 C 204.667 104.517,204.561 104.667,204.431 104.667 C 204.287 104.667,204.153 104.923,204.083 105.333 C 204.014 105.743,203.880 106.000,203.735 106.000 C 203.564 106.000,203.500 106.227,203.500 106.833 C 203.500 107.444,203.411 107.756,203.167 108.000 C 202.588 108.579,202.680 114.500,203.268 114.500 C 203.438 114.500,203.500 114.745,203.500 115.422 C 203.500 116.059,203.572 116.372,203.734 116.433 C 203.862 116.483,204.016 116.780,204.075 117.095 C 204.138 117.435,204.280 117.667,204.424 117.667 C 204.558 117.667,204.667 117.817,204.667 118.000 C 204.667 118.222,204.778 118.333,205.000 118.333 C 205.222 118.333,205.333 118.444,205.333 118.667 C 205.333 118.850,205.470 119.137,205.638 119.304 C 205.805 119.472,205.990 119.734,206.049 119.888 C 206.117 120.064,206.343 120.167,206.661 120.167 C 207.056 120.167,207.167 120.240,207.167 120.500 C 207.167 120.722,207.278 120.833,207.500 120.833 C 207.722 120.833,207.833 120.944,207.833 121.167 C 207.833 121.360,207.944 121.500,208.099 121.500 C 208.245 121.500,208.555 121.650,208.788 121.833 C 209.021 122.017,209.343 122.167,209.505 122.167 C 209.666 122.167,209.841 122.279,209.894 122.417 C 209.959 122.587,210.226 122.667,210.734 122.667 C 211.331 122.667,211.498 122.732,211.583 123.000 C 211.677 123.294,211.836 123.333,212.928 123.333 C 213.876 123.333,214.167 123.388,214.167 123.566 C 214.167 123.955,214.570 124.000,218.097 124.000 C 221.389 124.000,221.500 123.989,221.500 123.667 C 221.500 123.395,221.611 123.333,222.099 123.333 C 222.558 123.333,222.718 123.255,222.785 123.000 C 222.833 122.817,222.957 122.665,223.061 122.664 C 223.300 122.660,224.000 121.931,224.000 121.685 C 224.000 121.583,224.270 121.500,224.599 121.500 C 225.058 121.500,225.218 121.422,225.285 121.167 C 225.333 120.983,225.483 120.833,225.618 120.833 C 225.754 120.833,225.904 120.683,225.952 120.500 C 226.000 120.317,226.143 120.167,226.269 120.167 C 226.396 120.167,226.500 120.061,226.500 119.931 C 226.500 119.787,226.757 119.653,227.167 119.583 C 227.543 119.520,227.833 119.377,227.833 119.255 C 227.833 119.136,227.983 119.000,228.167 118.952 C 228.486 118.868,228.500 118.947,228.500 120.766 L 228.500 122.667 235.333 122.667 L 242.167 122.667 242.167 121.568 C 242.167 120.609,242.124 120.458,241.833 120.382 C 241.538 120.304,241.500 120.154,241.500 119.064 C 241.500 118.125,241.445 117.833,241.269 117.833 C 241.085 117.833,241.024 117.340,240.975 115.432 C 240.924 113.443,240.863 112.976,240.623 112.711 C 240.289 112.342,240.169 101.564,240.495 101.238 C 241.071 100.662,241.188 89.001,240.625 88.379 C 240.376 88.104,240.333 87.711,240.333 85.709 C 240.333 83.230,240.273 82.833,239.899 82.833 C 239.721 82.833,239.667 82.541,239.667 81.583 C 239.667 80.444,239.637 80.333,239.333 80.333 C 239.037 80.333,239.000 80.222,239.000 79.333 C 239.000 78.556,238.944 78.333,238.750 78.333 C 238.589 78.333,238.499 78.170,238.498 77.875 C 238.494 77.161,238.317 76.667,238.064 76.667 C 237.929 76.667,237.833 76.494,237.833 76.250 C 237.833 75.944,237.744 75.833,237.500 75.833 C 237.230 75.833,237.167 75.722,237.167 75.250 C 237.167 74.778,237.103 74.667,236.833 74.667 C 236.611 74.667,236.500 74.556,236.500 74.333 C 236.500 74.150,236.396 74.000,236.269 74.000 C 236.143 74.000,236.000 73.850,235.952 73.667 C 235.904 73.483,235.745 73.333,235.599 73.333 C 235.453 73.333,235.333 73.221,235.333 73.083 C 235.333 72.944,235.185 72.833,235.000 72.833 C 234.778 72.833,234.667 72.722,234.667 72.500 C 234.667 72.278,234.556 72.167,234.333 72.167 C 234.111 72.167,234.000 72.056,234.000 71.833 C 234.000 71.563,233.889 71.500,233.417 71.500 C 232.994 71.500,232.833 71.427,232.833 71.234 C 232.833 71.088,232.689 70.931,232.512 70.885 C 232.335 70.838,232.149 70.695,232.100 70.567 C 232.040 70.409,231.737 70.333,231.172 70.333 C 230.444 70.333,230.333 70.289,230.333 70.000 C 230.333 69.704,230.222 69.667,229.333 69.667 C 228.444 69.667,228.333 69.630,228.333 69.333 C 228.333 69.007,228.222 69.000,222.918 69.000 C 217.683 69.000,217.496 69.011,217.295 69.333 M316.048 69.333 C 315.975 69.615,315.821 69.667,315.048 69.667 C 314.276 69.667,314.122 69.718,314.048 70.000 C 313.976 70.276,313.821 70.333,313.142 70.333 C 312.593 70.333,312.293 70.410,312.233 70.567 C 312.184 70.695,311.886 70.849,311.572 70.908 C 311.232 70.972,311.000 71.113,311.000 71.258 C 311.000 71.391,310.850 71.500,310.667 71.500 C 310.444 71.500,310.333 71.611,310.333 71.833 C 310.333 72.103,310.222 72.167,309.750 72.167 C 309.327 72.167,309.167 72.240,309.167 72.432 C 309.167 72.578,309.017 72.737,308.833 72.785 C 308.650 72.833,308.500 72.976,308.500 73.103 C 308.500 73.230,308.350 73.333,308.167 73.333 C 307.944 73.333,307.833 73.444,307.833 73.667 C 307.833 73.889,307.722 74.000,307.500 74.000 C 307.278 74.000,307.167 74.111,307.167 74.333 C 307.167 74.556,307.056 74.667,306.833 74.667 C 306.611 74.667,306.500 74.778,306.500 75.000 C 306.500 75.185,306.389 75.333,306.250 75.333 C 306.112 75.333,306.000 75.446,306.000 75.583 C 306.000 75.721,305.885 75.833,305.745 75.833 C 305.604 75.833,305.441 75.965,305.381 76.125 C 305.321 76.285,305.136 76.515,304.969 76.634 C 304.795 76.760,304.667 77.060,304.667 77.343 C 304.667 77.722,304.591 77.833,304.333 77.833 C 304.111 77.833,304.000 77.944,304.000 78.167 C 304.000 78.352,303.889 78.500,303.750 78.500 C 303.575 78.500,303.500 78.676,303.500 79.083 C 303.500 79.556,303.437 79.667,303.167 79.667 C 302.899 79.667,302.833 79.778,302.833 80.231 C 302.833 80.654,302.750 80.816,302.500 80.882 C 302.245 80.948,302.167 81.109,302.167 81.568 C 302.167 81.969,302.090 82.167,301.934 82.167 C 301.643 82.167,301.500 82.530,301.500 83.269 C 301.500 83.626,301.405 83.880,301.250 83.940 C 301.083 84.004,301.000 84.266,301.000 84.728 C 301.000 85.239,300.913 85.474,300.667 85.628 C 300.394 85.798,300.333 86.017,300.333 86.826 C 300.333 87.596,300.268 87.853,300.042 87.980 C 299.799 88.116,299.737 88.464,299.667 90.078 C 299.603 91.552,299.524 92.050,299.333 92.167 C 298.806 92.492,298.900 101.333,299.431 101.333 C 299.617 101.333,299.667 101.658,299.669 102.875 C 299.672 104.630,299.773 105.167,300.103 105.167 C 300.271 105.167,300.333 105.413,300.333 106.077 C 300.333 106.818,300.396 107.022,300.667 107.167 C 300.931 107.308,301.000 107.516,301.000 108.173 C 301.000 108.797,301.061 109.000,301.250 109.000 C 301.422 109.000,301.500 109.173,301.500 109.558 C 301.500 109.903,301.627 110.230,301.833 110.417 C 302.017 110.583,302.167 110.885,302.167 111.090 C 302.167 111.321,302.292 111.494,302.500 111.548 C 302.743 111.612,302.833 111.776,302.833 112.151 C 302.833 112.556,302.905 112.667,303.167 112.667 C 303.437 112.667,303.500 112.778,303.500 113.255 C 303.500 113.625,303.593 113.880,303.750 113.940 C 303.887 113.992,304.000 114.135,304.000 114.257 C 304.000 114.378,304.150 114.525,304.333 114.583 C 304.517 114.642,304.667 114.797,304.667 114.928 C 304.667 115.059,304.817 115.167,305.000 115.167 C 305.262 115.167,305.333 115.278,305.333 115.682 C 305.333 116.058,305.424 116.222,305.667 116.285 C 305.851 116.333,306.000 116.512,306.000 116.686 C 306.000 116.862,306.117 117.000,306.266 117.000 C 306.412 117.000,306.570 117.150,306.618 117.333 C 306.666 117.517,306.791 117.667,306.896 117.667 C 307.001 117.667,307.180 117.817,307.295 118.000 C 307.427 118.213,307.683 118.333,308.001 118.333 C 308.389 118.333,308.500 118.408,308.500 118.667 C 308.500 118.852,308.611 119.000,308.750 119.000 C 308.887 119.000,309.000 119.115,309.000 119.255 C 309.000 119.396,309.131 119.559,309.292 119.618 C 309.452 119.677,309.643 119.824,309.717 119.946 C 309.790 120.067,310.109 120.167,310.425 120.167 C 310.889 120.167,311.000 120.231,311.000 120.500 C 311.000 120.770,311.111 120.833,311.583 120.833 C 312.056 120.833,312.167 120.897,312.167 121.167 C 312.167 121.444,312.278 121.500,312.833 121.500 C 313.292 121.500,313.500 121.572,313.500 121.732 C 313.500 121.984,313.849 122.167,314.329 122.167 C 314.495 122.167,314.674 122.279,314.727 122.417 C 314.800 122.606,315.107 122.667,315.995 122.667 C 317.056 122.667,317.167 122.698,317.167 123.000 C 317.167 123.309,317.278 123.333,318.667 123.333 C 319.944 123.333,320.216 123.383,320.500 123.667 C 320.812 123.978,321.056 124.000,324.244 124.000 C 327.484 124.000,327.664 123.983,327.833 123.667 C 327.994 123.366,328.182 123.333,329.756 123.333 C 331.278 123.333,331.542 123.291,331.833 123.000 C 332.103 122.730,332.389 122.667,333.327 122.667 C 334.318 122.667,334.514 122.618,334.667 122.333 C 334.765 122.150,334.955 122.000,335.089 122.000 C 335.257 122.000,335.333 121.818,335.333 121.417 C 335.333 121.031,335.412 120.833,335.564 120.833 C 335.817 120.833,335.994 120.338,335.998 119.620 C 335.999 119.363,336.112 119.113,336.250 119.060 C 336.413 118.998,336.500 118.738,336.500 118.316 C 336.500 117.778,336.557 117.667,336.833 117.667 C 337.111 117.667,337.167 117.556,337.167 117.000 C 337.167 116.543,337.239 116.333,337.397 116.333 C 337.649 116.333,337.827 115.839,337.831 115.131 C 337.832 114.851,337.960 114.610,338.167 114.500 C 338.385 114.383,338.500 114.151,338.500 113.827 C 338.500 113.499,338.584 113.333,338.750 113.333 C 338.942 113.333,339.000 113.120,339.000 112.417 L 339.000 111.500 338.083 111.500 C 337.278 111.500,337.167 111.540,337.167 111.833 C 337.167 112.122,337.056 112.167,336.328 112.167 C 335.736 112.167,335.461 112.240,335.394 112.417 C 335.341 112.554,335.128 112.667,334.920 112.667 C 334.185 112.667,333.500 112.878,333.500 113.104 C 333.500 113.270,333.252 113.333,332.595 113.333 C 331.843 113.333,331.672 113.389,331.586 113.658 C 331.397 114.253,322.272 114.252,322.116 113.658 C 322.046 113.390,321.883 113.333,321.182 113.333 C 320.568 113.333,320.333 113.269,320.333 113.101 C 320.333 112.832,319.978 112.667,319.403 112.667 C 319.156 112.667,319.000 112.570,319.000 112.417 C 319.000 112.278,318.852 112.167,318.667 112.167 C 318.483 112.167,318.333 112.062,318.333 111.934 C 318.333 111.680,317.983 111.500,317.486 111.500 C 317.278 111.500,317.167 111.384,317.167 111.167 C 317.167 110.944,317.056 110.833,316.833 110.833 C 316.611 110.833,316.500 110.722,316.500 110.500 C 316.500 110.315,316.389 110.167,316.250 110.167 C 316.112 110.167,316.000 110.054,316.000 109.917 C 316.000 109.778,315.852 109.667,315.667 109.667 C 315.409 109.667,315.333 109.556,315.333 109.176 C 315.333 108.893,315.205 108.593,315.031 108.468 C 314.864 108.348,314.679 108.119,314.619 107.958 C 314.559 107.798,314.396 107.667,314.255 107.667 C 314.075 107.667,314.000 107.496,314.000 107.083 C 314.000 106.676,313.925 106.500,313.750 106.500 C 313.576 106.500,313.500 106.325,313.500 105.928 C 313.500 105.502,313.415 105.329,313.167 105.250 C 312.892 105.163,312.833 104.998,312.833 104.306 C 312.833 103.609,312.778 103.454,312.500 103.382 C 312.208 103.305,312.167 103.154,312.167 102.158 C 312.167 101.169,312.124 101.009,311.833 100.917 C 311.539 100.823,311.500 100.664,311.500 99.572 L 311.500 98.333 325.830 98.333 L 340.160 98.333 340.254 97.958 C 340.515 96.915,340.253 87.478,339.958 87.313 C 339.713 87.176,339.667 86.903,339.667 85.601 C 339.667 84.263,339.621 84.010,339.333 83.750 C 339.079 83.520,339.000 83.237,339.000 82.552 C 339.000 81.910,338.929 81.629,338.750 81.560 C 338.611 81.507,338.500 81.260,338.500 81.005 C 338.500 80.752,338.350 80.354,338.167 80.121 C 337.983 79.888,337.833 79.547,337.833 79.362 C 337.833 78.851,337.656 78.500,337.399 78.500 C 337.271 78.500,337.167 78.368,337.167 78.207 C 337.167 78.045,337.017 77.820,336.833 77.705 C 336.621 77.573,336.500 77.317,336.500 76.999 C 336.500 76.667,336.417 76.500,336.250 76.500 C 336.112 76.500,336.000 76.390,336.000 76.256 C 336.000 76.122,335.850 75.931,335.667 75.833 C 335.467 75.726,335.333 75.484,335.333 75.229 C 335.333 74.942,335.224 74.773,335.000 74.715 C 334.816 74.667,334.667 74.488,334.667 74.314 C 334.667 74.111,334.549 74.000,334.333 74.000 C 334.111 74.000,334.000 73.889,334.000 73.667 C 334.000 73.483,333.896 73.333,333.768 73.333 C 333.640 73.333,333.492 73.221,333.440 73.083 C 333.387 72.946,333.229 72.833,333.089 72.833 C 332.944 72.833,332.833 72.688,332.833 72.500 C 332.833 72.276,332.722 72.167,332.493 72.167 C 332.306 72.167,331.992 72.017,331.795 71.833 C 331.598 71.650,331.344 71.500,331.230 71.500 C 331.116 71.500,330.975 71.350,330.917 71.167 C 330.838 70.919,330.664 70.833,330.239 70.833 C 329.841 70.833,329.667 70.757,329.667 70.583 C 329.667 70.410,329.492 70.333,329.095 70.333 C 328.669 70.333,328.495 70.248,328.417 70.000 C 328.328 69.722,328.164 69.667,327.425 69.667 C 326.679 69.667,326.525 69.614,326.452 69.333 C 326.367 69.009,326.224 69.000,321.250 69.000 C 316.276 69.000,316.133 69.009,316.048 69.333 M372.882 69.333 C 372.808 69.615,372.654 69.667,371.897 69.667 C 371.111 69.667,371.000 69.708,371.000 70.000 C 371.000 70.278,370.889 70.333,370.333 70.333 C 369.852 70.333,369.667 70.403,369.667 70.583 C 369.667 70.721,369.547 70.833,369.401 70.833 C 369.255 70.833,369.096 70.983,369.048 71.167 C 369.000 71.350,368.857 71.500,368.731 71.500 C 368.604 71.500,368.500 71.650,368.500 71.833 C 368.500 72.056,368.389 72.167,368.167 72.167 C 367.951 72.167,367.833 72.278,367.833 72.481 C 367.833 72.654,367.684 72.833,367.500 72.882 C 367.317 72.930,367.167 73.088,367.167 73.234 C 367.167 73.380,367.058 73.500,366.924 73.500 C 366.779 73.500,366.638 73.734,366.572 74.083 C 366.510 74.417,366.364 74.667,366.231 74.667 C 366.104 74.667,366.000 74.817,366.000 75.000 C 366.000 75.222,365.889 75.333,365.667 75.333 C 365.481 75.333,365.333 75.444,365.333 75.583 C 365.333 75.722,365.185 75.833,365.000 75.833 C 364.785 75.833,364.667 75.944,364.667 76.147 C 364.667 76.321,364.518 76.500,364.333 76.548 C 364.150 76.596,364.000 76.755,364.000 76.901 C 364.000 77.047,363.893 77.167,363.762 77.167 C 363.630 77.167,363.491 77.335,363.451 77.542 C 363.411 77.748,363.369 76.246,363.356 74.203 C 363.338 71.187,363.289 70.473,363.100 70.400 C 362.971 70.351,362.828 70.165,362.782 69.988 C 362.655 69.501,349.883 69.485,349.442 69.971 C 349.107 70.342,349.081 71.100,349.397 71.283 C 349.544 71.369,349.652 71.826,349.697 72.558 C 349.750 73.408,349.840 73.741,350.051 73.858 C 350.285 73.990,350.333 74.284,350.333 75.590 C 350.333 76.983,350.372 77.188,350.667 77.372 C 350.981 77.568,351.000 77.761,351.000 80.686 C 351.000 83.244,351.044 83.829,351.250 84.000 C 351.468 84.181,351.500 85.928,351.500 97.859 C 351.500 109.840,351.469 111.522,351.250 111.606 C 351.046 111.685,351.000 112.095,351.000 113.851 C 351.000 115.577,350.954 116.000,350.768 116.000 C 350.428 116.000,350.333 116.381,350.333 117.744 C 350.333 118.821,350.295 118.971,350.000 119.048 C 349.710 119.124,349.667 119.276,349.667 120.214 C 349.667 120.969,349.592 121.355,349.417 121.500 C 349.025 121.825,349.100 122.478,349.542 122.585 C 349.748 122.635,353.367 122.655,357.583 122.630 L 365.250 122.583 365.305 122.105 C 365.383 121.422,365.201 120.833,364.913 120.833 C 364.719 120.833,364.667 120.587,364.667 119.678 C 364.667 118.669,364.624 118.509,364.333 118.417 C 364.031 118.321,364.000 118.164,364.000 116.751 C 364.000 115.511,363.942 115.133,363.720 114.910 C 363.462 114.652,363.434 113.379,363.371 99.190 C 363.309 85.301,363.275 83.729,363.036 83.542 C 362.793 83.351,362.793 83.333,363.040 83.333 C 363.189 83.333,363.358 83.183,363.417 83.000 C 363.495 82.752,363.669 82.667,364.095 82.667 C 364.492 82.667,364.667 82.590,364.667 82.417 C 364.667 82.243,364.841 82.167,365.239 82.167 C 365.664 82.167,365.838 82.081,365.917 81.833 C 365.988 81.610,366.170 81.499,366.470 81.498 C 367.173 81.494,367.667 81.315,367.667 81.064 C 367.667 80.906,367.877 80.833,368.333 80.833 C 368.792 80.833,369.000 80.761,369.000 80.601 C 369.000 80.262,369.381 80.167,370.746 80.167 C 371.675 80.167,371.987 80.107,372.060 79.917 C 372.123 79.753,372.383 79.667,372.810 79.667 C 373.238 79.667,373.498 79.753,373.560 79.917 C 373.629 80.097,373.911 80.167,374.564 80.167 C 375.626 80.167,376.000 80.280,376.000 80.601 C 376.000 80.765,376.220 80.833,376.749 80.833 C 377.317 80.833,377.547 80.914,377.705 81.167 C 377.820 81.350,378.037 81.500,378.187 81.500 C 378.338 81.500,378.500 81.650,378.548 81.833 C 378.623 82.120,378.776 82.167,379.645 82.167 C 380.890 82.167,381.000 82.013,381.000 80.279 C 381.000 79.328,381.059 79.013,381.250 78.940 C 381.447 78.864,381.500 78.524,381.500 77.347 C 381.500 76.094,381.548 75.823,381.792 75.687 C 382.031 75.553,382.094 75.236,382.141 73.926 C 382.191 72.547,382.244 72.304,382.524 72.154 C 382.804 72.004,382.841 71.829,382.799 70.865 L 382.750 69.750 381.959 69.699 C 381.380 69.662,381.122 69.562,380.995 69.324 C 380.721 68.813,373.016 68.821,372.882 69.333 M323.632 78.052 C 323.819 78.221,324.220 78.333,324.638 78.333 C 325.222 78.333,325.333 78.387,325.333 78.667 C 325.333 78.889,325.444 79.000,325.667 79.000 C 325.889 79.000,326.000 79.111,326.000 79.333 C 326.000 79.522,326.111 79.667,326.255 79.667 C 326.396 79.667,326.554 79.779,326.606 79.917 C 326.659 80.054,326.807 80.167,326.934 80.167 C 327.062 80.167,327.167 80.317,327.167 80.500 C 327.167 80.722,327.278 80.833,327.500 80.833 C 327.722 80.833,327.833 80.944,327.833 81.167 C 327.833 81.389,327.944 81.500,328.167 81.500 C 328.437 81.500,328.500 81.611,328.500 82.083 C 328.500 82.491,328.575 82.667,328.750 82.667 C 328.926 82.667,329.000 82.844,329.000 83.266 C 329.000 83.724,329.078 83.885,329.333 83.952 C 329.626 84.028,329.667 84.179,329.667 85.202 C 329.667 86.224,329.707 86.375,330.000 86.452 C 330.303 86.531,330.333 86.679,330.333 88.103 L 330.333 89.667 320.917 89.667 L 311.500 89.667 311.500 88.103 C 311.500 86.679,311.530 86.531,311.833 86.452 C 312.115 86.378,312.167 86.224,312.167 85.458 C 312.167 84.763,312.245 84.481,312.500 84.250 C 312.720 84.051,312.833 83.737,312.833 83.327 C 312.833 82.846,312.909 82.686,313.167 82.618 C 313.409 82.555,313.500 82.391,313.500 82.016 C 313.500 81.668,313.582 81.500,313.750 81.500 C 313.889 81.500,314.000 81.352,314.000 81.167 C 314.000 80.944,314.111 80.833,314.333 80.833 C 314.556 80.833,314.667 80.722,314.667 80.500 C 314.667 80.278,314.778 80.167,315.000 80.167 C 315.185 80.167,315.333 80.056,315.333 79.917 C 315.333 79.779,315.441 79.667,315.572 79.667 C 315.703 79.667,315.858 79.517,315.917 79.333 C 315.975 79.150,316.130 79.000,316.261 79.000 C 316.393 79.000,316.500 78.850,316.500 78.667 C 316.500 78.384,316.611 78.333,317.238 78.333 C 317.655 78.333,318.080 78.230,318.214 78.096 C 318.719 77.591,323.084 77.556,323.632 78.052 M228.500 107.405 L 228.500 113.977 225.843 114.030 C 220.956 114.128,219.045 114.023,218.948 113.653 C 218.881 113.395,218.714 113.333,218.083 113.333 C 217.442 113.333,217.286 113.274,217.215 113.000 C 217.167 112.816,216.988 112.667,216.814 112.667 C 216.641 112.667,216.500 112.554,216.500 112.417 C 216.500 112.279,216.387 112.167,216.250 112.167 C 216.111 112.167,216.000 112.019,216.000 111.833 C 216.000 111.611,215.889 111.500,215.667 111.500 C 215.377 111.500,215.333 111.389,215.333 110.651 C 215.333 109.942,215.278 109.788,215.000 109.715 C 214.692 109.634,214.667 109.488,214.667 107.750 C 214.667 106.012,214.692 105.866,215.000 105.785 C 215.292 105.709,215.333 105.558,215.333 104.576 C 215.333 103.713,215.399 103.406,215.616 103.247 C 215.817 103.100,215.919 102.722,215.969 101.937 L 216.039 100.833 222.269 100.833 L 228.500 100.833 228.500 107.405 " stroke="none" fill="#040404" fill-rule="evenodd"></path><path id="path4" d="M32.833 26.261 C 32.833 26.486,32.602 26.531,31.398 26.544 C 31.187 26.546,31.053 26.649,31.064 26.800 C 31.085 27.068,30.237 27.389,29.868 27.252 C 29.737 27.203,29.672 27.281,29.702 27.450 C 29.731 27.616,29.609 27.766,29.399 27.822 C 29.206 27.874,29.066 28.032,29.087 28.174 C 29.124 28.409,28.904 28.487,28.049 28.543 C 27.938 28.550,27.887 28.618,27.934 28.694 C 27.981 28.770,27.902 29.000,27.760 29.203 C 27.617 29.407,27.500 29.482,27.500 29.370 C 27.500 29.258,27.429 29.167,27.343 29.167 C 27.256 29.167,27.217 29.327,27.254 29.523 C 27.292 29.718,27.276 29.831,27.218 29.774 C 27.161 29.717,26.999 29.763,26.858 29.876 C 26.649 30.046,26.628 30.041,26.744 29.849 C 26.843 29.684,26.824 29.653,26.678 29.743 C 26.564 29.813,26.505 30.003,26.548 30.164 C 26.606 30.388,26.547 30.438,26.298 30.372 C 26.052 30.308,25.979 30.365,26.005 30.602 C 26.078 31.286,25.995 31.500,25.657 31.500 C 25.468 31.500,25.358 31.572,25.413 31.661 C 25.467 31.749,25.349 31.984,25.150 32.184 C 24.931 32.403,24.755 32.834,24.705 33.273 C 24.653 33.738,24.541 34.000,24.395 34.000 C 24.269 34.000,24.166 34.131,24.164 34.292 C 24.092 42.977,24.118 131.333,24.193 131.333 C 24.253 131.333,24.263 131.483,24.215 131.667 C 24.154 131.898,24.210 132.000,24.397 132.000 C 24.600 132.000,24.667 132.164,24.667 132.667 C 24.667 133.222,24.722 133.333,25.000 133.333 C 25.319 133.333,25.382 133.480,25.377 134.218 C 25.376 134.409,25.461 134.487,25.610 134.430 C 25.754 134.374,25.904 134.498,26.001 134.753 C 26.088 134.981,26.278 135.167,26.424 135.167 C 26.599 135.167,26.659 135.266,26.601 135.458 C 26.497 135.805,26.906 136.411,27.144 136.264 C 27.235 136.207,27.365 136.249,27.431 136.356 C 27.511 136.486,27.473 136.511,27.317 136.430 C 27.189 136.363,27.260 136.464,27.477 136.654 C 27.693 136.844,28.012 137.000,28.185 137.000 C 28.389 137.000,28.500 137.118,28.500 137.333 C 28.500 137.585,28.612 137.667,28.958 137.669 C 29.306 137.671,29.358 137.709,29.171 137.827 C 29.037 137.912,28.986 138.041,29.058 138.114 C 29.190 138.246,29.259 138.261,29.958 138.308 C 30.218 138.326,30.333 138.439,30.333 138.677 C 30.333 138.910,30.427 139.007,30.625 138.977 C 31.080 138.908,31.858 139.158,31.747 139.338 C 31.685 139.438,32.196 139.500,33.079 139.500 C 34.460 139.500,34.505 139.512,34.333 139.833 C 34.190 140.102,34.207 140.167,34.421 140.167 C 34.589 140.167,34.640 140.090,34.561 139.958 C 34.463 139.795,34.489 139.793,34.681 139.948 C 34.815 140.057,35.148 140.110,35.421 140.067 C 35.694 140.024,43.004 139.930,51.667 139.857 L 67.417 139.726 54.583 139.669 C 46.516 139.634,42.789 139.571,44.548 139.500 C 46.304 139.429,47.419 139.315,47.540 139.193 C 47.648 139.086,48.221 139.000,48.833 139.000 C 49.438 139.000,50.005 138.928,50.093 138.840 C 50.181 138.753,51.452 138.621,52.918 138.548 L 55.583 138.416 52.500 138.111 C 50.804 137.944,49.250 137.774,49.046 137.735 L 48.676 137.663 48.630 101.702 L 48.583 65.742 48.208 65.340 C 47.896 65.005,47.833 64.748,47.833 63.816 C 47.833 63.108,47.761 62.670,47.638 62.629 C 47.517 62.589,47.416 62.003,47.369 61.074 C 47.318 60.033,47.215 59.493,47.030 59.282 C 46.704 58.913,46.538 56.895,46.810 56.623 C 47.117 56.317,47.237 56.626,47.302 57.884 C 47.338 58.586,47.451 59.153,47.575 59.251 C 47.691 59.344,47.841 60.005,47.909 60.721 C 47.991 61.598,48.107 62.052,48.265 62.112 C 48.436 62.178,48.500 62.517,48.500 63.353 C 48.500 64.297,48.560 64.554,48.833 64.789 C 49.092 65.010,49.167 65.281,49.168 65.995 C 49.169 66.634,49.270 67.070,49.500 67.417 C 49.710 67.734,49.832 68.199,49.832 68.688 C 49.833 69.141,49.929 69.538,50.065 69.651 C 50.192 69.757,50.349 70.272,50.413 70.797 C 50.478 71.321,50.627 71.862,50.745 72.000 C 50.864 72.137,51.011 72.673,51.073 73.190 C 51.135 73.707,51.292 74.269,51.421 74.440 C 51.550 74.610,51.660 74.975,51.665 75.250 C 51.670 75.525,51.822 76.077,52.004 76.477 C 52.185 76.876,52.333 77.403,52.333 77.648 C 52.333 77.892,52.437 78.240,52.563 78.421 C 52.690 78.602,52.882 79.181,52.992 79.708 C 53.101 80.235,53.250 80.667,53.324 80.667 C 53.397 80.667,53.505 81.028,53.564 81.471 C 53.622 81.913,53.780 82.419,53.913 82.596 C 54.047 82.772,54.158 83.105,54.161 83.336 C 54.164 83.566,54.317 84.035,54.500 84.377 C 54.683 84.719,54.833 85.170,54.833 85.379 C 54.833 85.588,54.936 85.907,55.062 86.088 C 55.188 86.269,55.345 86.679,55.412 87.000 C 55.478 87.321,55.632 87.741,55.754 87.934 C 55.876 88.127,56.027 88.555,56.089 88.886 C 56.151 89.217,56.306 89.575,56.434 89.681 C 56.562 89.787,56.667 90.026,56.667 90.210 C 56.667 90.395,56.826 90.893,57.021 91.315 C 57.886 93.192,58.000 93.465,58.000 93.659 C 58.000 93.773,58.107 94.064,58.237 94.308 C 58.598 94.981,59.167 96.257,59.167 96.393 C 59.167 96.459,59.383 96.980,59.647 97.549 C 59.911 98.118,60.364 99.108,60.653 99.750 C 60.941 100.392,61.250 101.029,61.339 101.167 C 61.428 101.304,61.579 101.604,61.675 101.833 C 61.770 102.063,62.164 102.872,62.549 103.632 C 62.935 104.392,63.390 105.292,63.560 105.632 C 63.731 105.972,63.937 106.275,64.019 106.306 C 64.100 106.336,64.167 106.439,64.167 106.535 C 64.167 106.698,64.879 107.967,65.537 108.976 C 65.695 109.218,65.976 109.679,66.162 110.000 C 67.945 113.077,71.432 117.023,74.083 118.964 C 74.942 119.593,76.682 120.541,76.786 120.437 C 76.813 120.409,76.555 120.244,76.212 120.068 C 73.789 118.831,70.127 115.475,68.500 113.000 C 68.362 112.791,68.098 112.424,67.912 112.185 C 67.129 111.178,65.321 108.286,64.357 106.500 C 62.324 102.735,59.113 95.862,58.711 94.417 C 58.660 94.233,58.563 94.008,58.495 93.917 C 58.313 93.672,57.067 90.445,56.082 87.667 C 55.741 86.704,55.399 85.767,55.322 85.583 C 55.245 85.400,54.990 84.650,54.755 83.917 C 54.521 83.183,54.250 82.358,54.153 82.083 C 53.938 81.476,53.403 79.718,53.087 78.583 C 52.960 78.125,52.695 77.225,52.500 76.583 C 52.305 75.942,52.044 75.042,51.921 74.583 C 51.798 74.125,51.494 73.000,51.246 72.083 C 50.997 71.167,50.695 70.004,50.575 69.500 C 50.454 68.996,50.272 68.246,50.169 67.833 C 49.836 66.501,49.356 64.455,48.996 62.833 C 48.802 61.962,48.569 60.962,48.478 60.610 C 48.386 60.258,48.209 59.433,48.085 58.777 C 47.802 57.280,47.197 54.232,47.063 53.627 C 46.920 52.980,47.372 52.852,48.234 53.296 C 50.601 54.514,55.856 56.239,60.000 57.158 C 60.871 57.352,62.071 57.618,62.667 57.750 C 63.262 57.883,64.162 58.038,64.667 58.095 C 65.171 58.152,65.846 58.264,66.167 58.344 C 66.709 58.478,69.118 58.792,72.500 59.169 C 73.279 59.256,74.479 59.317,75.167 59.305 C 76.370 59.284,76.351 59.278,74.667 59.159 C 73.704 59.091,72.429 58.958,71.833 58.863 C 71.237 58.769,70.112 58.643,69.333 58.584 C 68.554 58.525,67.692 58.408,67.417 58.324 C 67.142 58.240,66.204 58.063,65.333 57.931 C 64.462 57.799,63.394 57.610,62.958 57.512 C 61.373 57.154,60.563 56.975,59.583 56.764 C 59.033 56.646,58.224 56.426,57.786 56.275 C 57.347 56.124,56.820 56.000,56.615 56.000 C 56.409 56.000,56.084 55.890,55.892 55.755 C 55.699 55.621,55.215 55.458,54.815 55.394 C 54.415 55.330,53.988 55.178,53.865 55.056 C 53.743 54.933,53.478 54.833,53.277 54.833 C 53.076 54.833,52.632 54.683,52.290 54.500 C 51.948 54.317,51.523 54.167,51.346 54.167 C 51.169 54.167,50.910 54.053,50.772 53.914 C 50.633 53.776,50.271 53.613,49.968 53.554 C 49.665 53.494,49.319 53.307,49.199 53.139 C 49.079 52.971,48.806 52.833,48.592 52.833 C 48.378 52.833,48.161 52.726,48.111 52.595 C 48.061 52.464,47.696 52.292,47.301 52.213 L 46.583 52.068 47.040 51.766 C 47.557 51.424,48.333 51.517,48.333 51.920 C 48.333 52.056,48.408 52.167,48.500 52.167 C 48.610 52.167,48.667 48.005,48.667 40.015 L 48.667 27.863 50.042 27.768 C 50.798 27.715,54.642 27.588,58.583 27.486 C 71.283 27.157,69.946 26.962,52.417 26.587 C 47.192 26.475,43.629 26.365,44.500 26.341 C 49.864 26.196,48.135 26.046,40.958 26.035 C 34.009 26.024,32.833 26.057,32.833 26.261 M46.667 54.877 C 46.667 55.804,46.613 56.179,46.496 56.062 C 46.269 55.835,46.095 54.309,46.233 53.757 C 46.440 52.934,46.667 53.519,46.667 54.877 M87.628 59.287 C 87.928 59.325,88.378 59.324,88.628 59.286 C 88.878 59.248,88.633 59.217,88.083 59.218 C 87.533 59.219,87.328 59.250,87.628 59.287 M78.885 59.458 C 80.151 59.486,82.176 59.486,83.385 59.458 C 84.594 59.429,83.558 59.406,81.083 59.406 C 78.608 59.406,77.619 59.430,78.885 59.458 M81.370 70.926 L 81.000 71.186 81.000 82.476 C 81.000 91.035,81.048 93.815,81.200 93.967 C 81.428 94.195,82.561 94.210,83.667 93.999 C 84.208 93.896,84.005 93.883,82.940 93.950 C 81.789 94.022,81.430 93.992,81.317 93.813 C 81.129 93.516,81.126 71.489,81.314 71.192 C 81.393 71.068,81.710 70.907,82.020 70.834 C 82.493 70.722,82.515 70.698,82.162 70.684 C 81.930 70.674,81.574 70.783,81.370 70.926 M65.250 73.779 C 63.267 73.981,60.853 75.125,58.457 76.998 C 56.788 78.302,56.953 78.443,60.292 78.572 C 64.145 78.720,69.973 78.994,72.658 79.152 C 76.075 79.354,76.072 79.358,74.042 77.336 C 71.432 74.737,68.300 73.470,65.250 73.779 M68.528 74.262 C 70.863 74.840,74.586 77.375,75.052 78.703 C 75.203 79.135,75.006 79.171,73.460 78.996 C 72.678 78.907,69.536 78.714,66.478 78.566 C 56.660 78.094,57.283 78.247,59.230 76.782 C 62.392 74.401,65.593 73.534,68.528 74.262 M87.662 77.292 L 86.583 78.417 87.708 77.338 C 88.327 76.745,88.833 76.239,88.833 76.213 C 88.833 76.090,88.664 76.247,87.662 77.292 M98.292 78.784 C 98.498 78.824,98.835 78.824,99.042 78.784 C 99.248 78.745,99.079 78.712,98.667 78.712 C 98.254 78.712,98.085 78.745,98.292 78.784 M94.292 78.951 C 94.498 78.991,94.835 78.991,95.042 78.951 C 95.248 78.911,95.079 78.879,94.667 78.879 C 94.254 78.879,94.085 78.911,94.292 78.951 M92.044 79.120 C 92.297 79.158,92.672 79.157,92.877 79.117 C 93.082 79.078,92.875 79.046,92.417 79.048 C 91.958 79.049,91.791 79.081,92.044 79.120 M88.455 79.287 C 88.750 79.324,89.275 79.324,89.621 79.288 C 89.967 79.252,89.725 79.222,89.083 79.221 C 88.442 79.221,88.159 79.250,88.455 79.287 M84.875 93.782 C 85.035 93.823,85.298 93.823,85.458 93.782 C 85.619 93.740,85.487 93.705,85.167 93.705 C 84.846 93.705,84.715 93.740,84.875 93.782 M84.083 104.000 C 83.873 104.090,83.842 104.143,84.000 104.143 C 84.137 104.143,84.400 104.079,84.583 104.000 C 84.793 103.910,84.824 103.857,84.667 103.857 C 84.529 103.857,84.267 103.921,84.083 104.000 M82.625 104.284 C 82.831 104.324,83.169 104.324,83.375 104.284 C 83.581 104.245,83.412 104.212,83.000 104.212 C 82.587 104.212,82.419 104.245,82.625 104.284 M81.111 104.444 C 81.050 104.506,81.000 108.254,81.000 112.775 L 81.000 120.994 80.625 121.076 C 80.419 121.121,80.025 121.187,79.750 121.221 C 79.321 121.275,79.341 121.287,79.886 121.308 C 81.266 121.363,81.167 122.029,81.167 112.758 C 81.167 106.330,81.212 104.509,81.375 104.444 C 81.491 104.397,81.504 104.354,81.403 104.346 C 81.303 104.339,81.172 104.383,81.111 104.444 M77.667 120.833 C 78.079 121.006,78.567 121.150,78.750 121.151 C 78.933 121.153,78.674 121.007,78.173 120.827 C 77.020 120.413,76.674 120.417,77.667 120.833 " stroke="none" fill="#f31c24" fill-rule="evenodd"></path></g></svg>